<svg width="32" height="32" viewBox="0 0 32 32" fill="none" xmlns="http://www.w3.org/2000/svg">
<g clip-path="url(#clip0_37_111)">
<path d="M0 7C0 3.13401 3.13401 0 7 0H25C28.866 0 32 3.13401 32 7V25C32 28.866 28.866 32 25 32H7C3.13401 32 0 28.866 0 25V7Z" fill="url(#paint0_linear_37_111)" fill-opacity="0.1"/>
<g clip-path="url(#clip1_37_111)">
<path d="M16 27C10.4772 27 6 22.5228 6 17C6 11.4772 10.4772 7 16 7C21.5228 7 26 11.4772 26 17C26 19.3649 25.1791 21.538 23.8067 23.25" stroke="url(#paint1_angular_37_111)" stroke-width="2" stroke-linecap="round" stroke-dasharray="4 4"/>
<circle cx="23" cy="24" r="3" fill="white"/>
</g>
</g>
<defs>
<linearGradient id="paint0_linear_37_111" x1="16" y1="0" x2="16" y2="32" gradientUnits="userSpaceOnUse">
<stop stop-color="white"/>
<stop offset="1" stop-color="#999999"/>
</linearGradient>
<radialGradient id="paint1_angular_37_111" cx="0" cy="0" r="1" gradientUnits="userSpaceOnUse" gradientTransform="translate(18.9167 17) rotate(69.7751) scale(16.8737)">
<stop stop-opacity="0"/>
<stop offset="0.6" stop-color="white" stop-opacity="0.8"/>
<stop offset="1" stop-color="white"/>
</radialGradient>
<clipPath id="clip0_37_111">
<path d="M0 7C0 3.13401 3.13401 0 7 0H25C28.866 0 32 3.13401 32 7V25C32 28.866 28.866 32 25 32H7C3.13401 32 0 28.866 0 25V7Z" fill="white"/>
</clipPath>
<clipPath id="clip1_37_111">
<rect width="32" height="32" fill="white"/>
</clipPath>
</defs>
</svg>
