<svg width="350" height="442" viewBox="0 0 350 442" fill="none" xmlns="http://www.w3.org/2000/svg">
<mask id="path-1-inside-1_94_2415" fill="white">
<path fill-rule="evenodd" clip-rule="evenodd" d="M50.6969 9C48.7877 3.60576 43.6865 0 37.9644 0H15C6.71573 0 0 6.71574 0 15V427C0 435.284 6.71574 442 15 442H335C343.284 442 350 435.284 350 427V15C350 6.71573 343.284 0 335 0H312.036C306.313 0 301.212 3.60577 299.303 9C297.394 14.3942 292.293 18 286.571 18H63.4295C57.7073 18 52.6061 14.3942 50.6969 9Z"/>
</mask>
<path fill-rule="evenodd" clip-rule="evenodd" d="M50.6969 9C48.7877 3.60576 43.6865 0 37.9644 0H15C6.71573 0 0 6.71574 0 15V427C0 435.284 6.71574 442 15 442H335C343.284 442 350 435.284 350 427V15C350 6.71573 343.284 0 335 0H312.036C306.313 0 301.212 3.60577 299.303 9C297.394 14.3942 292.293 18 286.571 18H63.4295C57.7073 18 52.6061 14.3942 50.6969 9Z" fill="#E9ECF4"/>
<path d="M15 1H37.9644V-1H15V1ZM1 427V15H-1V427H1ZM335 441H15V443H335V441ZM349 15V427H351V15H349ZM312.036 1H335V-1H312.036V1ZM286.571 17H63.4295V19H286.571V17ZM63.4295 17C58.131 17 53.4075 13.6612 51.6396 8.66634L49.7542 9.33366C51.8048 15.1273 57.2836 19 63.4295 19V17ZM298.36 8.66634C296.593 13.6612 291.869 17 286.571 17V19C292.716 19 298.195 15.1273 300.246 9.33366L298.36 8.66634ZM312.036 -1C305.89 -1 300.411 2.87273 298.36 8.66634L300.246 9.33366C302.014 4.3388 306.737 1 312.036 1V-1ZM351 15C351 6.16344 343.837 -1 335 -1V1C342.732 1 349 7.26801 349 15H351ZM335 443C343.837 443 351 435.837 351 427H349C349 434.732 342.732 441 335 441V443ZM-1 427C-1 435.837 6.16345 443 15 443V441C7.26802 441 1 434.732 1 427H-1ZM37.9644 1C43.2629 1 47.9863 4.3388 49.7542 9.33366L51.6396 8.66634C49.589 2.87273 44.1102 -1 37.9644 -1V1ZM15 -1C6.16344 -1 -1 6.16346 -1 15H1C1 7.26802 7.26801 1 15 1V-1Z" fill="#AAAFC5" mask="url(#path-1-inside-1_94_2415)"/>
</svg>
