<svg width="350" height="636" viewBox="0 0 350 636" fill="none" xmlns="http://www.w3.org/2000/svg">
<path d="M0 24V612C0 625.255 10.7452 636 24 636H41.3148C46.8835 636 52.2788 634.064 56.5766 630.522L82.7244 608.978C87.0222 605.436 92.4175 603.5 97.9862 603.5H221.058C226.627 603.5 232.022 605.436 236.32 608.978L262.468 630.522C266.765 634.064 272.161 636 277.729 636H326C339.255 636 350 625.255 350 612V63.5C350 50.2452 339.255 39.5 326 39.5H236.922C232.194 39.5 227.572 38.1037 223.635 35.4863L176.294 4.01372C172.357 1.39631 167.735 0 163.007 0H24C10.7452 0 0 10.7451 0 24Z" fill="#1F1F3A"/>
<path d="M0 24V612C0 625.255 10.7452 636 24 636H41.3148C46.8835 636 52.2788 634.064 56.5766 630.522L82.7244 608.978C87.0222 605.436 92.4175 603.5 97.9862 603.5H221.058C226.627 603.5 232.022 605.436 236.32 608.978L262.468 630.522C266.765 634.064 272.161 636 277.729 636H326C339.255 636 350 625.255 350 612V63.5C350 50.2452 339.255 39.5 326 39.5H236.922C232.194 39.5 227.572 38.1037 223.635 35.4863L176.294 4.01372C172.357 1.39631 167.735 0 163.007 0H24C10.7452 0 0 10.7451 0 24Z" fill="url(#paint0_linear_351_17719)" fill-opacity="0.8"/>
<defs>
<linearGradient id="paint0_linear_351_17719" x1="0" y1="318" x2="350" y2="318" gradientUnits="userSpaceOnUse">
<stop stop-opacity="0"/>
<stop offset="1" stop-color="#3C45E6"/>
</linearGradient>
</defs>
</svg>
