<svg width="40" height="40" viewBox="0 0 40 40" fill="none" xmlns="http://www.w3.org/2000/svg">
<g clip-path="url(#clip0_800_9765)">
<g clip-path="url(#clip1_800_9765)">
<path d="M22.1702 19.9987C22.1702 21.1972 21.1985 22.1688 20.0001 22.1688C18.8017 22.1688 17.8301 21.1972 17.8301 19.9987C17.8301 18.8002 18.8017 17.8285 20.0001 17.8285C21.1985 17.8285 22.1702 18.8002 22.1702 19.9987Z" fill="white"/>
<path d="M23.6649 13.4418H16.3348C14.7393 13.4418 13.4414 14.7397 13.4414 16.3352V23.6654C13.4414 25.2609 14.7393 26.5588 16.3348 26.5588H23.6649C25.2605 26.5588 26.5585 25.2609 26.5585 23.6654V16.3352C26.5585 14.7397 25.2605 13.4418 23.6649 13.4418ZM19.9999 23.6172C18.0055 23.6172 16.3831 21.9946 16.3831 20.0003C16.3831 18.0059 18.0055 16.3835 19.9999 16.3835C21.9942 16.3835 23.6167 18.0059 23.6167 20.0003C23.6167 21.9946 21.9942 23.6172 19.9999 23.6172ZM24.1472 16.5764C23.7477 16.5764 23.4238 16.2525 23.4238 15.853C23.4238 15.4535 23.7477 15.1297 24.1472 15.1297C24.5468 15.1297 24.8706 15.4535 24.8706 15.853C24.8706 16.2525 24.5468 16.5764 24.1472 16.5764Z" fill="white"/>
<path d="M25.8349 7.65455H14.1646C10.5749 7.65455 7.6543 10.5751 7.6543 14.1648V25.8352C7.6543 29.4249 10.5749 32.3455 14.1646 32.3455H25.8349C29.4246 32.3455 32.3452 29.4249 32.3452 25.8352V14.1648C32.3452 10.5751 29.4246 7.65455 25.8349 7.65455ZM28.005 23.6651C28.005 26.0582 26.0579 28.0052 23.6649 28.0052H16.3347C13.9416 28.0052 11.9945 26.0582 11.9945 23.6651V16.3349C11.9945 13.9418 13.9416 11.9948 16.3347 11.9948H23.6649C26.0579 11.9948 28.005 13.9418 28.005 16.3349V23.6651Z" fill="white"/>
</g>
</g>
<defs>
<clipPath id="clip0_800_9765">
<rect width="38.8" height="40" fill="white" transform="translate(0.599609)"/>
</clipPath>
<clipPath id="clip1_800_9765">
<rect width="38.8" height="40" fill="white" transform="translate(0.599609)"/>
</clipPath>
</defs>
</svg>
