<svg width="40" height="40" viewBox="0 0 40 40" fill="none" xmlns="http://www.w3.org/2000/svg">
<g clip-path="url(#clip0_800_9772)">
<g clip-path="url(#clip1_800_9772)">
<path d="M20.6876 19.6189L25.6956 26.7823H23.6403L19.5536 20.9369L18.9536 20.0785L14.1797 13.2499H16.2351L20.0875 18.7608L20.6876 19.6189Z" fill="white"/>
<path d="M28.6662 8.87291H11.221C9.89304 8.87291 8.81641 9.94954 8.81641 11.2775V28.7227C8.81641 30.0507 9.89304 31.1274 11.221 31.1274H28.6662C29.9942 31.1274 31.0709 30.0507 31.0709 28.7227V11.2775C31.0709 9.94954 29.9942 8.87291 28.6662 8.87291ZM23.011 27.7451L18.8755 21.7265L13.6979 27.7451H12.3597L18.2813 20.862L12.3597 12.2437H16.8763L20.7923 17.943L25.6952 12.2437H27.0333L21.3866 18.8076L27.5275 27.7451H23.011Z" fill="white"/>
</g>
</g>
<defs>
<clipPath id="clip0_800_9772">
<rect width="38.8" height="40" fill="white" transform="translate(0.400391)"/>
</clipPath>
<clipPath id="clip1_800_9772">
<rect width="38.8" height="40" fill="white" transform="translate(0.400391)"/>
</clipPath>
</defs>
</svg>
