<svg width="24" height="23" viewBox="0 0 24 23" fill="none" xmlns="http://www.w3.org/2000/svg">
<path d="M16.3035 22.0476L13.5275 20.6612C12.1668 21.5082 10.6034 21.9526 8.99424 21.9526C4.28534 21.9526 0.464844 18.1751 0.464844 13.5117C0.464844 8.84823 4.28534 5.07067 8.99424 5.07067C13.7031 5.07067 17.5236 8.84823 17.5236 13.5117C17.5236 15.2514 16.9889 16.9301 15.9804 18.3516L17.2793 21.1056L16.3035 22.0476ZM16.3035 22.0476C16.9051 22.3469 17.5716 21.7242 17.2793 21.1056L16.3035 22.0476ZM20.5914 14.5655C20.5 14.383 20.5159 14.1568 20.6511 13.9854L20.4415 14.6382M20.5914 14.5655L20.4407 14.6366L20.4415 14.6382M20.4415 14.6382C20.3231 14.4002 20.3441 14.1055 20.5203 13.8821C21.4966 12.6476 22.0204 11.1328 22.0204 9.566C22.0204 5.69697 18.8501 2.55742 14.9354 2.55742C13.9598 2.55742 13.1885 2.66874 12.496 2.94653C11.8043 3.224 11.1793 3.67233 10.5041 4.3642C10.3457 4.52713 10.1553 4.59663 9.96804 4.58807C9.78494 4.5797 9.61661 4.4975 9.49151 4.3784C9.36644 4.25933 9.27628 4.0954 9.26064 3.91317C9.24461 3.7265 9.30821 3.53453 9.46668 3.37157C10.2684 2.54996 11.0558 1.98549 11.9376 1.62818C12.8188 1.27109 13.7839 1.125 14.9354 1.125C19.6443 1.125 23.4648 4.90257 23.4648 9.566C23.4648 11.3058 22.9302 12.9844 21.9217 14.406L23.2206 17.1599C23.5129 17.7785 22.8461 18.4014 22.2446 18.1016L19.4658 16.7141C19.3738 16.7664 19.249 16.8326 19.1321 16.8927C18.977 16.9725 18.8188 17.0503 18.7595 17.0736C18.548 17.1566 18.346 17.142 18.1791 17.0574C18.0158 16.9746 17.8967 16.8305 17.8326 16.6706C17.7685 16.5107 17.7551 16.3244 17.8171 16.1524C17.8805 15.9764 18.0183 15.8284 18.2299 15.7454L18.2349 15.7435L18.24 15.7418C18.5103 15.6554 18.7782 15.4652 18.9399 15.3502C18.9641 15.3331 18.9859 15.3176 19.005 15.3044C19.2149 15.1591 19.4973 15.1289 19.7428 15.2514L21.0348 15.8967L20.4415 14.6382ZM13.0638 19.25L13.0635 19.2503C11.8689 20.0808 10.4547 20.5199 8.99424 20.5199C5.07954 20.5199 1.90928 17.3807 1.90928 13.5117C1.90928 9.64263 5.07954 6.50337 8.99424 6.50337C12.9089 6.50337 16.0792 9.64263 16.0792 13.5117C16.0792 15.0788 15.5558 16.5931 14.5792 17.8276C14.403 18.051 14.382 18.3459 14.5002 18.5842L15.0938 19.8424L13.8016 19.1974C13.5562 19.0749 13.2738 19.1047 13.0638 19.25ZM14.1754 13.5117C14.1754 13.2713 14.1682 13.0713 14.1389 12.9099C14.1093 12.7469 14.0542 12.605 13.9443 12.4975C13.8348 12.3904 13.6912 12.3375 13.5271 12.3092C13.3642 12.2812 13.1624 12.2745 12.9196 12.2745C12.6773 12.2745 12.4757 12.2813 12.3128 12.3095C12.1487 12.3378 12.0053 12.3909 11.8957 12.498C11.7858 12.6054 11.7304 12.7473 11.7007 12.9103C11.6712 13.0717 11.6639 13.2715 11.6639 13.5117C11.6639 13.7514 11.6713 13.9511 11.7008 14.1124C11.7307 14.2754 11.7862 14.4172 11.8961 14.5247C12.0056 14.6318 12.149 14.6851 12.3131 14.7136C12.476 14.7419 12.6775 14.7489 12.9196 14.7489C13.162 14.7489 13.3637 14.7421 13.5266 14.7139C13.6906 14.6855 13.8341 14.6325 13.9437 14.5255C14.0536 14.418 14.1089 14.2761 14.1386 14.1131C14.1681 13.9517 14.1754 13.7518 14.1754 13.5117ZM10.25 13.5117C10.25 13.2713 10.2427 13.0713 10.2135 12.9099C10.1839 12.7469 10.1288 12.605 10.0189 12.4975C9.90938 12.3904 9.76581 12.3375 9.60174 12.3092C9.43884 12.2812 9.23698 12.2745 8.99424 12.2745C8.75191 12.2745 8.55028 12.2813 8.38741 12.3095C8.22334 12.3378 8.07988 12.3909 7.97031 12.498C7.86038 12.6054 7.80501 12.7473 7.77528 12.9103C7.74584 13.0717 7.73848 13.2715 7.73848 13.5117C7.73848 13.7514 7.74591 13.9511 7.77544 14.1124C7.80531 14.2754 7.86078 14.4172 7.97071 14.5247C8.08021 14.6318 8.22364 14.6851 8.38771 14.7136C8.55058 14.7419 8.75211 14.7489 8.99424 14.7489C9.23661 14.7489 9.43828 14.7421 9.60114 14.7139C9.76521 14.6855 9.90871 14.6325 10.0182 14.5255C10.1282 14.418 10.1835 14.2761 10.2132 14.1131C10.2426 13.9517 10.25 13.7518 10.25 13.5117ZM6.32458 13.5117C6.32458 13.2716 6.31728 13.0718 6.28791 12.9105C6.25824 12.7475 6.20301 12.6056 6.09308 12.4981C5.98358 12.391 5.84011 12.3379 5.67601 12.3095C5.51311 12.2813 5.31134 12.2745 5.06881 12.2745C4.82608 12.2745 4.62421 12.2812 4.46131 12.3092C4.29721 12.3375 4.15368 12.3904 4.04414 12.4975C3.93421 12.605 3.87911 12.7469 3.84954 12.9099C3.82028 13.0713 3.81304 13.2713 3.81304 13.5117C3.81304 13.7516 3.82038 13.9514 3.84978 14.1127C3.87948 14.2757 3.93474 14.4176 4.04464 14.5251C4.15414 14.6322 4.29761 14.6853 4.46171 14.7138C4.62461 14.742 4.82634 14.7489 5.06881 14.7489C5.31091 14.7489 5.51248 14.7419 5.67534 14.7136C5.83941 14.6851 5.98281 14.6318 6.09234 14.5247C6.20228 14.4172 6.25774 14.2754 6.28761 14.1124C6.31714 13.9511 6.32458 13.7514 6.32458 13.5117Z" fill="#FF6301"/>
<path d="M16.3035 22.0476L13.5275 20.6612C12.1668 21.5082 10.6034 21.9526 8.99424 21.9526C4.28534 21.9526 0.464844 18.1751 0.464844 13.5117C0.464844 8.84823 4.28534 5.07067 8.99424 5.07067C13.7031 5.07067 17.5236 8.84823 17.5236 13.5117C17.5236 15.2514 16.9889 16.9301 15.9804 18.3516L17.2793 21.1056M16.3035 22.0476L17.2793 21.1056M16.3035 22.0476C16.9051 22.3469 17.5716 21.7242 17.2793 21.1056M20.5914 14.5655C20.5 14.383 20.5159 14.1568 20.6511 13.9854L20.4415 14.6382M20.5914 14.5655L20.4407 14.6366L20.4415 14.6382M20.5914 14.5655L21.2759 16.0171M20.4415 14.6382C20.3231 14.4002 20.3441 14.1055 20.5203 13.8821C21.4966 12.6476 22.0204 11.1328 22.0204 9.566C22.0204 5.69697 18.8501 2.55742 14.9354 2.55742C13.9598 2.55742 13.1885 2.66874 12.496 2.94653C11.8043 3.224 11.1793 3.67233 10.5041 4.3642C10.3457 4.52713 10.1553 4.59663 9.96804 4.58807C9.78494 4.5797 9.61661 4.4975 9.49151 4.3784C9.36644 4.25933 9.27628 4.0954 9.26064 3.91317C9.24461 3.7265 9.30821 3.53453 9.46668 3.37157C10.2684 2.54996 11.0558 1.98549 11.9376 1.62818C12.8188 1.27109 13.7839 1.125 14.9354 1.125C19.6443 1.125 23.4648 4.90257 23.4648 9.566C23.4648 11.3058 22.9302 12.9844 21.9217 14.406L23.2206 17.1599C23.5129 17.7785 22.8461 18.4014 22.2446 18.1016L19.4658 16.7141C19.3738 16.7664 19.249 16.8326 19.1321 16.8927C18.977 16.9725 18.8188 17.0503 18.7595 17.0736C18.548 17.1566 18.346 17.142 18.1791 17.0574C18.0158 16.9746 17.8967 16.8305 17.8326 16.6706C17.7685 16.5107 17.7551 16.3244 17.8171 16.1524C17.8805 15.9764 18.0183 15.8284 18.2299 15.7454L18.2349 15.7435L18.24 15.7418C18.5103 15.6554 18.7782 15.4652 18.9399 15.3502C18.9641 15.3331 18.9859 15.3176 19.005 15.3044C19.2149 15.1591 19.4973 15.1289 19.7428 15.2514L21.0348 15.8967L20.4415 14.6382ZM13.0638 19.25L13.0635 19.2503C11.8689 20.0808 10.4547 20.5199 8.99424 20.5199C5.07954 20.5199 1.90928 17.3807 1.90928 13.5117C1.90928 9.64263 5.07954 6.50337 8.99424 6.50337C12.9089 6.50337 16.0792 9.64263 16.0792 13.5117C16.0792 15.0788 15.5558 16.5931 14.5792 17.8276C14.403 18.051 14.382 18.3459 14.5002 18.5842L15.0938 19.8424L13.8016 19.1974C13.5562 19.0749 13.2738 19.1047 13.0638 19.25ZM14.1754 13.5117C14.1754 13.2713 14.1682 13.0713 14.1389 12.9099C14.1093 12.7469 14.0542 12.605 13.9443 12.4975C13.8348 12.3904 13.6912 12.3375 13.5271 12.3092C13.3642 12.2812 13.1624 12.2745 12.9196 12.2745C12.6773 12.2745 12.4757 12.2813 12.3128 12.3095C12.1487 12.3378 12.0053 12.3909 11.8957 12.498C11.7858 12.6054 11.7304 12.7473 11.7007 12.9103C11.6712 13.0717 11.6639 13.2715 11.6639 13.5117C11.6639 13.7514 11.6713 13.9511 11.7008 14.1124C11.7307 14.2754 11.7862 14.4172 11.8961 14.5247C12.0056 14.6318 12.149 14.6851 12.3131 14.7136C12.476 14.7419 12.6775 14.7489 12.9196 14.7489C13.162 14.7489 13.3637 14.7421 13.5266 14.7139C13.6906 14.6855 13.8341 14.6325 13.9437 14.5255C14.0536 14.418 14.1089 14.2761 14.1386 14.1131C14.1681 13.9517 14.1754 13.7518 14.1754 13.5117ZM10.25 13.5117C10.25 13.2713 10.2427 13.0713 10.2135 12.9099C10.1839 12.7469 10.1288 12.605 10.0189 12.4975C9.90938 12.3904 9.76581 12.3375 9.60174 12.3092C9.43884 12.2812 9.23698 12.2745 8.99424 12.2745C8.75191 12.2745 8.55028 12.2813 8.38741 12.3095C8.22334 12.3378 8.07988 12.3909 7.97031 12.498C7.86038 12.6054 7.80501 12.7473 7.77528 12.9103C7.74584 13.0717 7.73848 13.2715 7.73848 13.5117C7.73848 13.7514 7.74591 13.9511 7.77544 14.1124C7.80531 14.2754 7.86078 14.4172 7.97071 14.5247C8.08021 14.6318 8.22364 14.6851 8.38771 14.7136C8.55058 14.7419 8.75211 14.7489 8.99424 14.7489C9.23661 14.7489 9.43828 14.7421 9.60114 14.7139C9.76521 14.6855 9.90871 14.6325 10.0182 14.5255C10.1282 14.418 10.1835 14.2761 10.2132 14.1131C10.2426 13.9517 10.25 13.7518 10.25 13.5117ZM6.32458 13.5117C6.32458 13.2716 6.31728 13.0718 6.28791 12.9105C6.25824 12.7475 6.20301 12.6056 6.09308 12.4981C5.98358 12.391 5.84011 12.3379 5.67601 12.3095C5.51311 12.2813 5.31134 12.2745 5.06881 12.2745C4.82608 12.2745 4.62421 12.2812 4.46131 12.3092C4.29721 12.3375 4.15368 12.3904 4.04414 12.4975C3.93421 12.605 3.87911 12.7469 3.84954 12.9099C3.82028 13.0713 3.81304 13.2713 3.81304 13.5117C3.81304 13.7516 3.82038 13.9514 3.84978 14.1127C3.87948 14.2757 3.93474 14.4176 4.04464 14.5251C4.15414 14.6322 4.29761 14.6853 4.46171 14.7138C4.62461 14.742 4.82634 14.7489 5.06881 14.7489C5.31091 14.7489 5.51248 14.7419 5.67534 14.7136C5.83941 14.6851 5.98281 14.6318 6.09234 14.5247C6.20228 14.4172 6.25774 14.2754 6.28761 14.1124C6.31714 13.9511 6.32458 13.7514 6.32458 13.5117Z" stroke="#FF6301" stroke-width="0.333333"/>
</svg>
