<svg width="90" height="75" viewBox="0 0 90 75" fill="none" xmlns="http://www.w3.org/2000/svg">
<g clip-path="url(#clip0_123_1781)">
<path d="M50.4955 16.1842C50.4955 15.7095 50.212 15.2806 49.7752 15.0947C49.3384 14.9087 48.8328 15.0016 48.4905 15.3306L44.2796 19.3796C38.0099 25.4082 32.7121 32.3718 28.5749 40.0227C28.4775 40.1947 28.4219 40.3935 28.4219 40.6053C28.4219 41.2593 28.9521 41.7895 29.6061 41.7895H39.814V58.8158C39.814 59.2847 40.0907 59.7095 40.5196 59.899C40.9486 60.0885 41.449 60.007 41.7956 59.6912L43.6798 57.9749C50.2751 51.967 55.8722 44.9477 60.2611 37.1803L61.4265 35.1177C61.6337 34.7511 61.6306 34.302 61.4183 33.9383C61.2061 33.5746 60.8166 33.351 60.3955 33.351H50.4955V16.1842Z" fill="#AC82E3"/>
</g>
<defs>
<clipPath id="clip0_123_1781">
<rect width="90" height="75" fill="white"/>
</clipPath>
</defs>
</svg>
