<svg width="90" height="75" viewBox="0 0 90 75" fill="none" xmlns="http://www.w3.org/2000/svg">
<path fill-rule="evenodd" clip-rule="evenodd" d="M30.5156 47.9834L32.7593 45.7397C33.3281 45.8147 33.8598 46.1326 34.189 46.6532L31.3056 49.5367C31.1251 49.2872 30.9536 49.0298 30.7917 48.7643C30.6414 48.518 30.5508 48.2522 30.5156 47.9834ZM34.1397 52.3594C36.5442 54.1166 39.5255 55.1249 42.4717 55.4223V60C42.4717 61.1046 43.3671 62 44.4717 62C45.5762 62 46.4717 61.1046 46.4717 60V55.3826C51.5109 54.7449 56.4429 51.7644 57.0707 45.7367C57.2608 43.912 57.0246 42.2881 56.3746 40.8635C55.7268 39.444 54.7255 38.348 53.5759 37.4862C52.7033 36.832 51.712 36.2909 50.6711 35.828L47.5942 38.9049C49.0161 39.4173 50.2314 39.978 51.1766 40.6866C51.9123 41.2382 52.4226 41.8383 52.7356 42.5241C53.0463 43.205 53.22 44.0959 53.0923 45.3223C52.7464 48.6425 50.1578 50.7524 46.4717 51.3462V40.0274L42.4717 44.0274V51.4009C40.4821 51.1474 38.5789 50.4849 37.0193 49.4798L34.1397 52.3594ZM42.4717 38.3706V37.3189C42.1441 37.2202 41.8145 37.119 41.4848 37.0142L46.4717 32.0274V34.3306C46.4819 34.3337 46.4922 34.3368 46.5024 34.3398L42.4717 38.3706ZM49.6268 23.2155C49.2089 22.9937 48.7523 22.7911 48.2608 22.6125C47.6887 22.4046 47.0876 22.2362 46.4717 22.1102V26.3705L42.4717 30.3705V21.9102C40.6829 22.1076 39.1591 22.7009 38.1035 23.6225C37.0636 24.5306 36.3352 25.8753 36.3352 27.9186C36.3352 28.8329 36.5696 29.4927 36.9317 30.0243C37.3114 30.5817 37.9033 31.1008 38.7576 31.5953C39.2682 31.8909 39.8307 32.156 40.4389 32.4033L37.4221 35.4202C37.1937 35.3036 36.9706 35.1827 36.7537 35.0572C35.5637 34.3684 34.4453 33.4791 33.6259 32.2763C32.7889 31.0476 32.3352 29.5952 32.3352 27.9186C32.3352 24.7801 33.5187 22.3156 35.4726 20.6095C37.3717 18.9513 39.8492 18.1348 42.3024 17.907C42.3587 17.9018 42.4152 17.8968 42.4717 17.8922V15C42.4717 13.8954 43.3671 13 44.4717 13C45.5762 13 46.4717 13.8954 46.4717 15V18.0468C47.5592 18.2168 48.6235 18.4884 49.627 18.8531C50.6472 19.2238 51.6401 19.7044 52.5438 20.2985L49.6268 23.2155ZM52.6764 25.8227C53.3202 26.1901 54.1441 26.1837 54.7973 25.7374C55.6649 25.1447 55.9192 23.9897 55.4056 23.0935L52.6764 25.8227Z" fill="#AC82E3"/>
<line x1="22.5" y1="57.1716" x2="64.6716" y2="15" stroke="#AC82E3" stroke-width="4" stroke-linecap="round"/>
</svg>
