<svg width="86" height="77" viewBox="0 0 86 77" fill="none" xmlns="http://www.w3.org/2000/svg">
<path fill-rule="evenodd" clip-rule="evenodd" d="M63.1412 45.6038L63.1466 52.9472C63.0931 53.6468 63.024 54.3455 62.9395 55.043C62.7982 56.2093 61.816 57.1501 60.5825 57.2832C56.7191 57.7 52.7213 57.7 48.858 57.2832C47.6245 57.1501 46.6422 56.2093 46.5009 55.043C46.0394 51.2343 46.0394 47.3867 46.5009 43.578C46.6422 42.4117 47.6245 41.4709 48.858 41.3378C52.7213 40.921 56.7191 40.921 60.5825 41.3378C61.816 41.4709 62.7982 42.4117 62.9395 43.578C63.0212 44.2522 63.0884 44.9276 63.1412 45.6038ZM54.7202 46.2701C52.9806 46.2701 51.5704 47.6313 51.5704 49.3105C51.5704 50.9897 52.9806 52.3509 54.7202 52.3509C56.4598 52.3509 57.8701 50.9897 57.8701 49.3105C57.8701 47.6313 56.4598 46.2701 54.7202 46.2701Z" fill="#AC82E3"/>
<path d="M61.8675 37.2292C62.194 37.775 61.5812 38.3862 60.9323 38.3162C56.8365 37.8743 52.604 37.8743 48.5081 38.3162C45.8426 38.6038 43.6868 40.6298 43.3724 43.2248C42.8825 47.2682 42.8825 51.3528 43.3724 55.3962C43.6868 57.9912 45.8426 60.0172 48.5081 60.3048C52.604 60.7467 56.8365 60.7467 60.9323 60.3048C61.5855 60.2343 62.2033 60.8497 61.8737 61.3986C60.2387 64.1204 57.3238 66.0201 53.9366 66.3641L52.5677 66.5032C45.6152 67.2094 38.6027 67.1628 31.6609 66.3643L30.7538 66.26C27.0115 65.8296 24.0464 63.0073 23.5479 59.4014C22.6221 52.7038 22.6221 45.9172 23.5479 39.2196C24.0464 35.6137 27.0115 32.7914 30.7538 32.361L31.6609 32.2567C38.6027 31.4582 45.6152 31.4116 52.5677 32.1178L53.9366 32.2569C57.3266 32.6012 60.237 34.5037 61.8675 37.2292Z" fill="#AC82E3"/>
<path d="M40.4647 28.7501C41.0505 29.3359 42.0003 29.3359 42.5861 28.7501L52.132 19.2041C52.7178 18.6183 52.7178 17.6686 52.132 17.0828C51.5462 16.497 50.5965 16.497 50.0107 17.0828L41.5254 25.5681L33.0401 17.0828C32.4543 16.497 31.5046 16.497 30.9188 17.0828C30.333 17.6686 30.333 18.6183 30.9188 19.2041L40.4647 28.7501ZM40.0254 9.99976L40.0254 27.6894L43.0254 27.6894L43.0254 9.99976L40.0254 9.99976Z" fill="#AC82E3"/>
</svg>
