<svg width="90" height="90" viewBox="0 0 90 90" fill="none" xmlns="http://www.w3.org/2000/svg">
<path fill-rule="evenodd" clip-rule="evenodd" d="M9.63273 20.8181C9 22.0844 9 23.7363 9 27.04V47.96C9 51.2637 9 52.9156 9.63273 54.1819C10.2135 55.3442 11.1558 56.2865 12.3181 56.8673C13.5844 57.5 15.2363 57.5 18.54 57.5H23V43.9588C23 42.376 23 41.0696 23.0855 40.0048C23.1744 38.8992 23.365 37.8821 23.8436 36.9242C24.618 35.3745 25.8745 34.118 27.4242 33.3436C28.3821 32.865 29.3992 32.6744 30.5048 32.5855C31.5696 32.5 32.876 32.5 34.4588 32.5H67V27.04C67 23.7363 67 22.0844 66.3673 20.8181C65.7865 19.6558 64.8442 18.7135 63.6819 18.1327C62.4156 17.5 60.7637 17.5 57.46 17.5H18.54C15.2363 17.5 13.5844 17.5 12.3181 18.1327C11.1558 18.7135 10.2135 19.6558 9.63273 20.8181Z" fill="#AC82E3"/>
<path fill-rule="evenodd" clip-rule="evenodd" d="M30.8252 36.5727C29.9625 36.642 29.5205 36.7677 29.2121 36.9218C28.4372 37.309 27.809 37.9372 27.4218 38.7121C27.2677 39.0205 27.142 39.4625 27.0727 40.3252C27.0015 41.2108 27 42.3557 27 44.04V64.96C27 66.6443 27.0015 67.7892 27.0727 68.6748C27.142 69.5375 27.2677 69.9795 27.4218 70.2879C27.809 71.0628 28.4372 71.691 29.2121 72.0782C29.5205 72.2323 29.9625 72.358 30.8252 72.4273C31.7108 72.4985 32.8557 72.5 34.54 72.5H73.46C75.1443 72.5 76.2892 72.4985 77.1748 72.4273C78.0375 72.358 78.4795 72.2323 78.7879 72.0782C79.5628 71.691 80.191 71.0628 80.5782 70.2879C80.7323 69.9795 80.858 69.5375 80.9273 68.6748C80.9985 67.7892 81 66.6443 81 64.96V44.04C81 42.3557 80.9985 41.2108 80.9273 40.3252C80.858 39.4625 80.7323 39.0205 80.5782 38.7121C80.191 37.9372 79.5628 37.309 78.7879 36.9218C78.4795 36.7677 78.0375 36.642 77.1748 36.5727C76.2892 36.5015 75.1443 36.5 73.46 36.5H34.54C32.8557 36.5 31.7108 36.5015 30.8252 36.5727ZM52.1016 68.7899C52.5109 69.2085 53.0123 69.4178 53.6058 69.4178C54.2403 69.4178 54.7519 69.2085 55.1408 68.7899C55.5501 68.3714 55.7547 67.8481 55.7547 67.2203V65.5028C56.8561 65.2871 57.8385 64.9283 58.7018 64.4263C59.766 63.8193 60.5949 63.0345 61.1884 62.0718C61.7819 61.109 62.0787 59.9998 62.0787 58.7441C62.0787 57.1326 61.6079 55.8245 60.6665 54.8199C59.7456 53.7944 58.313 53.0619 56.3687 52.6224L52.8691 51.8376C51.9686 51.6283 51.3444 51.3876 50.9965 51.1155C50.669 50.8225 50.5053 50.4667 50.5053 50.0481C50.5053 49.4203 50.7918 48.9075 51.3648 48.5099C51.9583 48.1122 52.7974 47.9134 53.8821 47.9134C54.7826 47.9134 55.5194 47.9867 56.0924 48.1332C56.6859 48.2587 57.218 48.4262 57.6888 48.6354C58.3232 48.9075 58.8655 48.9912 59.3158 48.8866C59.7865 48.761 60.1549 48.5203 60.4209 48.1645C60.7074 47.8088 60.8712 47.4111 60.9121 46.9716C60.9735 46.5112 60.9019 46.0612 60.6972 45.6217C60.513 45.1822 60.1856 44.8369 59.7149 44.5857C59.0395 44.1671 58.2516 43.8427 57.3511 43.6125C56.7956 43.4576 56.2635 43.3465 55.7547 43.2792V41.6975C55.7547 41.0697 55.5501 40.5464 55.1408 40.1279C54.7315 39.7093 54.2198 39.5 53.6058 39.5C53.0123 39.5 52.5109 39.7093 52.1016 40.1279C51.6923 40.5464 51.4876 41.0697 51.4876 41.6975V43.4064C50.3915 43.6154 49.4092 43.9667 48.5406 44.4601C47.4559 45.088 46.6066 45.9042 45.9926 46.9088C45.3991 47.8925 45.1023 49.0122 45.1023 50.2679C45.1023 51.9213 45.5628 53.2712 46.4838 54.3176C47.4252 55.3431 48.8476 56.0757 50.7509 56.5152L54.2198 57.2686C54.8338 57.4151 55.3147 57.5825 55.6626 57.7709C56.0106 57.9383 56.2562 58.1372 56.3994 58.3674C56.5631 58.5767 56.645 58.8383 56.645 59.1522C56.645 59.4871 56.5324 59.801 56.3073 60.094C56.1027 60.3661 55.7445 60.5858 55.2329 60.7533C54.7417 60.9207 54.0663 61.0044 53.2068 61.0044C51.9788 61.0044 50.9453 60.8893 50.1062 60.6591C49.2876 60.4079 48.6736 60.1672 48.2643 59.937C47.6503 59.665 47.108 59.6022 46.6373 59.7487C46.187 59.8742 45.8186 60.1359 45.5321 60.5335C45.2456 60.9312 45.0716 61.3707 45.0102 61.852C44.9693 62.3334 45.0512 62.8043 45.2558 63.2647C45.4809 63.7252 45.8596 64.0809 46.3917 64.3321C47.0261 64.6251 47.8447 64.9181 48.8476 65.2111C49.6187 65.4364 50.4987 65.5937 51.4876 65.6828V67.2203C51.4876 67.8481 51.6923 68.3714 52.1016 68.7899Z" fill="#AC82E3"/>
</svg>
