<svg width="90" height="90" viewBox="0 0 90 90" fill="none" xmlns="http://www.w3.org/2000/svg">
<path d="M45 16C37.651 16 31.6935 21.9092 31.6935 29.1986C31.6935 36.4879 37.651 42.3971 45 42.3971C52.3489 42.3971 58.3064 36.4879 58.3064 29.1986C58.3064 21.9092 52.3489 16 45 16Z" fill="#AC82E3"/>
<path d="M30.8065 49.4364C23.4575 49.4364 17.5 55.3456 17.5 62.635V66.8173C17.5 69.4683 19.437 71.7288 22.0748 72.1559C37.2578 74.6147 52.7422 74.6147 67.9252 72.1559C70.563 71.7288 72.5 69.4683 72.5 66.8173V62.635C72.5 55.3456 66.5425 49.4364 59.1935 49.4364H57.984C57.3294 49.4364 56.6788 49.5391 56.0565 49.7406L52.9853 50.7353C47.7966 52.4159 42.2034 52.4159 37.0147 50.7353L33.9435 49.7406C33.3212 49.5391 32.6706 49.4364 32.016 49.4364H30.8065Z" fill="#AC82E3"/>
</svg>
