<svg width="90" height="90" viewBox="0 0 90 90" fill="none" xmlns="http://www.w3.org/2000/svg">
<path d="M36.0854 45C36.0854 39.9902 40.0766 35.929 45 35.929C49.9234 35.929 53.9146 39.9902 53.9146 45C53.9146 50.0098 49.9234 54.071 45 54.071C40.0766 54.071 36.0854 50.0098 36.0854 45Z" fill="#AC82E3"/>
<path fill-rule="evenodd" clip-rule="evenodd" d="M43.5208 16.6385C44.3294 15.7872 45.6706 15.7872 46.4792 16.6385L53.535 24.0669H63.5149C64.6511 24.0669 65.5721 25.0042 65.5721 26.1603V36.3153L72.8725 43.4948C73.7092 44.3177 73.7092 45.6823 72.8725 46.5052L65.5721 53.6847V63.8397C65.5721 64.9958 64.6511 65.933 63.5149 65.933H53.535L46.4792 73.3615C45.6706 74.2128 44.3294 74.2128 43.5208 73.3615L36.465 65.933H26.4851C25.3489 65.933 24.4279 64.9958 24.4279 63.8397V53.6847L17.1275 46.5052C16.2908 45.6823 16.2908 44.3177 17.1275 43.4948L24.4279 36.3153V26.1603C24.4279 25.0042 25.3489 24.0669 26.4851 24.0669H36.465L43.5208 16.6385ZM45 31.7424C37.8042 31.7424 31.971 37.678 31.971 45C31.971 52.322 37.8042 58.2576 45 58.2576C52.1957 58.2576 58.029 52.322 58.029 45C58.029 37.678 52.1957 31.7424 45 31.7424Z" fill="#AC82E3"/>
</svg>
