<svg width="62" height="42" viewBox="0 0 62 42" fill="none" xmlns="http://www.w3.org/2000/svg">
<path d="M0 40.37V1.42304C0 0.882549 0.270463 0.612305 0.81139 0.612305H12.1788C12.7197 0.612305 12.9902 0.882549 12.9902 1.42304V5.07133C12.9902 5.61182 12.7197 5.88207 12.1788 5.88207H6.08543C5.81496 5.88207 5.67973 6.01719 5.67973 6.28743V16.2706C5.67973 16.5408 5.81496 16.6759 6.08543 16.6759H9.94351C10.4844 16.6759 10.7549 16.9462 10.7549 17.4867V21.5403C10.7549 22.0808 10.4844 22.3511 9.94351 22.3511H6.08543C5.81496 22.3511 5.67973 22.4862 5.67973 22.7564V40.362C5.67973 40.9025 5.40927 41.1728 4.86834 41.1728H0.81139C0.270463 41.1728 0 40.9025 0 40.362V40.37Z" fill="#AAAFC5"/>
<path d="M13.9848 40.934C13.8655 40.775 13.8257 40.5525 13.8814 40.2822L18.2645 20.6418C18.3202 20.4828 18.3202 20.3159 18.2645 20.157L13.8894 1.50217C13.8655 1.44653 13.8496 1.36705 13.8496 1.25577C13.8496 0.826558 14.0962 0.604004 14.5815 0.604004H18.9645C19.4498 0.604004 19.7362 0.850403 19.8157 1.33525L22.0908 13.997C22.1147 14.0765 22.1544 14.148 22.2101 14.2036C22.2658 14.2593 22.3294 14.2831 22.4169 14.2831C22.576 14.2831 22.6874 14.1877 22.7431 13.997L25.0182 1.33525C25.0977 0.850403 25.3841 0.604004 25.8693 0.604004H30.2922C30.5627 0.604004 30.7615 0.683488 30.8808 0.850403C31.0002 1.00937 31.032 1.23192 30.9843 1.50217L26.5614 20.1649C26.5375 20.3239 26.5375 20.4908 26.5614 20.6498L30.9843 40.2902C31.0081 40.3458 31.024 40.4253 31.024 40.5366C31.024 40.9658 30.7774 41.1883 30.2922 41.1883H25.9091C25.392 41.1883 25.0977 40.9419 25.0182 40.4571L22.7431 27.1118C22.7192 26.921 22.6078 26.8256 22.4169 26.8256C22.226 26.8256 22.1147 26.921 22.0908 27.1118L19.8555 40.4571C19.7759 40.9419 19.4737 41.1883 18.9645 41.1883H14.5815C14.311 41.1883 14.1121 41.1088 13.9928 40.9419L13.9848 40.934Z" fill="#AAAFC5"/>
<path d="M45.6448 13.1863C45.9789 13.1863 46.2493 12.9161 46.2493 12.5823V7.59068C46.2493 5.18233 45.5016 3.26678 44.014 1.82812C43.3936 1.232 42.6379 0.778939 41.7628 0.468953C40.8798 0.158967 39.9809 0 39.0661 0C37.1172 0 35.4626 0.612025 34.1103 1.82812C32.6228 3.31447 31.875 5.23797 31.875 7.59068V34.2018C31.875 36.5545 32.6228 38.478 34.1103 39.9643C35.4626 41.1804 37.1172 41.7925 39.0661 41.7925C39.9889 41.7925 40.8878 41.6335 41.7628 41.3235C42.6379 41.0135 43.3936 40.5605 44.014 39.9643C45.5016 38.5336 46.2493 36.6101 46.2493 34.2018V28.0736C46.2493 27.7398 45.9789 27.4695 45.6448 27.4695H41.1662C40.8321 27.4695 40.5616 27.7398 40.5616 28.0736V33.7964C40.5616 35.6087 40.0605 36.5148 39.0582 36.5148C38.4616 36.5148 38.0638 36.2684 37.857 35.7835C37.6502 35.2987 37.5547 34.631 37.5547 33.7964V7.99605C37.5547 7.16147 37.6581 6.49381 37.857 6.00896C38.0559 5.52411 38.4616 5.27771 39.0582 5.27771C40.0605 5.27771 40.5616 6.18382 40.5616 7.99605V12.5823C40.5616 12.9161 40.8321 13.1863 41.1662 13.1863H45.6448Z" fill="#AAAFC5"/>
<path d="M54.0296 15.9209H49.9647C49.5166 15.9209 49.1533 16.2839 49.1533 16.7316V40.3701C49.1533 40.8178 49.5166 41.1808 49.9647 41.1808H54.0296C54.4777 41.1808 54.841 40.8178 54.841 40.3701V16.7316C54.841 16.2839 54.4777 15.9209 54.0296 15.9209Z" fill="#AAAFC5"/>
<path d="M61.1888 0.612305H57.1239C56.6758 0.612305 56.3125 0.975282 56.3125 1.42304V15.2373C56.3125 15.685 56.6758 16.048 57.1239 16.048H61.1888C61.6369 16.048 62.0002 15.685 62.0002 15.2373V1.42304C62.0002 0.975282 61.6369 0.612305 61.1888 0.612305Z" fill="#FFA114"/>
</svg>
