<svg width="27" height="21" viewBox="0 0 27 21" fill="none" xmlns="http://www.w3.org/2000/svg">
<path d="M22.2403 2.48035C20.6327 1.74279 18.9088 1.19931 17.1064 0.888009C17.0736 0.882038 17.0407 0.89709 17.0239 0.927027C16.8022 1.32141 16.5566 1.8358 16.3846 2.24011C14.446 1.94991 12.5173 1.94991 10.6185 2.24011C10.4464 1.8268 10.192 1.32141 9.9692 0.927027C9.95238 0.898015 9.91951 0.883047 9.88671 0.888009C8.08532 1.1983 6.36145 1.74178 4.75288 2.48035C4.73892 2.48641 4.72698 2.49642 4.71907 2.50937C1.44926 7.39446 0.553487 12.1595 0.992895 16.8654C0.994872 16.8883 1.00782 16.9104 1.02571 16.9244C3.18303 18.5088 5.27281 19.4705 7.3237 20.1081C7.35658 20.1181 7.39131 20.1061 7.41225 20.0791C7.89737 19.4165 8.32985 18.7179 8.70061 17.9833C8.72247 17.9403 8.70162 17.8892 8.65688 17.8722C7.97087 17.612 7.31773 17.2947 6.68941 16.9345C6.63971 16.9055 6.63567 16.8343 6.6815 16.8003C6.81369 16.7012 6.94597 16.5981 7.07219 16.494C7.09506 16.475 7.12685 16.4711 7.15376 16.483C11.2814 18.3677 15.7503 18.3677 19.8293 16.483C19.8561 16.4701 19.888 16.4741 19.9118 16.493C20.0381 16.5971 20.1704 16.7012 20.3036 16.8003C20.3492 16.8343 20.3463 16.9054 20.2966 16.9344C19.6682 17.3017 19.0151 17.6119 18.3282 17.8712C18.2834 17.8882 18.2635 17.9402 18.2855 17.9833C18.6642 18.7169 19.0967 19.4154 19.5728 20.078C19.5927 20.1061 19.6285 20.1181 19.6614 20.108C21.7222 19.4705 23.812 18.5087 25.9693 16.9243C25.9882 16.9104 26.0001 16.8893 26.0021 16.8663C26.528 11.4258 25.1213 6.69987 22.273 2.51037C22.2661 2.49642 22.2541 2.48641 22.2403 2.48035ZM9.31708 13.9999C8.07438 13.9999 7.05041 12.859 7.05041 11.4578C7.05041 10.0567 8.05445 8.91575 9.31708 8.91575C10.5896 8.91575 11.6037 10.0667 11.5838 11.4578C11.5838 12.859 10.5796 13.9999 9.31708 13.9999ZM17.6979 13.9999C16.4552 13.9999 15.4312 12.859 15.4312 11.4578C15.4312 10.0567 16.4353 8.91575 17.6979 8.91575C18.9705 8.91575 19.9845 10.0667 19.9646 11.4578C19.9646 12.859 18.9705 13.9999 17.6979 13.9999Z" fill="#AAAFC5"/>
</svg>
