<svg width="20" height="22" viewBox="0 0 20 22" fill="none" xmlns="http://www.w3.org/2000/svg">
<path fill-rule="evenodd" clip-rule="evenodd" d="M10 21.0654C15.5228 21.0654 20 16.5883 20 11.0654C20 5.54258 15.5228 1.06543 10 1.06543C4.47715 1.06543 0 5.54258 0 11.0654C0 16.5883 4.47715 21.0654 10 21.0654ZM15.6187 8.68415C15.9604 8.34244 15.9604 7.78842 15.6187 7.44671C15.277 7.105 14.723 7.105 14.3813 7.44671L8.49999 13.328L5.61872 10.4467C5.27701 10.105 4.72299 10.105 4.38128 10.4467C4.03957 10.7884 4.03957 11.3424 4.38128 11.6841L7.88127 15.1841L8.49999 15.8029L9.11871 15.1842L15.6187 8.68415Z" fill="#FF6301"/>
</svg>
