<svg width="234" height="64" viewBox="0 0 234 64" fill="none" xmlns="http://www.w3.org/2000/svg">
<g filter="url(#filter0_d_1108_10078)">
<path d="M0 6C0 2.68629 2.68629 0 6 0H208.584C209.515 0 210.434 0.216871 211.267 0.633437L226.683 8.34164C228.716 9.35799 230 11.4356 230 13.7082V54C230 57.3137 227.314 60 224 60H21.4164C20.4849 60 19.5663 59.7831 18.7331 59.3666L3.31672 51.6584C1.28402 50.642 0 48.5644 0 46.2918V6Z" fill="url(#paint0_linear_1108_10078)"/>
<path d="M0.5 6C0.5 2.96243 2.96243 0.5 6 0.5H208.584C209.437 0.5 210.28 0.698798 211.043 1.08065L226.46 8.78885C228.323 9.72051 229.5 11.625 229.5 13.7082V54C229.5 57.0376 227.038 59.5 224 59.5H21.4164C20.5626 59.5 19.7204 59.3012 18.9567 58.9193L3.54033 51.2111C1.67702 50.2795 0.5 48.375 0.5 46.2918V6Z" stroke="#595776"/>
</g>
<defs>
<filter id="filter0_d_1108_10078" x="0" y="0" width="234" height="64" filterUnits="userSpaceOnUse" color-interpolation-filters="sRGB">
<feFlood flood-opacity="0" result="BackgroundImageFix"/>
<feColorMatrix in="SourceAlpha" type="matrix" values="0 0 0 0 0 0 0 0 0 0 0 0 0 0 0 0 0 0 127 0" result="hardAlpha"/>
<feOffset dx="4" dy="4"/>
<feComposite in2="hardAlpha" operator="out"/>
<feColorMatrix type="matrix" values="0 0 0 0 0.2447 0 0 0 0 0.238288 0 0 0 0 0.369727 0 0 0 1 0"/>
<feBlend mode="normal" in2="BackgroundImageFix" result="effect1_dropShadow_1108_10078"/>
<feBlend mode="normal" in="SourceGraphic" in2="effect1_dropShadow_1108_10078" result="shape"/>
</filter>
<linearGradient id="paint0_linear_1108_10078" x1="-11" y1="-15" x2="230" y2="79" gradientUnits="userSpaceOnUse">
<stop stop-color="#2E2D3E"/>
<stop offset="1" stop-color="#4B4A69"/>
</linearGradient>
</defs>
</svg>
