<svg  viewBox="0 0 537 486" fill="none" xmlns="http://www.w3.org/2000/svg">
<g filter="url(#filter0_d_94_2653)">
<path fill-rule="evenodd" clip-rule="evenodd" d="M332.101 18.8409C335.194 18.8409 338.176 17.6835 340.458 15.5963C345.627 10.8703 351.094 2.61504 358.098 2.62728L522.026 2.91394C530.3 2.92841 537 9.63985 537 17.9139V470.477C537 478.772 530.268 485.491 521.974 485.477L14.9738 484.59C6.69975 484.576 0 477.864 0 469.59V17.0273C0 8.73283 6.73173 2.01286 15.0262 2.02737L178.714 2.3136C185.798 2.32599 191.314 10.8164 196.542 15.5963C198.825 17.6835 201.806 18.8409 204.899 18.8409L332.101 18.8409Z" fill="#E9ECF4"/>
</g>
<defs>
<filter id="filter0_d_94_2653" x="0" y="0.0273438" width="537" height="485.45" filterUnits="userSpaceOnUse" color-interpolation-filters="sRGB">
<feFlood flood-opacity="0" result="BackgroundImageFix"/>
<feColorMatrix in="SourceAlpha" type="matrix" values="0 0 0 0 0 0 0 0 0 0 0 0 0 0 0 0 0 0 127 0" result="hardAlpha"/>
<feOffset dy="-2"/>
<feComposite in2="hardAlpha" operator="out"/>
<feColorMatrix type="matrix" values="0 0 0 0 1 0 0 0 0 0.388235 0 0 0 0 0.00392157 0 0 0 1 0"/>
<feBlend mode="normal" in2="BackgroundImageFix" result="effect1_dropShadow_94_2653"/>
<feBlend mode="normal" in="SourceGraphic" in2="effect1_dropShadow_94_2653" result="shape"/>
</filter>
</defs>
</svg>
