
<svg width="41" height="41" viewBox="0 0 41 41" fill="none" xmlns="http://www.w3.org/2000/svg">
<path d="M18.9289 0.428146C18.9289 0.175916 18.7128 -0.0231519 18.4618 0.00218891C8.09305 1.04921 0 9.80381 0 20.4486C0 31.7988 9.20115 41 20.5513 41C26.2554 41 31.417 38.6752 35.1394 34.9244C35.3172 34.7452 35.2976 34.4525 35.1012 34.2938L19.5315 21.7105C19.1504 21.4025 18.9289 20.9387 18.9289 20.4486V0.428146Z" fill="#FF6301"/>
<path d="M37.1427 31.7715C37.3389 31.9301 37.6289 31.8881 37.7669 31.6769C39.5172 28.9984 40.6597 25.886 40.9978 22.5372C41.0232 22.2862 40.824 22.0711 40.5718 22.0711H26.3638C25.9559 22.0711 25.7746 22.5839 26.0918 22.8403L37.1427 31.7715Z" fill="#FF6301"/>
<path d="M40.5718 18.8262C40.8241 18.8262 41.0231 18.6102 40.9978 18.3592C40.0202 8.67743 32.3225 0.979774 22.6408 0.00217771C22.3898 -0.0231618 22.1738 0.175916 22.1738 0.428146V18.1772C22.1738 18.5356 22.4644 18.8262 22.8228 18.8262H40.5718Z" fill="#FF6301"/>
</svg>
