<svg width="22" height="17" viewBox="0 0 22 17" fill="none" xmlns="http://www.w3.org/2000/svg">
<path d="M18.2739 1.82631C16.936 1.21242 15.5013 0.760131 14.0012 0.501087C13.9739 0.496087 13.9466 0.508581 13.9326 0.53357C13.748 0.861747 13.5437 1.28988 13.4005 1.62639C11.7871 1.38484 10.1819 1.38484 8.60159 1.62639C8.45843 1.2824 8.24663 0.861747 8.06128 0.53357C8.04721 0.509415 8.01992 0.496921 7.9926 0.501087C6.49335 0.759303 5.05864 1.21159 3.71989 1.82631C3.7083 1.83131 3.69837 1.83965 3.69178 1.85047C0.970431 5.9161 0.22494 9.8818 0.590653 13.7983C0.592308 13.8175 0.603064 13.8358 0.617957 13.8475C2.41342 15.166 4.15264 15.9665 5.85956 16.4971C5.88688 16.5054 5.91582 16.4954 5.93321 16.4729C6.33698 15.9215 6.69691 15.3401 7.00551 14.7287C7.02372 14.6929 7.00633 14.6504 6.96911 14.6363C6.39821 14.4197 5.85459 14.1557 5.33167 13.8558C5.29031 13.8317 5.287 13.7725 5.32505 13.7442C5.43509 13.6617 5.54516 13.5759 5.65024 13.4893C5.66925 13.4735 5.69574 13.4701 5.71809 13.4801C9.15345 15.0486 12.8726 15.0486 16.2675 13.4801C16.2898 13.4693 16.3163 13.4726 16.3361 13.4885C16.4413 13.5751 16.5513 13.6617 16.6622 13.7442C16.7002 13.7725 16.6977 13.8317 16.6564 13.8558C16.1334 14.1615 15.5898 14.4197 15.0181 14.6354C14.9809 14.6496 14.9643 14.6929 14.9825 14.7287C15.2978 15.3393 15.6577 15.9207 16.054 16.4721C16.0706 16.4954 16.1003 16.5054 16.1277 16.4971C17.8428 15.9665 19.5821 15.166 21.3775 13.8475C21.3932 13.8358 21.4032 13.8183 21.4048 13.7992C21.8425 9.27122 20.6717 5.33804 18.3012 1.8513C18.2954 1.83965 18.2855 1.83131 18.2739 1.82631ZM7.51852 11.4136C6.48424 11.4136 5.63203 10.464 5.63203 9.29789C5.63203 8.13175 6.46772 7.1822 7.51852 7.1822C8.57758 7.1822 9.42155 8.14009 9.40499 9.29789C9.40499 10.464 8.5693 11.4136 7.51852 11.4136ZM14.4935 11.4136C13.4593 11.4136 12.6071 10.464 12.6071 9.29789C12.6071 8.13175 13.4427 7.1822 14.4935 7.1822C15.5526 7.1822 16.3965 8.14009 16.38 9.29789C16.38 10.464 15.5526 11.4136 14.4935 11.4136Z" fill="white"/>
</svg>
