<svg width="21" height="27" viewBox="0 0 21 27" fill="none" xmlns="http://www.w3.org/2000/svg">
<path fill-rule="evenodd" clip-rule="evenodd" d="M5.42927 3.71792C5.42927 1.66457 7.09384 0 9.1472 0H11.8511C13.9045 0 15.5691 1.66457 15.5691 3.71792V6.42187C15.5691 6.98187 15.1151 7.43585 14.5551 7.43585H6.44325C5.88325 7.43585 5.42927 6.98187 5.42927 6.42187V3.71792ZM9.1472 2.02796C8.21385 2.02796 7.45723 2.78458 7.45723 3.71792V5.40789H13.5411V3.71792C13.5411 2.78458 12.7845 2.02796 11.8511 2.02796H9.1472ZM3.04565 3.62162C3.21657 3.53968 3.40634 3.6701 3.40599 3.85965L3.40131 6.42188C3.40131 8.10189 4.76324 9.46382 6.44325 9.46382H14.5551C16.2351 9.46382 17.597 8.10189 17.597 6.42188V3.85888C17.597 3.66955 17.7866 3.53947 17.9574 3.62132C19.5596 4.38944 20.639 6.02545 20.639 7.88938V22.0708C20.639 24.3837 18.9161 26.3344 16.6209 26.6203C12.5555 27.1266 8.44287 27.1266 4.3774 26.6203C2.08221 26.3344 0.359375 24.3837 0.359375 22.0708V7.88937C0.359375 6.0257 1.44313 4.38987 3.04565 3.62162ZM8.84996 15.1685C8.45398 14.7726 7.81196 14.7726 7.41598 15.1685C7.02 15.5645 7.02 16.2065 7.41598 16.6025L9.08897 18.2755L7.41598 19.9485C7.01999 20.3445 7.01999 20.9865 7.41598 21.3825C7.81196 21.7785 8.45398 21.7785 8.84996 21.3825L10.5229 19.7095L12.1959 21.3825C12.5919 21.7785 13.2339 21.7785 13.6299 21.3825C14.0259 20.9865 14.0259 20.3445 13.6299 19.9485L11.9569 18.2755L13.6299 16.6025C14.0259 16.2066 14.0259 15.5645 13.6299 15.1686C13.2339 14.7726 12.5919 14.7726 12.1959 15.1686L10.5229 16.8415L8.84996 15.1685Z" fill="#AC82E3"/>
</svg>
