<svg width="90" height="90" viewBox="0 0 90 90" fill="none" xmlns="http://www.w3.org/2000/svg">
<path d="M47.6169 17.5173C46.4509 15.4942 43.5491 15.4942 42.3831 17.5173L34.1717 31.7644C33.5957 32.7638 32.6002 33.4458 31.4654 33.6183L16.0767 35.9583C13.492 36.3514 12.5854 39.6368 14.5983 41.3158L26.0623 50.8779C27.1234 51.763 27.6224 53.1592 27.3646 54.5221L24.3658 70.3771C23.8918 72.8834 26.5052 74.8308 28.7476 73.6421L43.238 65.9606C44.3409 65.3759 45.6591 65.3759 46.762 65.9606L61.2524 73.6421C63.4948 74.8308 66.1082 72.8834 65.6342 70.3771L62.6354 54.5221C62.3776 53.1592 62.8766 51.763 63.9377 50.8779L75.4017 41.3158C77.4146 39.6368 76.508 36.3514 73.9233 35.9583L58.5346 33.6183C57.3998 33.4458 56.4043 32.7638 55.8283 31.7644L47.6169 17.5173Z" fill="#AC82E3"/>
</svg>
