<svg width="86" height="77" viewBox="0 0 86 77" fill="none" xmlns="http://www.w3.org/2000/svg">
<path d="M31.6091 17.8889H29.3316C26.142 17.8889 24.546 17.8889 23.3277 18.5307C22.2561 19.0953 21.3855 19.9956 20.8395 21.1036C20.2188 22.3633 20.2188 24.0136 20.2188 27.3117V29.6667M31.6091 17.8889H54.3898M31.6091 17.8889V12M54.3898 17.8889H56.6684C59.858 17.8889 61.4506 17.8889 62.6689 18.5307C63.7405 19.0953 64.614 19.9956 65.16 21.1036C65.7802 22.3621 65.7802 24.0104 65.7802 27.302V29.6667M54.3898 17.8889V12M20.2188 29.6667V55.5784C20.2188 58.8764 20.2188 60.5246 20.8395 61.7843C21.3855 62.8924 22.2561 63.7942 23.3277 64.3588C24.5448 65 26.1389 65 29.3222 65H56.6767C59.86 65 61.4518 65 62.6689 64.3588C63.7405 63.7942 64.614 62.8924 65.16 61.7843C65.7802 60.5259 65.7802 58.88 65.7802 55.5883V29.6667M20.2188 29.6667H65.7802" stroke="#AC82E3" stroke-width="4" stroke-linecap="round" stroke-linejoin="round"/>
<path fill-rule="evenodd" clip-rule="evenodd" d="M21.1484 29.6641H64.8502V64.9974H21.1484V29.6641ZM33.2361 36.637C33.2361 38.4344 31.7791 39.8914 29.9817 39.8914C28.1844 39.8914 26.7273 38.4344 26.7273 36.637C26.7273 34.8397 28.1844 33.3827 29.9817 33.3827C31.7791 33.3827 33.2361 34.8397 33.2361 36.637ZM29.9819 54.7705C31.7793 54.7705 33.2363 53.3135 33.2363 51.5161C33.2363 49.7188 31.7793 48.2617 29.9819 48.2617C28.1846 48.2617 26.7275 49.7188 26.7275 51.5161C26.7275 53.3135 28.1846 54.7705 29.9819 54.7705ZM46.2537 36.637C46.2537 38.4344 44.7967 39.8914 42.9993 39.8914C41.202 39.8914 39.7449 38.4344 39.7449 36.637C39.7449 34.8397 41.202 33.3827 42.9993 33.3827C44.7967 33.3827 46.2537 34.8397 46.2537 36.637ZM42.9995 54.7705C44.7969 54.7705 46.2539 53.3135 46.2539 51.5161C46.2539 49.7188 44.7969 48.2617 42.9995 48.2617C41.2022 48.2617 39.7451 49.7188 39.7451 51.5161C39.7451 53.3135 41.2022 54.7705 42.9995 54.7705ZM59.2713 36.637C59.2713 38.4344 57.8142 39.8914 56.0169 39.8914C54.2195 39.8914 52.7625 38.4344 52.7625 36.637C52.7625 34.8397 54.2195 33.3827 56.0169 33.3827C57.8142 33.3827 59.2713 34.8397 59.2713 36.637ZM56.0171 54.7705C57.8144 54.7705 59.2715 53.3135 59.2715 51.5161C59.2715 49.7188 57.8144 48.2617 56.0171 48.2617C54.2197 48.2617 52.7627 49.7188 52.7627 51.5161C52.7627 53.3135 54.2197 54.7705 56.0171 54.7705Z" fill="#AC82E3"/>
</svg>
