<svg width="90" height="90" viewBox="0 0 90 90" fill="none" xmlns="http://www.w3.org/2000/svg">
<path d="M42.9918 16C41.3495 16 39.8111 16.7973 38.8726 18.1346L23.6983 39.7587C20.8488 43.8193 19.5788 48.7671 20.1234 53.6857L21.2903 64.2232C21.7889 68.7262 25.3512 72.293 29.8843 72.8282L37.4755 73.7243C43.2723 74.4086 49.15 73.8154 54.6894 71.987C58.5667 70.7073 61.6724 67.7868 63.1686 64.0135L69.2952 48.5632C69.5915 47.8159 69.7963 47.036 69.9052 46.2401C70.853 39.3116 64.5441 33.5716 57.6704 35.1086L43.6936 38.2339L47.8525 22.2247C48.6715 19.072 46.2726 15.9999 42.9918 16Z" fill="#AC82E3"/>
</svg>
