<svg width="86" height="77" viewBox="0 0 86 77" fill="none" xmlns="http://www.w3.org/2000/svg">
<path fill-rule="evenodd" clip-rule="evenodd" d="M27.437 16.9585V21.7438L21.887 22.2044C17.9629 22.5301 14.7619 25.5677 14.1326 29.5632C13.9958 30.4315 13.8714 31.3014 13.7594 32.1726C13.7038 32.6048 13.9281 33.0233 14.3114 33.2099L14.5639 33.3328C32.3506 41.9915 53.6495 41.9915 71.4362 33.3328L71.6886 33.2099C72.0719 33.0233 72.2962 32.6049 72.2406 32.1726C72.1286 31.3014 72.0042 30.4316 71.8674 29.5632C71.2381 25.5677 68.0371 22.5301 64.113 22.2044L58.563 21.7438V16.9585C58.563 14.0406 56.4866 11.5617 53.6798 11.1288L49.6829 10.5124C45.2524 9.82919 40.7476 9.82919 36.3172 10.5124L32.3202 11.1288C29.5134 11.5617 27.437 14.0406 27.437 16.9585ZM48.9538 15.5093C45.0067 14.9006 40.9933 14.9006 37.0462 15.5093L33.0493 16.1257C32.6483 16.1876 32.3517 16.5417 32.3517 16.9585V21.3882C39.4447 20.9704 46.5553 20.9704 53.6484 21.3882V16.9585C53.6484 16.5417 53.3518 16.1876 52.9508 16.1257L48.9538 15.5093Z" fill="#AC82E3"/>
<path d="M72.8754 39.2234C72.851 38.7514 72.3704 38.4566 71.95 38.6479C53.6973 46.9568 32.3026 46.9568 14.05 38.6479C13.6296 38.4566 13.149 38.7514 13.1246 39.2234C12.7911 45.6621 13.1271 52.1284 14.1326 58.5117C14.7619 62.5071 17.9629 65.5448 21.887 65.8705L28.0202 66.3794C37.9905 67.2069 48.0095 67.2069 57.9798 66.3794L64.113 65.8705C68.0371 65.5448 71.2381 62.5071 71.8674 58.5117C72.8729 52.1284 73.2089 45.6621 72.8754 39.2234Z" fill="#AC82E3"/>
</svg>
