<svg width="62" height="42" viewBox="0 0 62 42" fill="none" xmlns="http://www.w3.org/2000/svg">
<path d="M0 40.474V1.52704C0 0.986553 0.270463 0.716309 0.81139 0.716309H12.1788C12.7197 0.716309 12.9902 0.986553 12.9902 1.52704V5.17534C12.9902 5.71583 12.7197 5.98607 12.1788 5.98607H6.08543C5.81496 5.98607 5.67973 6.12119 5.67973 6.39144V16.3746C5.67973 16.6448 5.81496 16.7799 6.08543 16.7799H9.94351C10.4844 16.7799 10.7549 17.0502 10.7549 17.5907V21.6443C10.7549 22.1848 10.4844 22.4551 9.94351 22.4551H6.08543C5.81496 22.4551 5.67973 22.5902 5.67973 22.8604V40.466C5.67973 41.0065 5.40927 41.2768 4.86834 41.2768H0.81139C0.270463 41.2768 0 41.0065 0 40.466V40.474Z" fill="#222025"/>
<path d="M0 40.474V1.52704C0 0.986553 0.270463 0.716309 0.81139 0.716309H12.1788C12.7197 0.716309 12.9902 0.986553 12.9902 1.52704V5.17534C12.9902 5.71583 12.7197 5.98607 12.1788 5.98607H6.08543C5.81496 5.98607 5.67973 6.12119 5.67973 6.39144V16.3746C5.67973 16.6448 5.81496 16.7799 6.08543 16.7799H9.94351C10.4844 16.7799 10.7549 17.0502 10.7549 17.5907V21.6443C10.7549 22.1848 10.4844 22.4551 9.94351 22.4551H6.08543C5.81496 22.4551 5.67973 22.5902 5.67973 22.8604V40.466C5.67973 41.0065 5.40927 41.2768 4.86834 41.2768H0.81139C0.270463 41.2768 0 41.0065 0 40.466V40.474Z" fill="url(#paint0_linear_709_9169)" fill-opacity="0.2"/>
<path d="M13.9848 41.038C13.8655 40.879 13.8257 40.6565 13.8814 40.3862L18.2645 20.7458C18.3202 20.5869 18.3202 20.4199 18.2645 20.261L13.8894 1.60617C13.8655 1.55053 13.8496 1.47105 13.8496 1.35977C13.8496 0.930562 14.0962 0.708008 14.5815 0.708008H18.9645C19.4498 0.708008 19.7362 0.954407 19.8157 1.43926L22.0908 14.101C22.1147 14.1805 22.1544 14.252 22.2101 14.3076C22.2658 14.3633 22.3294 14.3871 22.4169 14.3871C22.576 14.3871 22.6874 14.2918 22.7431 14.101L25.0182 1.43926C25.0977 0.954407 25.3841 0.708008 25.8693 0.708008H30.2922C30.5627 0.708008 30.7615 0.787491 30.8808 0.954407C31.0002 1.11337 31.032 1.33593 30.9843 1.60617L26.5614 20.2689C26.5375 20.4279 26.5375 20.5948 26.5614 20.7538L30.9843 40.3942C31.0081 40.4498 31.024 40.5293 31.024 40.6406C31.024 41.0698 30.7774 41.2923 30.2922 41.2923H25.9091C25.392 41.2923 25.0977 41.0459 25.0182 40.5611L22.7431 27.2158C22.7192 27.025 22.6078 26.9296 22.4169 26.9296C22.226 26.9296 22.1147 27.025 22.0908 27.2158L19.8555 40.5611C19.7759 41.0459 19.4737 41.2923 18.9645 41.2923H14.5815C14.311 41.2923 14.1121 41.2128 13.9928 41.0459L13.9848 41.038Z" fill="#222025"/>
<path d="M13.9848 41.038C13.8655 40.879 13.8257 40.6565 13.8814 40.3862L18.2645 20.7458C18.3202 20.5869 18.3202 20.4199 18.2645 20.261L13.8894 1.60617C13.8655 1.55053 13.8496 1.47105 13.8496 1.35977C13.8496 0.930562 14.0962 0.708008 14.5815 0.708008H18.9645C19.4498 0.708008 19.7362 0.954407 19.8157 1.43926L22.0908 14.101C22.1147 14.1805 22.1544 14.252 22.2101 14.3076C22.2658 14.3633 22.3294 14.3871 22.4169 14.3871C22.576 14.3871 22.6874 14.2918 22.7431 14.101L25.0182 1.43926C25.0977 0.954407 25.3841 0.708008 25.8693 0.708008H30.2922C30.5627 0.708008 30.7615 0.787491 30.8808 0.954407C31.0002 1.11337 31.032 1.33593 30.9843 1.60617L26.5614 20.2689C26.5375 20.4279 26.5375 20.5948 26.5614 20.7538L30.9843 40.3942C31.0081 40.4498 31.024 40.5293 31.024 40.6406C31.024 41.0698 30.7774 41.2923 30.2922 41.2923H25.9091C25.392 41.2923 25.0977 41.0459 25.0182 40.5611L22.7431 27.2158C22.7192 27.025 22.6078 26.9296 22.4169 26.9296C22.226 26.9296 22.1147 27.025 22.0908 27.2158L19.8555 40.5611C19.7759 41.0459 19.4737 41.2923 18.9645 41.2923H14.5815C14.311 41.2923 14.1121 41.2128 13.9928 41.0459L13.9848 41.038Z" fill="url(#paint1_linear_709_9169)" fill-opacity="0.2"/>
<path d="M45.6448 13.2903C45.9789 13.2903 46.2493 13.0201 46.2493 12.6863V7.69469C46.2493 5.28633 45.5016 3.37078 44.014 1.93213C43.3936 1.336 42.6379 0.882943 41.7628 0.572957C40.8798 0.262971 39.9809 0.104004 39.0661 0.104004C37.1172 0.104004 35.4626 0.716028 34.1103 1.93213C32.6228 3.41847 31.875 5.34197 31.875 7.69469V34.3058C31.875 36.6585 32.6228 38.582 34.1103 40.0684C35.4626 41.2845 37.1172 41.8965 39.0661 41.8965C39.9889 41.8965 40.8878 41.7375 41.7628 41.4275C42.6379 41.1175 43.3936 40.6645 44.014 40.0684C45.5016 38.6376 46.2493 36.7141 46.2493 34.3058V28.1776C46.2493 27.8438 45.9789 27.5735 45.6448 27.5735H41.1662C40.8321 27.5735 40.5616 27.8438 40.5616 28.1776V33.9004C40.5616 35.7127 40.0605 36.6188 39.0582 36.6188C38.4616 36.6188 38.0638 36.3724 37.857 35.8875C37.6502 35.4027 37.5547 34.735 37.5547 33.9004V8.10005C37.5547 7.26548 37.6581 6.59781 37.857 6.11296C38.0559 5.62811 38.4616 5.38171 39.0582 5.38171C40.0605 5.38171 40.5616 6.28783 40.5616 8.10005V12.6863C40.5616 13.0201 40.8321 13.2903 41.1662 13.2903H45.6448Z" fill="#222025"/>
<path d="M45.6448 13.2903C45.9789 13.2903 46.2493 13.0201 46.2493 12.6863V7.69469C46.2493 5.28633 45.5016 3.37078 44.014 1.93213C43.3936 1.336 42.6379 0.882943 41.7628 0.572957C40.8798 0.262971 39.9809 0.104004 39.0661 0.104004C37.1172 0.104004 35.4626 0.716028 34.1103 1.93213C32.6228 3.41847 31.875 5.34197 31.875 7.69469V34.3058C31.875 36.6585 32.6228 38.582 34.1103 40.0684C35.4626 41.2845 37.1172 41.8965 39.0661 41.8965C39.9889 41.8965 40.8878 41.7375 41.7628 41.4275C42.6379 41.1175 43.3936 40.6645 44.014 40.0684C45.5016 38.6376 46.2493 36.7141 46.2493 34.3058V28.1776C46.2493 27.8438 45.9789 27.5735 45.6448 27.5735H41.1662C40.8321 27.5735 40.5616 27.8438 40.5616 28.1776V33.9004C40.5616 35.7127 40.0605 36.6188 39.0582 36.6188C38.4616 36.6188 38.0638 36.3724 37.857 35.8875C37.6502 35.4027 37.5547 34.735 37.5547 33.9004V8.10005C37.5547 7.26548 37.6581 6.59781 37.857 6.11296C38.0559 5.62811 38.4616 5.38171 39.0582 5.38171C40.0605 5.38171 40.5616 6.28783 40.5616 8.10005V12.6863C40.5616 13.0201 40.8321 13.2903 41.1662 13.2903H45.6448Z" fill="url(#paint2_linear_709_9169)" fill-opacity="0.2"/>
<path d="M54.0286 16.0249H49.9637C49.5156 16.0249 49.1523 16.3879 49.1523 16.8356V40.4741C49.1523 40.9218 49.5156 41.2848 49.9637 41.2848H54.0286C54.4768 41.2848 54.84 40.9218 54.84 40.4741V16.8356C54.84 16.3879 54.4768 16.0249 54.0286 16.0249Z" fill="#222025"/>
<path d="M54.0286 16.0249H49.9637C49.5156 16.0249 49.1523 16.3879 49.1523 16.8356V40.4741C49.1523 40.9218 49.5156 41.2848 49.9637 41.2848H54.0286C54.4768 41.2848 54.84 40.9218 54.84 40.4741V16.8356C54.84 16.3879 54.4768 16.0249 54.0286 16.0249Z" fill="url(#paint3_linear_709_9169)" fill-opacity="0.2"/>
<path d="M61.1888 0.716309H57.1239C56.6758 0.716309 56.3125 1.07929 56.3125 1.52704V15.3413C56.3125 15.789 56.6758 16.152 57.1239 16.152H61.1888C61.6369 16.152 62.0002 15.789 62.0002 15.3413V1.52704C62.0002 1.07929 61.6369 0.716309 61.1888 0.716309Z" fill="#FFA114"/>
<defs>
<linearGradient id="paint0_linear_709_9169" x1="0" y1="20.9965" x2="12.9902" y2="20.9965" gradientUnits="userSpaceOnUse">
<stop stop-opacity="0"/>
<stop offset="1"/>
</linearGradient>
<linearGradient id="paint1_linear_709_9169" x1="13.8496" y1="21.0002" x2="31.024" y2="21.0002" gradientUnits="userSpaceOnUse">
<stop stop-opacity="0"/>
<stop offset="1"/>
</linearGradient>
<linearGradient id="paint2_linear_709_9169" x1="31.875" y1="21.0002" x2="46.2493" y2="21.0002" gradientUnits="userSpaceOnUse">
<stop stop-opacity="0"/>
<stop offset="1"/>
</linearGradient>
<linearGradient id="paint3_linear_709_9169" x1="49.1523" y1="28.6548" x2="54.84" y2="28.6548" gradientUnits="userSpaceOnUse">
<stop stop-opacity="0"/>
<stop offset="1"/>
</linearGradient>
</defs>
</svg>
