<svg width="641" height="466" viewBox="0 0 641 466" fill="none" xmlns="http://www.w3.org/2000/svg">
<path d="M603.35 273.563C603.35 283.461 603.034 291.486 602.643 291.486H48.0049V255.64H602.643C603.034 255.64 603.35 263.664 603.35 273.563Z" fill="url(#paint0_linear_94_2127)"/>
<path d="M210.496 57.5054C223.857 57.5054 234.689 46.6219 234.689 33.1964C234.689 19.771 223.857 8.88745 210.496 8.88745C197.134 8.88745 186.303 19.771 186.303 33.1964C186.303 46.6219 197.134 57.5054 210.496 57.5054Z" fill="#FFB6B6"/>
<path d="M223.316 62.6348L191.471 71.7768L186.922 82.0616L176.686 131.2V208.907C176.686 208.907 164.176 236.333 171 260.331C178.294 285.983 203.982 255.706 223.316 259.161C242.65 262.617 273.357 266.045 273.357 266.045L255.16 182.624L250.611 80.9188L223.316 62.6348Z" fill="#E6E6E6"/>
<path d="M217.306 41.1571L212.387 38.686C212.387 38.686 211.158 27.5659 208.698 25.0948C206.239 22.6236 206.239 21.3881 206.239 21.3881L209.928 16.4458C209.928 16.4458 191.483 26.3303 187.794 20.1525C184.105 13.9747 189.023 11.5036 189.023 11.5036L182.875 6.56132C182.875 6.56132 190.253 11.5036 191.483 7.79689C192.712 4.09019 200.09 1.57529 200.09 1.57529C200.09 1.57529 216.202 5.23819 214.91 1.57529C213.617 -2.08762 218.536 1.61907 219.765 2.85463C220.995 4.09019 232.062 16.4458 233.292 15.2103C234.521 13.9747 240.67 17.6814 239.44 18.917C238.21 20.1525 238.21 21.3881 239.44 22.6236C240.67 23.8592 248.048 37.4504 241.899 42.3927C235.751 47.3349 227.143 53.5127 228.373 58.455C229.603 63.3972 228.373 42.3927 217.306 41.1571Z" fill="#2F2E41"/>
<path d="M98.0452 102.361C91.8357 96.9821 89.5643 89.4032 92.9715 85.433C96.3788 81.4629 104.173 82.6053 110.384 87.9865C112.895 90.1019 114.864 92.7906 116.129 95.8277L142.152 118.95L131.093 130.99L106.612 106.917C103.435 106.107 100.498 104.545 98.0452 102.361Z" fill="#FFB6B6"/>
<path d="M187.195 82.4547L204.337 80.8889L219.37 152.928C222.234 166.655 213.279 180.057 199.55 182.589L187.195 184.868L108.447 115.202L119.952 95.9305L178.025 132.533L187.195 82.4547Z" fill="#E6E6E6"/>
<path d="M148.925 402.823C148.925 402.823 135.329 428.194 136.3 427.219C137.271 426.243 153.78 432.098 153.78 432.098L163.492 406.727L148.925 402.823Z" fill="#FFB6B6"/>
<path d="M128.857 225.232C128.857 225.232 121.897 253.185 122.6 251.999C123.302 250.813 140.738 252.403 140.738 252.403L143.933 225.41L128.857 225.232Z" fill="#FFB6B6"/>
<path d="M249.925 220.531C219.199 224.869 191.447 221.087 168.834 203.272C168.834 203.272 152.324 258.893 182.43 264.748C212.535 270.602 246.04 260.539 249.925 250.781C253.81 241.023 249.925 220.531 249.925 220.531Z" fill="#2F2E41"/>
<path d="M192.626 238.096L159.121 317.441L143.583 409.166L163.977 414.045L200.457 329.638L249.924 248.83L192.626 238.096Z" fill="#2F2E41"/>
<path d="M188.257 215.469C188.257 215.469 180.487 154.97 165.92 151.066C158.819 149.164 152.178 149.348 147.238 150.037C142.258 150.731 138.288 154.554 137.418 159.529L124.18 235.168H142.899L148.925 214.677L164.949 242.792L188.257 215.469Z" fill="#2F2E41"/>
<path d="M140.67 244.744L122.161 242.792L119.305 253.526C119.305 253.526 89.1989 280.848 104.737 282.8C120.276 284.751 134.843 274.018 134.843 274.018L156.218 261.697C156.218 261.697 147.954 239.56 142.127 239.56C136.3 239.56 140.67 244.744 140.67 244.744Z" fill="#2F2E41"/>
<path d="M150.382 427.707L131.873 425.755L129.017 436.489C129.017 436.489 98.9108 463.811 114.449 465.763C129.988 467.715 144.555 456.981 144.555 456.981L165.93 444.66C165.93 444.66 164.464 421.547 158.637 421.547C152.81 421.547 150.382 427.707 150.382 427.707Z" fill="#2F2E41"/>
<path d="M244.1 279.985C241.868 287.676 236.11 292.753 231.239 291.325C226.368 289.897 224.23 282.506 226.463 274.813C227.314 271.728 228.887 268.892 231.052 266.542L240.917 234.077L255.981 239.053L244.656 270.53C245.225 273.681 245.034 276.924 244.1 279.985Z" fill="#FFB6B6"/>
<path d="M254.527 81.0602L246.672 78.8342C239.265 93.6414 236.08 110.219 237.469 126.732L241.346 172.81L228.555 253.799L253.626 260.317L273.383 158.679L254.527 81.0602Z" fill="#E6E6E6"/>
<path d="M101.61 207.685C101.266 206.628 98.6586 207.093 98.4083 206.147C98.1589 205.205 100.661 204.415 102.579 201.758C102.925 201.279 105.106 198.261 104.269 196.991C102.684 194.584 91.6558 200.578 89.0086 197.215C88.4276 196.477 88.1886 195.209 86.4579 192.851C85.7694 191.913 85.3276 191.46 84.7999 191.473C84.051 191.492 83.783 192.434 82.606 194.139C80.8408 196.696 80.2038 196.375 79.041 198.47C78.1777 200.026 78.0755 201.02 77.453 201.078C76.5721 201.161 76.2081 199.224 75.1317 199.149C74.0333 199.073 72.9342 200.986 72.3894 202.481C71.3669 205.287 72 207.431 72.1404 209.568C72.2929 211.891 71.9348 215.29 69.4234 219.654L45.7354 257.576C50.8226 249.845 65.2633 228.764 71.0814 221.032C72.761 218.8 74.5659 216.558 77.344 216.136C80.0186 215.73 83.273 217.06 87.8154 216.983C88.3459 216.974 89.8223 216.93 90.1814 216.143C90.4783 215.493 89.7411 214.928 90.0093 214.317C90.369 213.497 91.9873 213.849 94.1928 213.305C95.7479 212.921 96.8045 212.287 97.7131 211.741C97.987 211.577 102.068 209.093 101.61 207.685Z" fill="#F2F2F2"/>
<path d="M39.5659 216.539C38.95 216.404 38.4253 217.824 37.891 217.674C37.3586 217.525 37.6943 216.064 36.9505 214.351C36.8163 214.042 35.9709 212.096 35.1094 212.142C33.4765 212.229 33.2223 219.397 30.8155 219.732C30.2873 219.806 29.5993 219.558 27.948 219.731C27.291 219.8 26.9423 219.887 26.7966 220.151C26.5898 220.526 26.9723 220.93 27.4656 222.002C28.2055 223.611 27.8648 223.832 28.5528 225.01C29.0635 225.885 29.5195 226.222 29.3685 226.546C29.1548 227.004 28.1038 226.625 27.7566 227.134C27.4022 227.654 28.0198 228.748 28.5929 229.448C29.6683 230.762 30.8984 231.068 31.9828 231.615C33.1612 232.21 34.7186 233.368 36.1254 235.865L47.8141 258.489C45.5057 253.75 39.3751 240.546 37.2768 235.445C36.671 233.973 36.0969 232.436 36.6925 230.944C37.2659 229.508 38.8544 228.287 40.1272 226.024C40.2759 225.76 40.6803 225.019 40.3999 224.615C40.168 224.282 39.6793 224.482 39.4582 224.173C39.1616 223.76 39.8003 223.063 40.1708 221.818C40.432 220.941 40.4271 220.237 40.4228 219.631C40.4216 219.449 40.3857 216.72 39.5659 216.539Z" fill="#F2F2F2"/>
<path d="M51.2275 222.059L51.5949 218.651L51.8203 218.437C52.8629 217.447 53.5151 216.398 53.7597 215.318C53.7986 215.147 53.8288 214.973 53.8596 214.796C53.9817 214.095 54.1331 213.224 54.8037 212.319C55.1789 211.815 56.1716 210.676 57.1955 211.074C57.4718 211.178 57.6583 211.358 57.7879 211.549C57.8204 211.516 57.8537 211.483 57.8894 211.447C58.3316 211.015 58.641 210.857 58.939 210.704C59.168 210.587 59.4045 210.467 59.8046 210.145C59.9802 210.004 60.1208 209.877 60.2392 209.77C60.5985 209.448 61.058 209.071 61.6874 209.22C62.3546 209.403 62.5834 210.043 62.7352 210.466C63.0062 211.222 63.0897 211.741 63.1449 212.085C63.1648 212.211 63.1879 212.353 63.2053 212.399C63.3514 212.769 65.1846 212.864 65.8744 212.904C67.4249 212.989 68.7666 213.062 69.0893 214.129C69.3208 214.892 68.8383 215.724 67.6138 216.668C67.2324 216.962 66.851 217.165 66.5188 217.316C66.7231 217.511 66.8859 217.775 66.8959 218.134C66.9183 218.985 66.0495 219.638 64.3137 220.079C63.8824 220.189 63.3022 220.336 62.5429 220.299C62.1854 220.281 61.8722 220.226 61.6051 220.175C61.5653 220.327 61.4923 220.486 61.3607 220.637C60.9744 221.082 60.3504 221.195 59.5035 220.944C58.5686 220.682 57.8298 220.326 57.178 220.013C56.6086 219.741 56.1177 219.508 55.7057 219.444C54.9395 219.336 54.2251 219.812 53.3701 220.444L51.2275 222.059Z" fill="#F2F2F2"/>
<path d="M57.3421 202.646L53.9678 203.153L53.7045 202.989C52.4869 202.227 51.3118 201.859 50.2105 201.895C50.0354 201.9 49.8606 201.915 49.6826 201.93C48.977 201.989 48.0999 202.063 47.0587 201.641C46.4782 201.404 45.1295 200.728 45.2529 199.632C45.283 199.337 45.409 199.11 45.5599 198.936C45.5197 198.913 45.4795 198.889 45.436 198.863C44.9081 198.543 44.6773 198.282 44.4551 198.031C44.2841 197.838 44.108 197.639 43.6969 197.332C43.5167 197.197 43.3588 197.092 43.2261 197.004C42.8247 196.737 42.3448 196.386 42.3291 195.736C42.3363 195.041 42.8939 194.657 43.263 194.402C43.9212 193.947 44.4 193.734 44.7175 193.593C44.8336 193.542 44.9642 193.483 45.0041 193.455C45.3231 193.219 44.9501 191.413 44.8137 190.732C44.5018 189.204 44.2319 187.881 45.177 187.297C45.853 186.879 46.7767 187.137 47.9962 188.087C48.3758 188.383 48.6677 188.703 48.8977 188.987C49.0328 188.739 49.2457 188.514 49.5893 188.413C50.403 188.175 51.2521 188.854 52.1163 190.43C52.3322 190.821 52.6203 191.348 52.7773 192.095C52.8508 192.447 52.8773 192.765 52.8956 193.038C53.0529 193.038 53.2244 193.068 53.403 193.158C53.9287 193.421 54.1958 193.999 54.1695 194.885C54.1546 195.86 53.9993 196.669 53.8633 197.382C53.7454 198.004 53.6455 198.54 53.6887 198.957C53.7794 199.729 54.4182 200.303 55.2441 200.973L57.3421 202.646Z" fill="#F2F2F2"/>
<path d="M57.7969 192.464L58.1643 189.056L58.3896 188.842C59.4322 187.852 60.0844 186.803 60.329 185.723C60.368 185.552 60.3981 185.378 60.429 185.201C60.551 184.501 60.7024 183.629 61.373 182.724C61.7483 182.22 62.741 181.081 63.7648 181.479C64.0411 181.583 64.2276 181.763 64.3572 181.954C64.3897 181.921 64.4231 181.888 64.4587 181.852C64.901 181.42 65.2103 181.262 65.5084 181.109C65.7373 180.992 65.9738 180.872 66.374 180.55C66.5495 180.409 66.6901 180.282 66.8086 180.176C67.1678 179.853 67.6273 179.476 68.2567 179.625C68.924 179.809 69.1527 180.448 69.3045 180.871C69.5755 181.627 69.659 182.146 69.7143 182.49C69.7342 182.616 69.7572 182.758 69.7747 182.804C69.9207 183.174 71.754 183.269 72.4437 183.309C73.9943 183.394 75.3359 183.467 75.6586 184.534C75.8901 185.297 75.4076 186.129 74.1831 187.074C73.8017 187.367 73.4204 187.57 73.0881 187.721C73.2925 187.916 73.4553 188.18 73.4652 188.539C73.4877 189.39 72.6189 190.043 70.8831 190.484C70.4517 190.594 69.8715 190.741 69.1123 190.704C68.7547 190.686 68.4415 190.631 68.1745 190.58C68.1347 190.732 68.0616 190.891 67.93 191.042C67.5437 191.487 66.9198 191.6 66.0729 191.349C65.1379 191.087 64.3992 190.731 63.7473 190.418C63.1779 190.146 62.687 189.913 62.275 189.849C61.5089 189.741 60.7944 190.217 59.9394 190.849L57.7969 192.464Z" fill="#F2F2F2"/>
<path d="M46.8544 257.77L46.2578 257.178L45.4286 257.089C45.4325 257.011 45.4271 256.828 45.421 256.542C45.3891 254.974 45.2901 250.202 45.9514 242.87C46.4132 237.751 47.1848 232.556 48.2449 227.425C49.3067 222.286 50.4088 218.463 51.2939 215.39C51.9619 213.072 52.6362 210.873 53.2944 208.732C55.0508 203.01 56.7093 197.606 57.7364 191.441C57.9664 190.065 58.4437 187.2 57.4664 183.819C56.8994 181.859 55.9285 180.013 54.5798 178.335L55.8852 177.276C57.3734 179.13 58.447 181.174 59.0768 183.351C60.1603 187.1 59.6402 190.221 59.3904 191.721C58.345 197.994 56.67 203.451 54.8962 209.227C54.2414 211.361 53.5693 213.55 52.9043 215.858C52.0271 218.903 50.935 222.693 49.8869 227.766C48.8388 232.836 48.0771 237.968 47.6204 243.021C46.9678 250.261 47.0659 254.962 47.098 256.506C47.1146 257.331 47.1181 257.503 46.8544 257.77Z" fill="#F2F2F2"/>
<path d="M50.9994 180.275C50.9323 180.26 50.8647 180.243 50.7971 180.223C49.4204 179.835 48.3161 178.708 47.5139 176.873C47.1385 176.01 47.0498 175.102 46.8731 173.291C46.8454 173.012 46.7228 171.599 46.8735 169.726C46.9715 168.502 47.1024 168.011 47.4338 167.625C47.8018 167.195 48.2976 166.949 48.8216 166.825C48.8358 166.663 48.8885 166.505 48.9932 166.355C49.4242 165.732 50.1457 165.988 50.5372 166.121C50.7344 166.192 50.9802 166.283 51.2567 166.329C51.6912 166.405 51.9506 166.328 52.3433 166.214C52.7191 166.104 53.1863 165.968 53.8321 165.979C55.1065 165.997 56.0498 166.573 56.3609 166.762C57.9991 167.751 58.5647 169.329 59.2193 171.156C59.3494 171.522 59.781 172.846 59.8816 174.551C59.9541 175.781 59.7937 176.284 59.6098 176.644C59.2342 177.384 58.659 177.727 57.2315 178.449C55.74 179.205 54.9918 179.584 54.3782 179.778C52.9505 180.228 52.054 180.511 50.9994 180.275Z" fill="#F2F2F2"/>
<path d="M433.846 37.6108C433.846 37.6108 443.108 43.0684 440.07 48.4655C437.033 53.8627 432.798 61.2142 435.671 63.5295C438.544 65.8448 443.286 76.053 443.286 76.053C443.286 76.053 463.531 73.2119 461.63 89.0126C459.73 104.813 450.219 106.968 458.371 113.919C466.522 120.87 449.899 129.183 449.899 129.183C449.899 129.183 438.423 125.59 435.805 114.54C433.186 103.49 438.138 122.989 436.478 124.387C434.817 125.785 428.368 135.001 423.805 122.748C419.241 110.495 423.76 105.745 417.73 98.5133C411.701 91.2818 407.601 79.5853 407.781 77.5406C407.96 75.496 400.883 56.8387 411.776 49.5624C422.669 42.2862 433.846 37.6108 433.846 37.6108Z" fill="#2F2E41"/>
<path d="M525.073 209.049C530.45 213.521 537.105 214.358 539.937 210.919C542.769 207.48 540.704 201.068 535.325 196.596C533.2 194.78 530.673 193.501 527.956 192.867L504.935 174.21L496.451 185.252L520.047 202.472C521.176 205.036 522.899 207.292 525.073 209.049Z" fill="#FFB6B6"/>
<path d="M456.075 107.297C456.075 107.297 438.009 95.1569 432.092 101.11C426.176 107.063 427.589 121.932 427.589 121.932L474.967 177.412L512.536 201.406L522.61 185.557L491.025 157.238L456.075 107.297Z" fill="#3F3D56"/>
<path d="M429.592 80.9993L436.147 104.411H400.169L412.016 75.5642L429.592 80.9993Z" fill="#FFB6B6"/>
<path opacity="0.1" d="M429.592 80.9993L436.147 104.411H400.169L412.016 75.5642L429.592 80.9993Z" fill="black"/>
<path d="M351.13 253.854C350.665 260.852 353.882 266.765 358.314 267.062C362.747 267.358 366.715 261.926 367.179 254.925C367.402 252.131 366.956 249.324 365.879 246.739L367.474 217.064L353.599 216.609L353.499 245.911C352.089 248.331 351.277 251.055 351.13 253.854Z" fill="#FFB6B6"/>
<path d="M392.91 138.107C392.91 138.107 392.143 116.282 383.877 114.942C375.611 113.602 364.435 123.451 364.435 123.451L347.361 194.514L349.966 239.166L368.653 238.106L373.039 195.801L392.91 138.107Z" fill="#3F3D56"/>
<path d="M473.052 398.92C473.052 398.92 486.648 424.291 485.677 423.315C484.706 422.34 468.196 428.194 468.196 428.194L458.484 402.824L473.052 398.92Z" fill="#FFB6B6"/>
<path d="M493.119 221.328C493.119 221.328 500.079 249.282 499.377 248.096C498.675 246.91 481.239 248.5 481.239 248.5L478.044 221.507L493.119 221.328Z" fill="#FFB6B6"/>
<path d="M439.061 96.6045H405.117L368.167 121.975L357.484 210.773L363.311 228.338L373.994 248.83C373.994 248.83 363.311 203.943 389.532 221.507C415.754 239.072 417.696 241.999 417.696 241.999L452.657 224.435L465.768 151.737L456.056 111.729L439.061 96.6045Z" fill="#3F3D56"/>
<path d="M372.052 216.628C402.777 220.965 430.53 217.184 453.143 199.369C453.143 199.369 469.653 254.989 439.547 260.844C409.441 266.699 375.936 256.636 372.052 246.878C368.167 237.12 372.052 216.628 372.052 216.628Z" fill="#2F2E41"/>
<path d="M429.35 234.193L462.855 313.538L478.393 405.263L457.999 410.142L421.519 325.735L372.052 244.926L429.35 234.193Z" fill="#2F2E41"/>
<path d="M433.72 211.566C433.72 211.566 441.489 151.066 456.056 147.163C463.158 145.26 469.798 145.445 474.739 146.133C479.718 146.828 483.688 150.65 484.559 155.626L497.797 231.265H479.077L473.051 210.773L457.027 238.889L433.72 211.566Z" fill="#2F2E41"/>
<path d="M481.306 240.84L499.815 238.889L502.671 249.622C502.671 249.622 532.777 276.945 517.239 278.897C501.7 280.848 487.133 270.114 487.133 270.114L465.758 257.794C465.758 257.794 474.022 235.656 479.849 235.656C485.676 235.656 481.306 240.84 481.306 240.84Z" fill="#2F2E41"/>
<path d="M471.595 423.803L490.104 421.852L492.96 432.586C492.96 432.586 523.066 459.908 507.528 461.86C491.989 463.811 477.422 453.077 477.422 453.077L456.047 440.757C456.047 440.757 457.513 417.644 463.34 417.644C469.167 417.644 471.595 423.803 471.595 423.803Z" fill="#2F2E41"/>
<path d="M421.044 86.0867C433.01 86.0867 442.711 76.3396 442.711 64.3159C442.711 52.2923 433.01 42.5452 421.044 42.5452C409.078 42.5452 399.377 52.2923 399.377 64.3159C399.377 76.3396 409.078 86.0867 421.044 86.0867Z" fill="#FFB6B6"/>
<path d="M429.35 40.0054C429.35 40.0054 432.961 50.165 427.183 52.3421C421.406 54.5192 413.461 57.422 414.183 61.0504C414.905 64.6789 412.017 75.5643 412.017 75.5643C412.017 75.5643 429.35 86.4497 417.794 97.335C406.239 108.22 397.572 103.735 399.377 114.323C401.183 124.911 383.127 120.557 383.127 120.557C383.127 120.557 376.627 110.397 381.683 100.238C386.738 90.0781 378.072 108.22 375.905 108.22C373.738 108.22 362.905 111.123 367.238 98.7864C371.571 86.4496 378.072 85.724 378.072 76.29C378.072 66.856 382.405 55.2449 383.849 53.7935C385.294 52.3421 391.794 33.4741 404.794 34.9255C417.794 36.3769 429.35 40.0054 429.35 40.0054Z" fill="#2F2E41"/>
<path d="M239.974 398.92C239.974 398.92 226.378 424.291 227.349 423.315C228.321 422.34 244.83 428.194 244.83 428.194L254.542 402.824L239.974 398.92Z" fill="#A0616A"/>
<path d="M340.975 216.628C310.249 220.965 282.496 217.184 259.883 199.369C259.883 199.369 243.374 254.989 273.48 260.844C303.585 266.699 337.09 256.636 340.975 246.878C344.859 237.12 340.975 216.628 340.975 216.628Z" fill="#2F2E41"/>
<path d="M283.676 234.193L250.171 313.538L234.633 405.263L255.027 410.142L291.506 325.735L340.974 244.926L283.676 234.193Z" fill="#2F2E41"/>
<path d="M241.432 423.803L222.922 421.852L220.066 432.586C220.066 432.586 189.961 459.908 205.499 461.86C221.038 463.811 235.605 453.077 235.605 453.077L256.98 440.757C256.98 440.757 255.513 417.644 249.687 417.644C243.86 417.644 241.432 423.803 241.432 423.803Z" fill="#2F2E41"/>
<path d="M270.674 385.572C270.674 385.572 265.531 413.92 266.155 412.691C266.779 411.461 284.281 411.913 284.281 411.913L285.729 384.769L270.674 385.572Z" fill="#A0616A"/>
<path d="M261.667 215.333L254.158 301.193L267.541 393.261L288.438 391.58L297.222 299.983L319.466 207.781L261.667 215.333Z" fill="#2F2E41"/>
<path d="M279.7 408.79L261.494 412.671L262.073 423.766C262.073 423.766 241.825 459.088 257.205 456.128C272.584 453.168 283.146 438.442 283.146 438.442L299.695 420.097C299.695 420.097 291.204 398.565 285.661 400.372C280.118 402.178 279.7 408.79 279.7 408.79Z" fill="#2F2E41"/>
<path d="M279.18 37.6108C279.18 37.6108 269.918 43.0684 272.955 48.4655C275.993 53.8627 280.227 61.2142 277.355 63.5295C274.482 65.8448 269.739 76.053 269.739 76.053C269.739 76.053 249.495 73.2119 251.395 89.0126C253.296 104.813 262.806 106.968 254.655 113.919C246.503 120.87 263.127 129.183 263.127 129.183C263.127 129.183 274.603 125.59 277.221 114.54C279.839 103.49 274.887 122.989 276.548 124.387C278.209 125.785 284.658 135.001 289.221 122.748C293.784 110.495 289.266 105.745 295.295 98.5133C301.325 91.2818 305.424 79.5853 305.245 77.5406C305.065 75.496 312.142 56.8387 301.249 49.5624C290.357 42.2862 279.18 37.6108 279.18 37.6108Z" fill="#2F2E41"/>
<path d="M283.433 80.9993L276.878 104.411H312.856L301.009 75.5642L283.433 80.9993Z" fill="#A0616A"/>
<path opacity="0.1" d="M283.433 80.9993L276.878 104.411H312.856L301.009 75.5642L283.433 80.9993Z" fill="black"/>
<path d="M361.895 253.854C362.36 260.852 359.143 266.765 354.71 267.062C350.278 267.358 346.31 261.926 345.846 254.925C345.623 252.131 346.068 249.324 347.146 246.739L345.551 217.064L359.426 216.609L359.526 245.911C360.936 248.331 361.748 251.055 361.895 253.854Z" fill="#A0616A"/>
<path d="M320.115 138.107C320.115 138.107 320.883 116.282 329.148 114.942C337.414 113.602 348.59 123.451 348.59 123.451L365.664 194.514L363.059 239.166L344.372 238.106L339.987 195.801L320.115 138.107Z" fill="#6C63FF"/>
<path d="M273.965 96.6045H307.909L344.859 121.975L355.541 210.773L349.715 228.338L339.032 248.83C339.032 248.83 349.715 203.943 323.493 221.507C323.231 221.683 322.971 221.857 322.714 222.03C305.835 233.357 283.563 232.194 267.939 219.176L255.513 208.822L262.311 174.669L256.969 111.729L273.965 96.6045Z" fill="#6C63FF"/>
<path d="M189.027 207.777C183.582 212.166 176.916 212.901 174.136 209.42C171.357 205.938 173.518 199.558 178.965 195.169C181.116 193.385 183.662 192.145 186.388 191.553L209.69 173.249L218.005 184.419L194.151 201.278C192.984 203.824 191.227 206.053 189.027 207.777Z" fill="#A0616A"/>
<path d="M259.555 107.091C259.555 107.091 277.804 95.2277 283.629 101.27C289.455 107.313 287.817 122.158 287.817 122.158L239.605 176.909L201.678 200.327L191.845 184.325L223.854 156.492L259.555 107.091Z" fill="#6C63FF"/>
<path d="M291.982 86.0867C303.948 86.0867 313.649 76.3396 313.649 64.3159C313.649 52.2923 303.948 42.5452 291.982 42.5452C280.015 42.5452 270.314 52.2923 270.314 64.3159C270.314 76.3396 280.015 86.0867 291.982 86.0867Z" fill="#A0616A"/>
<path d="M281.195 49.7234C281.195 49.7234 278.003 39.0322 283.323 39.0322C288.643 39.0322 309.924 40.1013 312.052 42.2396C314.18 44.3778 339.361 65.8375 324.465 82.9434C309.568 100.049 324.465 108.314 324.465 108.314C324.465 108.314 335.46 134.183 324.82 136.322C314.18 138.46 270.535 126.234 281.195 106.386C292.764 84.8483 298.146 50.8536 281.195 49.7234Z" fill="#2F2E41"/>
<path d="M585.361 223.035L585.729 219.627L585.954 219.413C586.997 218.422 587.649 217.374 587.893 216.294C587.932 216.122 587.963 215.949 587.993 215.772C588.115 215.071 588.267 214.2 588.937 213.295C589.313 212.791 590.305 211.652 591.329 212.05C591.606 212.154 591.792 212.334 591.922 212.525C591.954 212.491 591.987 212.458 592.023 212.423C592.465 211.991 592.775 211.833 593.073 211.68C593.302 211.563 593.538 211.442 593.938 211.121C594.114 210.98 594.255 210.853 594.373 210.746C594.732 210.424 595.192 210.047 595.821 210.196C596.488 210.379 596.717 211.019 596.869 211.442C597.14 212.197 597.223 212.717 597.279 213.061C597.299 213.187 597.322 213.329 597.339 213.375C597.485 213.744 599.318 213.84 600.008 213.88C601.559 213.965 602.9 214.038 603.223 215.105C603.455 215.868 602.972 216.7 601.748 217.644C601.366 217.938 600.985 218.141 600.653 218.292C600.857 218.486 601.02 218.75 601.03 219.11C601.052 219.961 600.183 220.614 598.448 221.055C598.016 221.165 597.436 221.312 596.677 221.275C596.319 221.257 596.006 221.202 595.739 221.15C595.699 221.303 595.626 221.462 595.494 221.613C595.108 222.057 594.484 222.17 593.637 221.92C592.702 221.658 591.964 221.302 591.312 220.989C590.742 220.717 590.251 220.484 589.84 220.42C589.073 220.312 588.359 220.788 587.504 221.42L585.361 223.035Z" fill="#F2F2F2"/>
<path d="M591.476 203.622L588.102 204.129L587.838 203.965C586.621 203.202 585.446 202.835 584.344 202.871C584.169 202.876 583.994 202.891 583.816 202.906C583.111 202.965 582.234 203.039 581.193 202.617C580.612 202.38 579.263 201.704 579.387 200.608C579.417 200.313 579.543 200.086 579.694 199.912C579.653 199.888 579.613 199.864 579.57 199.839C579.042 199.519 578.811 199.258 578.589 199.007C578.418 198.814 578.242 198.615 577.831 198.308C577.65 198.173 577.493 198.068 577.36 197.98C576.958 197.713 576.479 197.362 576.463 196.712C576.47 196.017 577.028 195.633 577.397 195.378C578.055 194.923 578.534 194.71 578.851 194.569C578.967 194.518 579.098 194.459 579.138 194.431C579.457 194.195 579.084 192.389 578.947 191.708C578.636 190.18 578.366 188.857 579.311 188.273C579.987 187.855 580.91 188.112 582.13 189.063C582.51 189.359 582.801 189.678 583.032 189.963C583.167 189.715 583.379 189.49 583.723 189.389C584.537 189.151 585.386 189.83 586.25 191.405C586.466 191.797 586.754 192.323 586.911 193.071C586.985 193.423 587.011 193.741 587.029 194.014C587.187 194.014 587.358 194.044 587.537 194.134C588.063 194.397 588.33 194.974 588.303 195.861C588.288 196.836 588.133 197.645 587.997 198.357C587.879 198.98 587.779 199.516 587.822 199.933C587.913 200.705 588.552 201.279 589.378 201.949L591.476 203.622Z" fill="#F2F2F2"/>
<path d="M591.931 193.44L592.298 190.032L592.523 189.818C593.566 188.828 594.218 187.779 594.463 186.699C594.502 186.528 594.532 186.354 594.563 186.177C594.685 185.476 594.836 184.605 595.507 183.7C595.882 183.196 596.875 182.057 597.899 182.455C598.175 182.559 598.361 182.739 598.491 182.93C598.524 182.896 598.557 182.863 598.592 182.828C599.035 182.396 599.344 182.238 599.642 182.085C599.871 181.968 600.108 181.847 600.508 181.526C600.683 181.385 600.824 181.258 600.942 181.151C601.302 180.829 601.761 180.452 602.391 180.601C603.058 180.784 603.286 181.424 603.438 181.847C603.709 182.602 603.793 183.122 603.848 183.466C603.868 183.592 603.891 183.734 603.908 183.78C604.054 184.15 605.888 184.245 606.578 184.285C608.128 184.37 609.47 184.443 609.792 185.51C610.024 186.273 609.541 187.105 608.317 188.049C607.935 188.343 607.554 188.546 607.222 188.697C607.426 188.891 607.589 189.155 607.599 189.515C607.621 190.366 606.753 191.019 605.017 191.46C604.586 191.57 604.005 191.717 603.246 191.68C602.888 191.662 602.575 191.607 602.308 191.555C602.268 191.708 602.195 191.867 602.064 192.018C601.677 192.462 601.054 192.575 600.207 192.325C599.272 192.063 598.533 191.707 597.881 191.394C597.312 191.122 596.821 190.889 596.409 190.825C595.643 190.717 594.928 191.193 594.073 191.825L591.931 193.44Z" fill="#F2F2F2"/>
<path d="M585.133 181.251C585.066 181.236 584.999 181.219 584.931 181.199C583.554 180.811 582.45 179.684 581.648 177.849C581.272 176.986 581.184 176.078 581.007 174.267C580.979 173.987 580.857 172.574 581.007 170.702C581.105 169.478 581.236 168.987 581.568 168.601C581.936 168.171 582.431 167.925 582.955 167.801C582.97 167.639 583.022 167.481 583.127 167.331C583.558 166.707 584.28 166.963 584.671 167.097C584.868 167.168 585.114 167.258 585.39 167.305C585.825 167.381 586.084 167.304 586.477 167.19C586.853 167.08 587.32 166.944 587.966 166.955C589.24 166.973 590.184 167.548 590.495 167.738C592.133 168.727 592.699 170.305 593.353 172.132C593.483 172.498 593.915 173.822 594.015 175.527C594.088 176.757 593.928 177.26 593.744 177.62C593.368 178.36 592.793 178.703 591.365 179.425C589.874 180.181 589.126 180.559 588.512 180.754C587.084 181.204 586.188 181.487 585.133 181.251Z" fill="#F2F2F2"/>
<path d="M162.338 199.74L161.242 165.008C161.224 164.444 161.445 163.895 161.847 163.502C162.25 163.109 162.803 162.902 163.363 162.936L190.793 164.589C191.347 164.622 191.867 164.889 192.219 165.319C192.572 165.75 192.731 166.314 192.657 166.866L188.017 201.387C187.877 202.431 186.947 203.195 185.9 203.125L164.207 201.683C163.987 201.669 163.777 201.619 163.583 201.541C162.867 201.249 162.364 200.557 162.338 199.74Z" fill="#6C63FF"/>
<path d="M161.276 161.759C161.66 161.718 162.174 161.668 162.791 161.616C162.626 161.308 162.559 160.943 162.629 160.568L163.119 157.966C163.246 157.291 163.788 156.774 164.466 156.682C168.504 156.14 182.396 154.668 191.143 158.655C191.69 158.904 192.042 159.452 192.06 160.056L192.14 162.831C192.149 163.174 192.05 163.492 191.876 163.756C192.603 163.953 193.328 164.16 194.047 164.387C194.498 164.529 194.82 164.928 194.874 165.4L195.01 166.582C195.097 167.332 194.485 167.977 193.735 167.926L160.942 165.701C160.196 165.65 159.676 164.935 159.856 164.205L160.234 162.671C160.356 162.176 160.772 161.812 161.276 161.759Z" fill="#3F3D56"/>
<path d="M79.7891 101.183L78.6934 66.4519C78.6756 65.8881 78.8961 65.3393 79.2986 64.946C79.7013 64.5526 80.2538 64.3463 80.8145 64.38L108.244 66.033C108.798 66.0661 109.318 66.3324 109.67 66.7632C110.023 67.1938 110.183 67.7577 110.108 68.3102L105.468 102.831C105.328 103.875 104.398 104.638 103.352 104.569L81.6582 103.127C81.4381 103.113 81.2285 103.063 81.0344 102.984C80.318 102.693 79.815 102.001 79.7891 101.183Z" fill="#6C63FF"/>
<path d="M78.7275 63.2027C79.1112 63.1621 79.6253 63.1121 80.2424 63.0601C80.0774 62.7514 80.0099 62.3864 80.0805 62.0117L80.5703 59.4101C80.6974 58.735 81.2388 58.2173 81.9167 58.1263C85.9554 57.5836 99.8468 56.1114 108.594 60.0988C109.141 60.3483 109.493 60.8961 109.511 61.4996L109.591 64.2751C109.601 64.6183 109.501 64.9363 109.327 65.2C110.055 65.3965 110.779 65.6043 111.498 65.8308C111.949 65.9728 112.271 66.3723 112.326 66.8436L112.462 68.0258C112.548 68.776 111.936 69.421 111.186 69.3701L78.3935 67.1449C77.6473 67.0943 77.1276 66.3787 77.3071 65.6492L77.685 64.1144C77.8067 63.6199 78.2234 63.256 78.7275 63.2027Z" fill="#3F3D56"/>
<path d="M510.011 208.522L508.915 173.79C508.897 173.226 509.118 172.678 509.52 172.284C509.923 171.891 510.475 171.685 511.036 171.718L538.466 173.371C539.02 173.405 539.54 173.671 539.892 174.102C540.245 174.532 540.404 175.096 540.33 175.649L535.69 210.169C535.549 211.213 534.62 211.977 533.573 211.907L511.88 210.466C511.66 210.451 511.45 210.402 511.256 210.323C510.54 210.032 510.037 209.34 510.011 208.522Z" fill="#6C63FF"/>
<path d="M508.949 170.541C509.333 170.5 509.847 170.451 510.464 170.398C510.299 170.09 510.232 169.725 510.302 169.35L510.792 166.749C510.919 166.073 511.46 165.556 512.138 165.465C516.177 164.922 530.068 163.45 538.816 167.437C539.363 167.687 539.715 168.234 539.732 168.838L539.812 171.613C539.822 171.957 539.723 172.275 539.549 172.538C540.276 172.735 541.001 172.943 541.72 173.169C542.171 173.311 542.493 173.711 542.547 174.182L542.683 175.364C542.769 176.114 542.157 176.759 541.408 176.708L508.615 174.483C507.869 174.433 507.349 173.717 507.529 172.988L507.907 171.453C508.028 170.958 508.445 170.594 508.949 170.541Z" fill="#3F3D56"/>
<defs>
<linearGradient id="paint0_linear_94_2127" x1="131.307" y1="291.759" x2="520.048" y2="291.759" gradientUnits="userSpaceOnUse">
<stop stop-color="#2E2D3E"/>
<stop offset="1" stop-color="#4B4A69"/>
</linearGradient>
</defs>
</svg>
