<svg width="49" height="34" viewBox="0 0 49 34" fill="none" xmlns="http://www.w3.org/2000/svg">
<path d="M44.6649 0.0809041C45.2779 0.16855 45.7596 0.475312 46.1099 1.00119C46.5478 1.43942 46.7668 1.9653 46.7668 2.57882V6.25997C46.7668 7.13643 46.4602 7.8376 45.8472 8.36347C45.3217 8.8017 44.6211 9.02082 43.7453 9.02082C41.4683 8.84553 39.7167 9.15229 38.4906 9.9411C37.3521 10.7299 36.6077 12.0008 36.2574 13.7537C36.2574 14.6302 36.6515 14.8931 37.4397 14.5425C38.403 14.0167 39.454 13.7537 40.5925 13.7537C42.7819 13.7537 44.7087 14.5864 46.3727 16.2516C48.1242 17.9169 49 20.1081 49 22.8251C49 26.068 47.9053 28.7412 45.7158 30.8447C43.5264 32.9482 40.9428 34 37.9651 34C33.9366 34 30.8275 32.6415 28.6381 29.9244C26.5362 27.2074 25.4853 23.8769 25.4853 19.9328C25.4853 16.5146 26.2297 13.2278 27.7185 10.0726C29.2949 6.82967 31.5282 4.28793 34.4182 2.44735C37.3959 0.519135 40.8114 -0.26968 44.6649 0.0809041ZM10.7721 13.7537C10.7721 14.6302 11.1662 14.8931 11.9544 14.5425C12.9178 14.0167 13.9687 13.7537 15.1072 13.7537C17.2967 13.7537 19.2234 14.5864 20.8874 16.2516C22.639 17.9169 23.5147 20.1081 23.5147 22.8251C23.5147 26.068 22.42 28.7412 20.2306 30.8447C18.0411 32.9482 15.4576 34 12.4799 34C8.45129 34 5.34227 32.6415 3.15282 29.9244C1.05094 27.2074 0 23.8769 0 19.9328C0 16.5146 0.744415 13.2278 2.23324 10.0726C3.80965 6.82967 6.04289 4.28793 8.93297 2.44735C11.9106 0.519135 15.3262 -0.26968 19.1796 0.0809041C19.7927 0.16855 20.2744 0.475312 20.6247 1.00119C21.0626 1.43942 21.2815 1.9653 21.2815 2.57882V6.25997C21.2815 7.13643 20.975 7.8376 20.3619 8.36347C19.8365 8.8017 19.1358 9.02082 18.2601 9.02082C15.983 8.84553 14.2315 9.15229 13.0054 9.9411C11.8668 10.7299 11.1224 12.0008 10.7721 13.7537Z" fill="#AAAFC5"/>
</svg>
