<svg width="24" height="23" viewBox="0 0 24 23" fill="none" xmlns="http://www.w3.org/2000/svg">
<path d="M14.9441 2.62685L14.944 2.62723L14.3205 5.86847C14.3205 5.86857 14.3205 5.86867 14.3205 5.8688L14.1568 5.8374L14.9441 2.62685ZM14.9441 2.62685C14.9871 2.40066 14.9325 2.20306 14.8141 2.05443L14.9441 2.62685ZM14.9441 2.62685L14.8141 2.05443L14.9441 2.62685ZM15.3394 15.4333L15.119 16.2774L11.8104 15.4376L11.81 15.4375C11.5863 15.3813 11.385 15.4216 11.2279 15.5278C11.0742 15.6318 10.9729 15.7918 10.9292 15.9609C10.8854 16.13 10.8965 16.3189 10.9814 16.4836C11.0683 16.6521 11.2262 16.7828 11.45 16.8391L14.7537 17.6777L14.5972 18.2773L11.2886 17.4375L11.2882 17.4374C11.0645 17.3811 10.8632 17.4215 10.7061 17.5277C10.5524 17.6317 10.4511 17.7916 10.4074 17.9608C10.3636 18.1299 10.3746 18.3187 10.4595 18.4834C10.5462 18.6518 10.704 18.7826 10.9277 18.8389L15.3394 15.4333ZM15.3394 15.4333L14.6598 15.2608C13.3299 14.9232 11.9999 14.5856 10.67 14.2478L10.7111 14.0863L10.6705 14.2479C10.2806 14.1501 10.0419 13.7571 10.1422 13.3679L10.1423 13.3674L10.5616 11.7619L9.53596 11.5016L9.11702 13.1066C9.11702 13.1065 9.11702 13.1066 9.11702 13.1066C9.01652 13.495 8.61766 13.7262 8.22879 13.6283L8.22846 13.6282L7.23752 13.3767L5.90956 18.4653L14.0115 20.5217M15.3394 15.4333L14.2319 19.6776L15.3394 15.4333ZM14.2319 19.6776L14.0115 20.5217L14.2319 19.6776ZM14.2319 19.6776L14.3934 19.7186L14.1309 20.7239M14.2319 19.6776L14.274 19.5163L14.1309 20.7239M14.0115 20.5217L13.9697 20.6818L14.1309 20.7239M14.0115 20.5217L14.1719 20.5624L14.1309 20.7239M14.8141 2.05443C14.6986 1.90936 14.5303 1.82059 14.3576 1.78873L14.8141 2.05443ZM14.8141 2.05443L14.3576 1.78873L14.8141 2.05443ZM14.3576 1.78873C14.1849 1.75686 13.9959 1.7797 13.8356 1.87336L14.3576 1.78873ZM14.3576 1.78873L13.8356 1.87336L14.3576 1.78873ZM13.8356 1.87336C13.6716 1.9692 13.5484 2.13323 13.5053 2.35918L13.8356 1.87336ZM6.89262 11.796L6.89229 11.7959C6.50342 11.698 6.10449 11.9292 6.00406 12.3174L4.31079 18.8063L4.31072 18.8066C4.21002 19.1957 4.44896 19.5887 4.83859 19.6867L14.3564 22.1026L14.3569 22.1027C14.7456 22.2002 15.1445 21.9692 15.245 21.5809L15.3991 20.9903C15.6878 21.2084 16.1019 21.1852 16.3636 20.923L23.2539 14.0112C23.5384 13.726 23.5345 13.2663 23.2455 12.9858L18.4004 8.28837C18.4004 8.28837 18.4005 8.2884 18.4004 8.28837C18.1126 8.0091 17.6504 8.0129 17.3672 8.2967L16.6511 9.01517L15.4506 7.8511C15.1628 7.57177 14.7006 7.5756 14.4174 7.85973L12.6497 9.63277C12.3656 9.9178 12.369 10.3777 12.6586 10.658L13.856 11.8189L12.468 13.2112L11.7413 13.0267L12.1604 11.4209L12.1604 11.4205C12.2611 11.0314 12.0222 10.6385 11.6323 10.5404L9.19102 9.92093L9.19069 9.92087C8.80189 9.823 8.40302 10.054 8.30249 10.4422C8.30249 10.4421 8.30249 10.4422 8.30249 10.4422L7.88352 12.0476L6.89262 11.796ZM16.4933 6.2443L18.7601 4.45567C18.7601 4.45567 18.7602 4.45563 18.7601 4.45567C18.9408 4.3132 19.0303 4.12927 19.039 3.9401C19.0475 3.75537 18.9785 3.57917 18.8686 3.4434C18.7585 3.3076 18.6002 3.20333 18.4176 3.17103C18.2309 3.13803 18.0307 3.18257 17.85 3.3249L15.5831 5.11353C15.4023 5.25597 15.3129 5.4399 15.3042 5.62907C15.2958 5.8138 15.3647 5.99 15.4747 6.12577C15.5847 6.26157 15.743 6.36583 15.9256 6.39813C16.1123 6.43117 16.3126 6.38663 16.4933 6.2443ZM12.882 5.60057L12.8819 5.60093L13.5053 2.35955L12.882 5.60057ZM3.15266 14.7738C3.37987 14.8158 3.57879 14.7627 3.72889 14.6465C3.87582 14.5328 3.96656 14.3663 3.99922 14.1945C4.03186 14.0227 4.00846 13.8347 3.91289 13.6756C3.81519 13.5129 3.64896 13.3923 3.42172 13.3503L1.32502 12.9593C1.09787 12.9173 0.899008 12.9704 0.748931 13.0866C0.602061 13.2004 0.511351 13.3668 0.478718 13.5386C0.446088 13.7104 0.469501 13.8984 0.565065 14.0575C0.662775 14.2202 0.829005 14.3408 1.05623 14.3828L3.15266 14.7738ZM3.16488 12.0396C3.35797 12.1666 3.56212 12.1941 3.74596 12.1452C3.92589 12.0973 4.07519 11.9795 4.17342 11.8342C4.27162 11.6889 4.32509 11.5067 4.30042 11.3227C4.27516 11.1343 4.16966 10.9582 3.97652 10.8312L1.93642 9.48983C1.74338 9.3629 1.53926 9.33537 1.35541 9.3843C1.17551 9.4322 1.02622 9.55007 0.927981 9.6954C0.829778 9.84067 0.776268 10.0229 0.800918 10.2069C0.826155 10.3952 0.931658 10.5714 1.12484 10.6983L3.16488 12.0396ZM7.29299 4.41723L6.66786 5.13703L6.11429 4.60423C5.94789 4.44467 5.75219 4.38067 5.56276 4.39553C5.37742 4.4101 5.20936 4.49877 5.08632 4.62353C4.96332 4.74827 4.87729 4.91733 4.86759 5.1024C4.85769 5.29193 4.92886 5.4841 5.09529 5.64373C5.09526 5.6437 5.09532 5.64373 5.09529 5.64373L6.25689 6.76133C6.58542 7.0763 7.10722 7.01663 7.36636 6.65673L8.48886 5.25273L8.49246 5.24823L8.49576 5.2435C8.62682 5.05403 8.65752 4.8515 8.60942 4.66783C8.56249 4.4886 8.44409 4.34013 8.29862 4.24227C8.15312 4.14433 7.97072 4.09037 7.78622 4.11237C7.60016 4.13457 7.42349 4.23297 7.29299 4.41723ZM14.2074 10.1323L14.9471 9.3902L16.1475 10.5543C16.4356 10.8335 16.8975 10.8298 17.1808 10.5456L17.8968 9.82747L21.6966 13.5114L15.834 19.3922L15.8198 19.3784C16.0021 18.6797 16.1844 17.981 16.3667 17.2824C16.5572 16.5523 16.7477 15.8223 16.9382 15.0923L16.9383 15.092C17.039 14.7029 16.8001 14.31 16.4105 14.2119C16.4105 14.2119 16.4106 14.2119 16.4105 14.2119L14.1085 13.6276L15.4134 12.3187C15.6979 12.0335 15.6939 11.5737 15.4049 11.2933L14.2074 10.1323ZM11.2182 5.3714C11.2182 3.0239 9.28942 1.125 6.91476 1.125C4.54009 1.125 2.61126 3.0239 2.61126 5.3714C2.61126 7.7189 4.54009 9.6178 6.91476 9.6178C9.28942 9.6178 11.2182 7.7189 11.2182 5.3714ZM4.07776 5.3714C4.07776 3.8295 5.34559 2.57584 6.91476 2.57584C8.48366 2.57584 9.75176 3.8295 9.75176 5.3714C9.75176 6.91303 8.48366 8.16697 6.91476 8.16697C5.34586 8.16697 4.07776 6.91303 4.07776 5.3714Z" fill="#FF6301"/>
<path d="M14.9441 2.62685L14.944 2.62723L14.3205 5.86847C14.3205 5.86857 14.3205 5.86867 14.3205 5.8688L14.1568 5.8374L14.9441 2.62685ZM14.9441 2.62685C14.9871 2.40066 14.9325 2.20306 14.8141 2.05443M14.9441 2.62685L14.8141 2.05443M14.8141 2.05443C14.6986 1.90936 14.5303 1.82059 14.3576 1.78873M14.8141 2.05443L14.3576 1.78873M15.3394 15.4333L15.119 16.2774L11.8104 15.4376L11.81 15.4375C11.5863 15.3813 11.385 15.4216 11.2279 15.5278C11.0742 15.6318 10.9729 15.7918 10.9292 15.9609C10.8854 16.13 10.8965 16.3189 10.9814 16.4836C11.0683 16.6521 11.2262 16.7828 11.45 16.8391L14.7537 17.6777L14.5972 18.2773L11.2886 17.4375L11.2882 17.4374C11.0645 17.3811 10.8632 17.4215 10.7061 17.5277C10.5524 17.6317 10.4511 17.7916 10.4074 17.9608C10.3636 18.1299 10.3746 18.3187 10.4595 18.4834C10.5462 18.6518 10.704 18.7826 10.9277 18.8389M15.3394 15.4333L10.9277 18.8389M15.3394 15.4333L14.6598 15.2608C13.3299 14.9232 11.9999 14.5856 10.67 14.2478L10.7111 14.0863L10.6705 14.2479C10.2806 14.1501 10.0419 13.7571 10.1422 13.3679L10.1423 13.3674L10.5616 11.7619L9.53596 11.5016L9.11702 13.1066M15.3394 15.4333L14.2319 19.6776M10.9277 18.8389L10.9686 18.6774M9.11702 13.1066C9.11702 13.1066 9.11702 13.1065 9.11702 13.1066ZM9.11702 13.1066C9.01652 13.495 8.61766 13.7262 8.22879 13.6283L8.22846 13.6282L7.23752 13.3767L5.90956 18.4653L14.0115 20.5217M14.0115 20.5217L14.2319 19.6776M14.0115 20.5217L13.9697 20.6818L14.1309 20.7239M14.0115 20.5217L14.1719 20.5624L14.1309 20.7239M14.2319 19.6776L14.3934 19.7186L14.1309 20.7239M14.2319 19.6776L14.274 19.5163L14.1309 20.7239M14.3576 1.78873C14.1849 1.75686 13.9959 1.7797 13.8356 1.87336M14.3576 1.78873L13.8356 1.87336M13.8356 1.87336C13.6716 1.9692 13.5484 2.13323 13.5053 2.35918L13.8356 1.87336ZM18.4004 8.28837L23.2455 12.9858C23.5345 13.2663 23.5384 13.726 23.2539 14.0112L16.3636 20.923C16.1019 21.1852 15.6878 21.2084 15.3991 20.9903L15.245 21.5809C15.1445 21.9692 14.7456 22.2002 14.3569 22.1027L14.3564 22.1026L4.83859 19.6867C4.44896 19.5887 4.21002 19.1957 4.31072 18.8066L4.31079 18.8063L6.00406 12.3174C6.10449 11.9292 6.50342 11.698 6.89229 11.7959L6.89262 11.796L7.88352 12.0476L8.30249 10.4422M18.4004 8.28837C18.4004 8.28837 18.4005 8.2884 18.4004 8.28837ZM18.4004 8.28837C18.1126 8.0091 17.6504 8.0129 17.3672 8.2967L16.6511 9.01517L15.4506 7.8511C15.1628 7.57177 14.7006 7.5756 14.4174 7.85973L12.6497 9.63277C12.3656 9.9178 12.369 10.3777 12.6586 10.658L13.856 11.8189L12.468 13.2112L11.7413 13.0267L12.1604 11.4209L12.1604 11.4205C12.2611 11.0314 12.0222 10.6385 11.6323 10.5404L9.19102 9.92093L9.19069 9.92087C8.80189 9.823 8.40302 10.054 8.30249 10.4422M8.30249 10.4422C8.30249 10.4422 8.30249 10.4421 8.30249 10.4422ZM18.7601 4.45567L16.4933 6.2443C16.3126 6.38663 16.1123 6.43117 15.9256 6.39813C15.743 6.36583 15.5847 6.26157 15.4747 6.12577C15.3647 5.99 15.2958 5.8138 15.3042 5.62907C15.3129 5.4399 15.4023 5.25597 15.5831 5.11353L17.85 3.3249C18.0307 3.18257 18.2309 3.13803 18.4176 3.17103C18.6002 3.20333 18.7585 3.3076 18.8686 3.4434C18.9785 3.57917 19.0475 3.75537 19.039 3.9401C19.0303 4.12927 18.9408 4.3132 18.7601 4.45567ZM18.7601 4.45567C18.7602 4.45563 18.7601 4.45567 18.7601 4.45567ZM5.09529 5.64373C4.92886 5.4841 4.85769 5.29193 4.86759 5.1024C4.87729 4.91733 4.96332 4.74827 5.08632 4.62353C5.20936 4.49877 5.37742 4.4101 5.56276 4.39553C5.75219 4.38067 5.94789 4.44467 6.11429 4.60423L6.66786 5.13703L7.29299 4.41723C7.42349 4.23297 7.60016 4.13457 7.78622 4.11237C7.97072 4.09037 8.15312 4.14433 8.29862 4.24227C8.44409 4.34013 8.56249 4.4886 8.60942 4.66783C8.65752 4.8515 8.62682 5.05403 8.49576 5.2435L8.49246 5.24823L8.48886 5.25273L7.36636 6.65673C7.10722 7.01663 6.58542 7.0763 6.25689 6.76133L5.09529 5.64373ZM5.09529 5.64373C5.09532 5.64373 5.09526 5.6437 5.09529 5.64373ZM16.4105 14.2119C16.8001 14.31 17.039 14.7029 16.9383 15.092L16.9382 15.0923C16.7477 15.8223 16.5572 16.5523 16.3667 17.2824C16.1844 17.981 16.0021 18.6797 15.8198 19.3784L15.834 19.3922L21.6966 13.5114L17.8968 9.82747L17.1808 10.5456C16.8975 10.8298 16.4356 10.8335 16.1475 10.5543L14.9471 9.3902L14.2074 10.1323L15.4049 11.2933C15.6939 11.5737 15.6979 12.0335 15.4134 12.3187L14.1085 13.6276L16.4105 14.2119ZM16.4105 14.2119C16.4105 14.2119 16.4106 14.2119 16.4105 14.2119ZM12.882 5.60057L12.8819 5.60093L13.5053 2.35955L12.882 5.60057ZM3.15266 14.7738C3.37987 14.8158 3.57879 14.7627 3.72889 14.6465C3.87582 14.5328 3.96656 14.3663 3.99922 14.1945C4.03186 14.0227 4.00846 13.8347 3.91289 13.6756C3.81519 13.5129 3.64896 13.3923 3.42172 13.3503L1.32502 12.9593C1.09787 12.9173 0.899008 12.9704 0.748931 13.0866C0.602061 13.2004 0.511351 13.3668 0.478718 13.5386C0.446088 13.7104 0.469501 13.8984 0.565065 14.0575C0.662775 14.2202 0.829005 14.3408 1.05623 14.3828L3.15266 14.7738ZM3.16488 12.0396C3.35797 12.1666 3.56212 12.1941 3.74596 12.1452C3.92589 12.0973 4.07519 11.9795 4.17342 11.8342C4.27162 11.6889 4.32509 11.5067 4.30042 11.3227C4.27516 11.1343 4.16966 10.9582 3.97652 10.8312L1.93642 9.48983C1.74338 9.3629 1.53926 9.33537 1.35541 9.3843C1.17551 9.4322 1.02622 9.55007 0.927981 9.6954C0.829778 9.84067 0.776268 10.0229 0.800918 10.2069C0.826155 10.3952 0.931658 10.5714 1.12484 10.6983L3.16488 12.0396ZM11.2182 5.3714C11.2182 3.0239 9.28942 1.125 6.91476 1.125C4.54009 1.125 2.61126 3.0239 2.61126 5.3714C2.61126 7.7189 4.54009 9.6178 6.91476 9.6178C9.28942 9.6178 11.2182 7.7189 11.2182 5.3714ZM4.07776 5.3714C4.07776 3.8295 5.34559 2.57584 6.91476 2.57584C8.48366 2.57584 9.75176 3.8295 9.75176 5.3714C9.75176 6.91303 8.48366 8.16697 6.91476 8.16697C5.34586 8.16697 4.07776 6.91303 4.07776 5.3714Z" stroke="#FF6301" stroke-width="0.333333"/>
</svg>
