<svg width="43" height="38" viewBox="0 0 43 38" fill="none" xmlns="http://www.w3.org/2000/svg">
<path fill-rule="evenodd" clip-rule="evenodd" d="M42.9942 15.0187L43 22.906C42.9428 23.6575 42.8692 24.408 42.779 25.1571C42.6282 26.4098 41.5799 27.4203 40.2636 27.5632C36.1407 28.0109 31.8743 28.0109 27.7514 27.5632C26.4351 27.4203 25.3869 26.4098 25.236 25.1571C24.7435 21.0663 24.7435 16.9337 25.236 12.8429C25.3869 11.5902 26.4351 10.5797 27.7514 10.4367C31.8743 9.98909 36.1407 9.98909 40.2636 10.4367C41.5799 10.5797 42.6282 11.5902 42.779 12.8429C42.8662 13.567 42.9379 14.2924 42.9942 15.0187ZM34.0075 15.7343C32.151 15.7343 30.646 17.1964 30.646 19C30.646 20.8036 32.151 22.2657 34.0075 22.2657C35.864 22.2657 37.369 20.8036 37.369 19C37.369 17.1964 35.864 15.7343 34.0075 15.7343Z" fill="#FF6301"/>
<path d="M41.6349 6.02384C41.9834 6.61005 41.3294 7.26648 40.637 7.19129C36.266 6.71669 31.7491 6.71669 27.3781 7.19129C24.5335 7.50016 22.2329 9.67626 21.8973 12.4635C21.3745 16.8064 21.3745 21.1936 21.8973 25.5365C22.2329 28.3237 24.5335 30.4998 27.3781 30.8087C31.7491 31.2833 36.266 31.2833 40.637 30.8087C41.334 30.733 41.9933 31.394 41.6415 31.9835C39.8967 34.907 36.786 36.9473 33.1712 37.3169L31.7104 37.4662C24.2908 38.2247 16.8072 38.1747 9.39905 37.3171L8.43107 37.205C4.43736 36.7427 1.27297 33.7114 0.741028 29.8384C-0.24701 22.6447 -0.24701 15.3553 0.741029 8.16161C1.27297 4.28861 4.43736 1.25731 8.43107 0.794971L9.39904 0.682911C16.8072 -0.174706 24.2908 -0.224725 31.7104 0.533787L33.1712 0.683127C36.789 1.05298 39.8949 3.09643 41.6349 6.02384Z" fill="#FF6301"/>
</svg>
