<svg width="13" height="13" viewBox="0 0 13 13" fill="none" xmlns="http://www.w3.org/2000/svg">
<path d="M10.3685 0.966166L11.4722 0.966166C11.9396 0.966166 12.3174 1.34403 12.315 1.80889L12.3174 11.4717C12.3174 11.939 11.9396 12.3169 11.4747 12.3144L1.80945 12.3144C1.3421 12.3144 0.964235 11.9365 0.966721 11.4717L0.966721 10.3679C0.966721 9.8956 1.35701 9.51525 1.82934 9.5252L7.67871 9.66689L0.53417 2.52235C0.203543 2.19173 0.203543 1.65974 0.53417 1.32911L1.32967 0.533615C1.66029 0.202988 2.19228 0.202988 2.52291 0.533615L9.66745 7.67816L9.52575 1.82878C9.51332 1.35397 9.89367 0.96368 10.3685 0.966166Z" fill="white"/>
</svg>
