<svg width="32" height="32" viewBox="0 0 32 32" fill="none" xmlns="http://www.w3.org/2000/svg">
<g clip-path="url(#clip0_37_84)">
<path d="M0 7C0 3.13401 3.13401 0 7 0H25C28.866 0 32 3.13401 32 7V25C32 28.866 28.866 32 25 32H7C3.13401 32 0 28.866 0 25V7Z" fill="url(#paint0_linear_37_84)" fill-opacity="0.1"/>
<path d="M23 9.5C23 10.8807 19.866 12 16 12C12.134 12 9 10.8807 9 9.5M23 9.5C23 8.11929 19.866 7 16 7C12.134 7 9 8.11929 9 9.5M23 9.5V21.5C23 22.8807 19.866 24 16 24C12.134 24 9 22.8807 9 21.5V9.5M23 13.5C23 14.8807 19.866 16 16 16C12.134 16 9 14.8807 9 13.5M23 17.5C23 18.8807 19.866 20 16 20C12.134 20 9 18.8807 9 17.5" stroke="#FF6301" stroke-width="2"/>
</g>
<defs>
<linearGradient id="paint0_linear_37_84" x1="16" y1="0" x2="16" y2="32" gradientUnits="userSpaceOnUse">
<stop stop-color="white"/>
<stop offset="1" stop-color="#999999"/>
</linearGradient>
<clipPath id="clip0_37_84">
<path d="M0 7C0 3.13401 3.13401 0 7 0H25C28.866 0 32 3.13401 32 7V25C32 28.866 28.866 32 25 32H7C3.13401 32 0 28.866 0 25V7Z" fill="white"/>
</clipPath>
</defs>
</svg>
