<svg width="32" height="33" viewBox="0 0 32 33" fill="none" xmlns="http://www.w3.org/2000/svg">
<g clip-path="url(#clip0_37_102)">
<g clip-path="url(#clip1_37_102)">
<path d="M0 7.5C0 3.63401 3.13401 0.5 7 0.5H25C28.866 0.5 32 3.63401 32 7.5V25.5C32 29.366 28.866 32.5 25 32.5H7C3.13401 32.5 0 29.366 0 25.5V7.5Z" fill="url(#paint0_linear_37_102)" fill-opacity="0.1"/>
<path fill-rule="evenodd" clip-rule="evenodd" d="M9.61769 8.57289C9.64741 8.51373 9.67396 8.45265 9.69713 8.38989C9.71684 8.33648 9.73411 8.28184 9.7488 8.22612L10.1423 6.73312L10.1682 6.63518C10.215 6.45755 10.4671 6.45755 10.5139 6.63518L10.5398 6.73312L10.9333 8.22612C10.948 8.28184 10.9652 8.33648 10.985 8.38989C11.0081 8.45266 11.0347 8.51373 11.0644 8.57289C11.1213 8.68623 11.1898 8.79256 11.2685 8.89038C11.3495 8.99124 11.4413 9.08304 11.5422 9.16411C11.64 9.24273 11.7463 9.31126 11.8597 9.36818C11.9188 9.39789 11.9799 9.42445 12.0427 9.44762C12.0961 9.46733 12.1507 9.4846 12.2065 9.49929L13.6995 9.89283L13.7974 9.91864C13.975 9.96547 13.975 10.2176 13.7974 10.2644L13.6995 10.2902L12.2065 10.6838C12.1507 10.6985 12.0961 10.7157 12.0427 10.7355C11.9799 10.7586 11.9189 10.7852 11.8597 10.8149C11.7463 10.8718 11.64 10.9403 11.5422 11.019C11.4413 11.1 11.3495 11.1918 11.2685 11.2927C11.1899 11.3905 11.1213 11.4968 11.0644 11.6102C11.0347 11.6693 11.0081 11.7304 10.985 11.7932C10.9652 11.8466 10.948 11.9012 10.9333 11.9569L10.5398 13.4499L10.5139 13.5479C10.4671 13.7255 10.215 13.7255 10.1682 13.5479L10.1423 13.4499L9.7488 11.9569C9.73411 11.9012 9.71684 11.8466 9.69713 11.7932C9.67396 11.7304 9.64741 11.6693 9.61769 11.6102C9.56077 11.4968 9.49224 11.3905 9.41362 11.2927C9.33255 11.1918 9.24075 11.1 9.13989 11.019C9.04208 10.9403 8.93574 10.8718 8.82241 10.8149C8.76324 10.7852 8.70217 10.7586 8.6394 10.7355C8.58599 10.7157 8.53136 10.6985 8.47563 10.6838L6.98264 10.2902L6.88469 10.2644C6.70706 10.2176 6.70706 9.96547 6.88469 9.91864L6.98264 9.89283L8.47563 9.49929C8.53136 9.4846 8.58599 9.46733 8.6394 9.44762C8.70217 9.42444 8.76324 9.39789 8.82241 9.36818C8.93574 9.31126 9.04208 9.24273 9.13989 9.16411C9.24075 9.08304 9.33255 8.99124 9.41363 8.89038C9.49224 8.79257 9.56077 8.68623 9.61769 8.57289ZM14.8553 16.0727L14.3681 15.2128L13.68 13.9983L13.5744 13.8118C13.3956 13.4962 13.7461 13.1456 14.0618 13.3244L14.2482 13.4301L15.4628 14.1182L16.3226 14.6053L18.2278 15.6847C19.1026 16.1803 20.1733 16.1803 21.0481 15.6847L22.9532 14.6053L23.8131 14.1182L25.0276 13.4301L25.2141 13.3244C25.5297 13.1456 25.8803 13.4962 25.7015 13.8118L25.5958 13.9983L24.9077 15.2128L24.4206 16.0727L23.3412 17.9778C22.8456 18.8526 22.8456 19.9234 23.3412 20.7981L24.4206 22.7033L24.9077 23.5631L25.5958 24.7777L25.7015 24.9641C25.8803 25.2798 25.5297 25.6304 25.2141 25.4515L25.0276 25.3459L23.8131 24.6578L22.9532 24.1706L21.0481 23.0913C20.1733 22.5957 19.1026 22.5957 18.2278 23.0913L16.3226 24.1706L15.4628 24.6578L14.2482 25.3459L14.0618 25.4515C13.7461 25.6304 13.3956 25.2798 13.5744 24.9641L13.68 24.7777L14.3681 23.5631L14.8553 22.7033L15.9346 20.7981C16.4302 19.9234 16.4302 18.8526 15.9346 17.9778L14.8553 16.0727ZM18.0343 20.9916C18.397 19.9539 18.397 18.8221 18.0343 17.7844C19.072 18.1471 20.2038 18.1471 21.2415 17.7844C20.8788 18.8221 20.8788 19.9539 21.2415 20.9916C20.2038 20.6289 19.072 20.6289 18.0343 20.9916Z" fill="#1F1F3A"/>
<path fill-rule="evenodd" clip-rule="evenodd" d="M9.61769 8.57289C9.64741 8.51373 9.67396 8.45265 9.69713 8.38989C9.71684 8.33648 9.73411 8.28184 9.7488 8.22612L10.1423 6.73312L10.1682 6.63518C10.215 6.45755 10.4671 6.45755 10.5139 6.63518L10.5398 6.73312L10.9333 8.22612C10.948 8.28184 10.9652 8.33648 10.985 8.38989C11.0081 8.45266 11.0347 8.51373 11.0644 8.57289C11.1213 8.68623 11.1898 8.79256 11.2685 8.89038C11.3495 8.99124 11.4413 9.08304 11.5422 9.16411C11.64 9.24273 11.7463 9.31126 11.8597 9.36818C11.9188 9.39789 11.9799 9.42445 12.0427 9.44762C12.0961 9.46733 12.1507 9.4846 12.2065 9.49929L13.6995 9.89283L13.7974 9.91864C13.975 9.96547 13.975 10.2176 13.7974 10.2644L13.6995 10.2902L12.2065 10.6838C12.1507 10.6985 12.0961 10.7157 12.0427 10.7355C11.9799 10.7586 11.9189 10.7852 11.8597 10.8149C11.7463 10.8718 11.64 10.9403 11.5422 11.019C11.4413 11.1 11.3495 11.1918 11.2685 11.2927C11.1899 11.3905 11.1213 11.4968 11.0644 11.6102C11.0347 11.6693 11.0081 11.7304 10.985 11.7932C10.9652 11.8466 10.948 11.9012 10.9333 11.9569L10.5398 13.4499L10.5139 13.5479C10.4671 13.7255 10.215 13.7255 10.1682 13.5479L10.1423 13.4499L9.7488 11.9569C9.73411 11.9012 9.71684 11.8466 9.69713 11.7932C9.67396 11.7304 9.64741 11.6693 9.61769 11.6102C9.56077 11.4968 9.49224 11.3905 9.41362 11.2927C9.33255 11.1918 9.24075 11.1 9.13989 11.019C9.04208 10.9403 8.93574 10.8718 8.82241 10.8149C8.76324 10.7852 8.70217 10.7586 8.6394 10.7355C8.58599 10.7157 8.53136 10.6985 8.47563 10.6838L6.98264 10.2902L6.88469 10.2644C6.70706 10.2176 6.70706 9.96547 6.88469 9.91864L6.98264 9.89283L8.47563 9.49929C8.53136 9.4846 8.58599 9.46733 8.6394 9.44762C8.70217 9.42444 8.76324 9.39789 8.82241 9.36818C8.93574 9.31126 9.04208 9.24273 9.13989 9.16411C9.24075 9.08304 9.33255 8.99124 9.41363 8.89038C9.49224 8.79257 9.56077 8.68623 9.61769 8.57289ZM14.8553 16.0727L14.3681 15.2128L13.68 13.9983L13.5744 13.8118C13.3956 13.4962 13.7461 13.1456 14.0618 13.3244L14.2482 13.4301L15.4628 14.1182L16.3226 14.6053L18.2278 15.6847C19.1026 16.1803 20.1733 16.1803 21.0481 15.6847L22.9532 14.6053L23.8131 14.1182L25.0276 13.4301L25.2141 13.3244C25.5297 13.1456 25.8803 13.4962 25.7015 13.8118L25.5958 13.9983L24.9077 15.2128L24.4206 16.0727L23.3412 17.9778C22.8456 18.8526 22.8456 19.9234 23.3412 20.7981L24.4206 22.7033L24.9077 23.5631L25.5958 24.7777L25.7015 24.9641C25.8803 25.2798 25.5297 25.6304 25.2141 25.4515L25.0276 25.3459L23.8131 24.6578L22.9532 24.1706L21.0481 23.0913C20.1733 22.5957 19.1026 22.5957 18.2278 23.0913L16.3226 24.1706L15.4628 24.6578L14.2482 25.3459L14.0618 25.4515C13.7461 25.6304 13.3956 25.2798 13.5744 24.9641L13.68 24.7777L14.3681 23.5631L14.8553 22.7033L15.9346 20.7981C16.4302 19.9234 16.4302 18.8526 15.9346 17.9778L14.8553 16.0727ZM18.0343 20.9916C18.397 19.9539 18.397 18.8221 18.0343 17.7844C19.072 18.1471 20.2038 18.1471 21.2415 17.7844C20.8788 18.8221 20.8788 19.9539 21.2415 20.9916C20.2038 20.6289 19.072 20.6289 18.0343 20.9916Z" fill="url(#paint1_linear_37_102)" fill-opacity="0.8"/>
</g>
</g>
<defs>
<linearGradient id="paint0_linear_37_102" x1="16" y1="0.5" x2="16" y2="32.5" gradientUnits="userSpaceOnUse">
<stop stop-color="white"/>
<stop offset="1" stop-color="#999999"/>
</linearGradient>
<linearGradient id="paint1_linear_37_102" x1="45.5" y1="31" x2="5.0012" y2="5.49809" gradientUnits="userSpaceOnUse">
<stop stop-color="#D9A4FF" stop-opacity="0.5"/>
<stop offset="1" stop-color="#D9A4FF"/>
</linearGradient>
<clipPath id="clip0_37_102">
<rect width="32" height="32" fill="white" transform="translate(0 0.5)"/>
</clipPath>
<clipPath id="clip1_37_102">
<path d="M0 7.5C0 3.63401 3.13401 0.5 7 0.5H25C28.866 0.5 32 3.63401 32 7.5V25.5C32 29.366 28.866 32.5 25 32.5H7C3.13401 32.5 0 29.366 0 25.5V7.5Z" fill="white"/>
</clipPath>
</defs>
</svg>
