<svg width="32" height="32" viewBox="0 0 32 32" fill="none" xmlns="http://www.w3.org/2000/svg">
<g clip-path="url(#clip0_37_93)">
<rect width="32" height="32" rx="7" fill="url(#paint0_linear_37_93)" fill-opacity="0.1"/>
<g clip-path="url(#clip1_37_93)">
<path d="M20.5 14L20.5 7M20.5 25L20.5 23M20.5 23C21.8807 23 23 21.8807 23 20.5C23 19.1193 21.8807 18 20.5 18C19.1193 18 18 19.1193 18 20.5C18 21.8807 19.1193 23 20.5 23ZM11.5 8L11.5 7M11.5 25L11.5 18M14 11.5C14 12.8807 12.8807 14 11.5 14C10.1193 14 9 12.8807 9 11.5C9 10.1193 10.1193 9 11.5 9C12.8807 9 14 10.1193 14 11.5Z" stroke="#AAAFC5" stroke-width="2" stroke-linecap="round" stroke-linejoin="round"/>
</g>
</g>
<defs>
<linearGradient id="paint0_linear_37_93" x1="16" y1="0" x2="16" y2="32" gradientUnits="userSpaceOnUse">
<stop stop-color="white"/>
<stop offset="1" stop-color="#999999"/>
</linearGradient>
<clipPath id="clip0_37_93">
<rect width="32" height="32" rx="7" fill="white"/>
</clipPath>
<clipPath id="clip1_37_93">
<rect width="32" height="32" fill="white"/>
</clipPath>
</defs>
</svg>
