<svg width="83" height="96" viewBox="0 0 83 96" fill="none" xmlns="http://www.w3.org/2000/svg">
<path d="M0.666667 5.5C0.666667 8.44552 3.05448 10.8333 6 10.8333C8.94552 10.8333 11.3333 8.44552 11.3333 5.5C11.3333 2.55448 8.94552 0.166667 6 0.166667C3.05448 0.166667 0.666667 2.55448 0.666667 5.5ZM38 5.5L38.7761 4.86941L38.476 4.5H38V5.5ZM77 53.5H78V53.145L77.7761 52.8694L77 53.5ZM71.6667 90C71.6667 92.9455 74.0545 95.3333 77 95.3333C79.9455 95.3333 82.3333 92.9455 82.3333 90C82.3333 87.0545 79.9455 84.6667 77 84.6667C74.0545 84.6667 71.6667 87.0545 71.6667 90ZM6 6.5H38V4.5H6V6.5ZM37.2239 6.13059L76.2239 54.1306L77.7761 52.8694L38.7761 4.86941L37.2239 6.13059ZM76 53.5V90H78V53.5H76Z" fill="#CFAAAA"/>
</svg>
