<svg width="116" height="136" viewBox="0 0 116 136" fill="none" xmlns="http://www.w3.org/2000/svg">
<path d="M110.25 125.167C107.304 125.167 104.917 127.554 104.917 130.5C104.917 133.446 107.304 135.833 110.25 135.833C113.196 135.833 115.583 133.446 115.583 130.5C115.583 127.554 113.196 125.167 110.25 125.167ZM110.25 98L111.25 98L111.25 97.6781L111.062 97.4167L110.25 98ZM43.9999 5.75L44.8122 5.16668L44.5129 4.75L43.9999 4.75L43.9999 5.75ZM5.99995 0.416662C3.05443 0.416662 0.666611 2.80448 0.666611 5.75C0.666611 8.69551 3.05443 11.0833 5.99995 11.0833C8.94546 11.0833 11.3333 8.69551 11.3333 5.75C11.3333 2.80448 8.94547 0.416663 5.99995 0.416662ZM111.25 130.5C111.25 126.302 111.25 118.177 111.25 111.101C111.25 107.564 111.25 104.288 111.25 101.897C111.25 100.702 111.25 99.7276 111.25 99.0521C111.25 98.7144 111.25 98.4513 111.25 98.2728C111.25 98.1835 111.25 98.1153 111.25 98.0694C111.25 98.0465 111.25 98.0291 111.25 98.0175C111.25 98.0117 111.25 98.0073 111.25 98.0044C111.25 98.0029 111.25 98.0018 111.25 98.0011C111.25 98.0007 111.25 98.0005 111.25 98.0003C111.25 98.0001 111.25 98 110.25 98C109.25 98 109.25 98.0001 109.25 98.0003C109.25 98.0005 109.25 98.0007 109.25 98.0011C109.25 98.0018 109.25 98.0029 109.25 98.0044C109.25 98.0073 109.25 98.0117 109.25 98.0175C109.25 98.0291 109.25 98.0465 109.25 98.0694C109.25 98.1153 109.25 98.1835 109.25 98.2728C109.25 98.4513 109.25 98.7144 109.25 99.0521C109.25 99.7276 109.25 100.702 109.25 101.897C109.25 104.288 109.25 107.564 109.25 111.101C109.25 118.177 109.25 126.302 109.25 130.5L111.25 130.5ZM111.062 97.4167L44.8122 5.16668L43.1877 6.33332L109.438 98.5833L111.062 97.4167ZM43.9999 4.75L5.99995 4.75L5.99995 6.75L43.9999 6.75L43.9999 4.75Z" fill="#CFAAAA"/>
</svg>
