<svg width="22" height="28" viewBox="0 0 22 28" fill="none" xmlns="http://www.w3.org/2000/svg">
<path d="M20 5.52941C20 7.47865 15.9706 9.05882 11 9.05882C6.02944 9.05882 2 7.47865 2 5.52941M20 5.52941C20 3.58017 15.9706 2 11 2C6.02944 2 2 3.58017 2 5.52941M20 5.52941V22.4706C20 24.4198 15.9706 26 11 26C6.02944 26 2 24.4198 2 22.4706V5.52941M20 11.1765C20 13.1257 15.9706 14.7059 11 14.7059C6.02944 14.7059 2 13.1257 2 11.1765M20 16.8235C20 18.7728 15.9706 20.3529 11 20.3529C6.02944 20.3529 2 18.7728 2 16.8235" stroke="#AC82E3" stroke-width="2.5"/>
</svg>
