<svg width="173" height="52" viewBox="0 0 173 52" fill="none" xmlns="http://www.w3.org/2000/svg">
<path d="M121.274 52H22.1242C16.1963 52 10.9109 48.2666 8.92949 42.6796L1.36417 21.3481C-2.32921 10.9341 5.39433 0 16.4439 0H156.706C166.66 0 174.198 8.99237 172.46 18.7937L168.914 38.7937C167.559 46.4333 160.918 52 153.16 52H121.274Z" fill="#222025"/>
<path d="M121.274 52H22.1242C16.1963 52 10.9109 48.2666 8.92949 42.6796L1.36417 21.3481C-2.32921 10.9341 5.39433 0 16.4439 0H156.706C166.66 0 174.198 8.99237 172.46 18.7937L168.914 38.7937C167.559 46.4333 160.918 52 153.16 52H121.274Z" fill="url(#paint0_radial_351_11868)"/>
<defs>
<radialGradient id="paint0_radial_351_11868" cx="0" cy="0" r="1" gradientUnits="userSpaceOnUse" gradientTransform="translate(170.357 41.034) rotate(-167.747) scale(160.846 142.214)">
<stop stop-color="#FF6301"/>
<stop offset="1" stop-color="#1C1001"/>
</radialGradient>
</defs>
</svg>
