<svg width="41" height="21" viewBox="0 0 41 21" fill="none" xmlns="http://www.w3.org/2000/svg">
<path fill-rule="evenodd" clip-rule="evenodd" d="M19.8746 17.8018C20.244 18.0661 20.756 18.0661 21.1254 17.8018L30.7967 10.8852C31.0678 10.6914 31.0678 10.3086 30.7967 10.1148L21.1254 3.19815C20.756 2.93395 20.244 2.93395 19.8746 3.19815L10.2033 10.1148C9.93224 10.3086 9.93224 10.6914 10.2033 10.8852L19.8746 17.8018Z" fill="#1F1F3A"/>
<path fill-rule="evenodd" clip-rule="evenodd" d="M19.8746 17.8018C20.244 18.0661 20.756 18.0661 21.1254 17.8018L30.7967 10.8852C31.0678 10.6914 31.0678 10.3086 30.7967 10.1148L21.1254 3.19815C20.756 2.93395 20.244 2.93395 19.8746 3.19815L10.2033 10.1148C9.93224 10.3086 9.93224 10.6914 10.2033 10.8852L19.8746 17.8018Z" fill="url(#paint0_diamond_1119_2589)" fill-opacity="0.8"/>
<path fill-rule="evenodd" clip-rule="evenodd" d="M30.4997 21C36.2986 21 40.9997 16.299 40.9997 10.5C40.9997 4.70101 36.2986 0 30.4997 0C27.8404 0 25.4121 0.988555 23.5621 2.61822C23.1161 3.01103 23.184 3.70422 23.6617 4.05772L31.777 10.0634C32.0739 10.2831 32.0739 10.7169 31.777 10.9366L23.6617 16.9423C23.184 17.2958 23.1161 17.989 23.5621 18.3818C25.4121 20.0114 27.8404 21 30.4997 21Z" fill="url(#paint1_radial_1119_2589)" fill-opacity="0.8"/>
<path fill-rule="evenodd" clip-rule="evenodd" d="M17.4376 2.61822C17.8835 3.01103 17.8156 3.70422 17.338 4.05772L9.22263 10.0634C8.92579 10.2831 8.92579 10.7169 9.22263 10.9366L17.338 16.9423C17.8156 17.2958 17.8835 17.989 17.4376 18.3818C15.5876 20.0114 13.1592 21 10.5 21C4.70101 21 0 16.299 0 10.5C0 4.70101 4.70101 0 10.5 0C13.1592 0 15.5876 0.988555 17.4376 2.61822Z" fill="url(#paint2_radial_1119_2589)" fill-opacity="0.8"/>
<defs>
<radialGradient id="paint0_diamond_1119_2589" cx="0" cy="0" r="1" gradientUnits="userSpaceOnUse" gradientTransform="translate(20.5 10.5) rotate(-90) scale(8.71714 11.9706)">
<stop offset="0.24" stop-color="white"/>
<stop offset="0.95" stop-color="#CCCFFC" stop-opacity="0"/>
</radialGradient>
<radialGradient id="paint1_radial_1119_2589" cx="0" cy="0" r="1" gradientUnits="userSpaceOnUse" gradientTransform="translate(32.1312 10.8789) rotate(90.0012) scale(27.1972 19.1344)">
<stop stop-color="#CCCFFC"/>
<stop offset="0.95" stop-color="#CCCFFC" stop-opacity="0"/>
</radialGradient>
<radialGradient id="paint2_radial_1119_2589" cx="0" cy="0" r="1" gradientUnits="userSpaceOnUse" gradientTransform="translate(8.86848 10.8789) rotate(90.0012) scale(27.1972 19.1344)">
<stop stop-color="#CCCFFC"/>
<stop offset="0.95" stop-color="#CCCFFC" stop-opacity="0"/>
</radialGradient>
</defs>
</svg>
