<svg width="1220" height="492" viewBox="0 0 1220 492" fill="none" xmlns="http://www.w3.org/2000/svg">
<path d="M0 24.3691V468.369C0 481.624 10.7452 492.369 24 492.369H600.059C606.424 492.369 612.529 489.841 617.029 485.34L642.471 459.899C646.971 455.398 653.076 452.869 659.441 452.869H960.059C966.424 452.869 972.529 455.398 977.029 459.899L1002.47 485.34C1006.97 489.841 1013.08 492.369 1019.44 492.369H1196C1209.25 492.369 1220 481.624 1220 468.369V83.8691C1220 70.6143 1209.25 59.8691 1196 59.8691H979.941C973.576 59.8691 967.471 57.3406 962.971 52.8397L917.529 7.39858C913.029 2.89771 906.924 0.369141 900.559 0.369141H24C10.7452 0.369141 0 11.1143 0 24.3691Z" fill="#1F1F3A"/>
<path d="M0 24.3691V468.369C0 481.624 10.7452 492.369 24 492.369H600.059C606.424 492.369 612.529 489.841 617.029 485.34L642.471 459.899C646.971 455.398 653.076 452.869 659.441 452.869H960.059C966.424 452.869 972.529 455.398 977.029 459.899L1002.47 485.34C1006.97 489.841 1013.08 492.369 1019.44 492.369H1196C1209.25 492.369 1220 481.624 1220 468.369V83.8691C1220 70.6143 1209.25 59.8691 1196 59.8691H979.941C973.576 59.8691 967.471 57.3406 962.971 52.8397L917.529 7.39858C913.029 2.89771 906.924 0.369141 900.559 0.369141H24C10.7452 0.369141 0 11.1143 0 24.3691Z" fill="url(#paint0_linear_103_3041)" fill-opacity="0.8"/>
<defs>
<linearGradient id="paint0_linear_103_3041" x1="0" y1="246.369" x2="1220" y2="246.369" gradientUnits="userSpaceOnUse">
<stop stop-opacity="0"/>
<stop offset="1" stop-color="#3C45E6"/>
</linearGradient>
</defs>
</svg>
