<svg width="40" height="40" viewBox="0 0 40 40" fill="none" xmlns="http://www.w3.org/2000/svg">
<path d="M39.9853 15.0655C39.0082 7.21452 32.7855 0.991758 24.9345 0.014747C23.746 -0.133157 22.7702 0.851972 22.7702 2.04965V16.1455C22.7702 16.7443 23.2557 17.2298 23.8545 17.2298H37.9503C39.148 17.2298 40.1332 16.254 39.9853 15.0655Z" fill="#FF6301"/>
<path d="M18.433 3.13396C8.25275 3.13396 0 11.3867 0 21.567C0 31.7473 8.25275 40 18.433 40C28.6133 40 36.8661 31.7473 36.8661 21.567C36.8661 20.9681 36.3806 20.4827 35.7818 20.4827H20.6016C20.0028 20.4827 19.5173 19.9972 19.5173 19.3984V4.21826C19.5173 3.61942 19.0319 3.13396 18.433 3.13396Z" fill="#FF6301"/>
</svg>
