<svg width="39" height="40" viewBox="0 0 39 40" fill="none" xmlns="http://www.w3.org/2000/svg">
<g clip-path="url(#clip0_800_9755)">
<g clip-path="url(#clip1_800_9755)">
<path d="M28.5661 11.5915C26.8803 10.818 25.0726 10.2481 23.1825 9.92167C23.1481 9.91541 23.1136 9.93119 23.096 9.96259C22.8635 10.3762 22.6059 10.9156 22.4255 11.3395C20.3927 11.0352 18.3702 11.0352 16.3789 11.3395C16.1985 10.9061 15.9317 10.3762 15.6981 9.96259C15.6804 9.93216 15.646 9.91647 15.6116 9.92167C13.7225 10.2471 11.9148 10.817 10.228 11.5915C10.2133 11.5978 10.2008 11.6083 10.1925 11.6219C6.76364 16.7447 5.82429 21.7415 6.28508 26.6763C6.28715 26.7004 6.30073 26.7235 6.31948 26.7382C8.58176 28.3996 10.7732 29.4082 12.9239 30.0768C12.9583 30.0873 12.9948 30.0747 13.0167 30.0463C13.5254 29.3516 13.979 28.619 14.3678 27.8486C14.3907 27.8035 14.3688 27.7499 14.3219 27.7321C13.6025 27.4593 12.9176 27.1266 12.2587 26.7488C12.2066 26.7184 12.2025 26.6438 12.2504 26.6081C12.389 26.5042 12.5278 26.3961 12.6601 26.2869C12.6841 26.267 12.7174 26.2628 12.7457 26.2753C17.0741 28.2517 21.7604 28.2517 26.0378 26.2753C26.066 26.2618 26.0994 26.266 26.1243 26.2858C26.2568 26.395 26.3955 26.5042 26.5352 26.6081C26.5831 26.6438 26.58 26.7183 26.5279 26.7487C25.869 27.1339 25.1841 27.4592 24.4637 27.731C24.4168 27.7489 24.3959 27.8034 24.4189 27.8486C24.8161 28.6179 25.2696 29.3504 25.7689 30.0452C25.7898 30.0747 25.8273 30.0873 25.8617 30.0767C28.0228 29.4082 30.2143 28.3996 32.4765 26.7381C32.4964 26.7235 32.5089 26.7014 32.511 26.6773C33.0625 20.9721 31.5873 16.0163 28.6004 11.623C28.5932 11.6083 28.5806 11.5978 28.5661 11.5915ZM15.0142 23.6714C13.7111 23.6714 12.6373 22.4751 12.6373 21.0057C12.6373 19.5364 13.6902 18.3399 15.0142 18.3399C16.3487 18.3399 17.4121 19.5469 17.3912 21.0057C17.3912 22.4751 16.3382 23.6714 15.0142 23.6714ZM23.8028 23.6714C22.4996 23.6714 21.4257 22.4751 21.4257 21.0057C21.4257 19.5364 22.4787 18.3399 23.8028 18.3399C25.1372 18.3399 26.2006 19.5469 26.1797 21.0057C26.1797 22.4751 25.1372 23.6714 23.8028 23.6714Z" fill="white"/>
</g>
</g>
<defs>
<clipPath id="clip0_800_9755">
<rect width="38.8" height="40" fill="white"/>
</clipPath>
<clipPath id="clip1_800_9755">
<rect width="38.8" height="40" fill="white"/>
</clipPath>
</defs>
</svg>
