<svg width="46" height="32" viewBox="0 0 46 32" fill="none" xmlns="http://www.w3.org/2000/svg">
<path d="M0.250061 30.2906V1.70875C0.250061 1.31211 0.448545 1.11378 0.845513 1.11378H9.18769C9.58465 1.11378 9.78314 1.31211 9.78314 1.70875V4.38612C9.78314 4.78277 9.58465 4.98109 9.18769 4.98109H4.71595C4.51747 4.98109 4.41823 5.08025 4.41823 5.27857V12.6049C4.41823 12.8032 4.51747 12.9024 4.71595 12.9024H7.54727C7.94424 12.9024 8.14272 13.1007 8.14272 13.4973V16.4722C8.14272 16.8688 7.94424 17.0671 7.54727 17.0671H4.71595C4.51747 17.0671 4.41823 17.1663 4.41823 17.3646V30.2848C4.41823 30.6815 4.21974 30.8798 3.82278 30.8798H0.845513C0.448545 30.8798 0.250061 30.6815 0.250061 30.2848V30.2906Z" fill="white"/>
<path d="M10.5128 30.705C10.4252 30.5883 10.396 30.425 10.4369 30.2267L13.6535 15.8132C13.6943 15.6966 13.6943 15.5741 13.6535 15.4574L10.4427 1.76729C10.4252 1.72646 10.4135 1.66813 10.4135 1.58646C10.4135 1.27148 10.5945 1.10815 10.9506 1.10815H14.1672C14.5233 1.10815 14.7335 1.28898 14.7918 1.64479L16.4614 10.9368C16.479 10.9952 16.5081 11.0477 16.549 11.0885C16.5899 11.1293 16.6366 11.1468 16.7008 11.1468C16.8175 11.1468 16.8993 11.0768 16.9401 10.9368L18.6097 1.64479C18.6681 1.28898 18.8783 1.10815 19.2344 1.10815H22.4802C22.6787 1.10815 22.8246 1.16648 22.9122 1.28898C22.9997 1.40564 23.0231 1.56896 22.9881 1.76729L19.7423 15.4633C19.7248 15.5799 19.7248 15.7024 19.7423 15.8191L22.9881 30.2325C23.0056 30.2733 23.0173 30.3317 23.0173 30.4133C23.0173 30.7283 22.8363 30.8916 22.4802 30.8916H19.2636C18.8841 30.8916 18.6681 30.7108 18.6097 30.355L16.9401 20.5613C16.9226 20.4213 16.8409 20.3513 16.7008 20.3513C16.5607 20.3513 16.479 20.4213 16.4614 20.5613L14.821 30.355C14.7626 30.7108 14.5408 30.8916 14.1672 30.8916H10.9506C10.7521 30.8916 10.6062 30.8333 10.5186 30.7108L10.5128 30.705Z" fill="white"/>
<path d="M33.7474 10.342C33.9926 10.342 34.1911 10.1436 34.1911 9.89865V6.2355C34.1911 4.46809 33.6424 3.06233 32.5507 2.00655C32.0954 1.56907 31.5408 1.23659 30.8986 1.0091C30.2506 0.781608 29.591 0.664948 28.9196 0.664948C27.4894 0.664948 26.2751 1.11409 25.2827 2.00655C24.191 3.09732 23.6423 4.50892 23.6423 6.2355V25.7645C23.6423 27.4911 24.191 28.9027 25.2827 29.9935C26.2751 30.8859 27.4894 31.3351 28.9196 31.3351C29.5968 31.3351 30.2565 31.2184 30.8986 30.9909C31.5408 30.7634 32.0954 30.4309 32.5507 29.9935C33.6424 28.9435 34.1911 27.5319 34.1911 25.7645V21.2672C34.1911 21.0222 33.9926 20.8239 33.7474 20.8239H30.4608C30.2156 20.8239 30.0171 21.0222 30.0171 21.2672V25.467C30.0171 26.797 29.6493 27.4619 28.9138 27.4619C28.4759 27.4619 28.1841 27.2811 28.0323 26.9253C27.8805 26.5695 27.8104 26.0795 27.8104 25.467V6.53298C27.8104 5.92051 27.8863 5.43054 28.0323 5.07472C28.1782 4.71891 28.4759 4.53808 28.9138 4.53808C29.6493 4.53808 30.0171 5.20305 30.0171 6.53298V9.89865C30.0171 10.1436 30.2156 10.342 30.4608 10.342H33.7474Z" fill="white"/>
<path d="M39.9 12.3492H36.9169C36.5881 12.3492 36.3215 12.6156 36.3215 12.9442V30.2916C36.3215 30.6202 36.5881 30.8866 36.9169 30.8866H39.9C40.2289 30.8866 40.4955 30.6202 40.4955 30.2916V12.9442C40.4955 12.6156 40.2289 12.3492 39.9 12.3492Z" fill="white"/>
<path d="M45.1544 1.11378H42.1713C41.8425 1.11378 41.5759 1.38016 41.5759 1.70875V11.8466C41.5759 12.1752 41.8425 12.4415 42.1713 12.4415H45.1544C45.4833 12.4415 45.7499 12.1752 45.7499 11.8466V1.70875C45.7499 1.38016 45.4833 1.11378 45.1544 1.11378Z" fill="#FFA114"/>
</svg>
