<svg width="90" height="75" viewBox="0 0 90 75" fill="none" xmlns="http://www.w3.org/2000/svg">
<g clip-path="url(#clip0_123_1772)">
<path d="M24.6426 30H65.3569M24.6426 30V52.0005C24.6426 54.8008 24.6426 56.2002 25.1973 57.2697C25.6852 58.2105 26.4632 58.9762 27.4208 59.4556C28.5084 60 29.9329 60 32.7776 60H57.2231C60.0678 60 61.4902 60 62.5778 59.4556C63.5354 58.9762 64.3148 58.2105 64.8027 57.2697C65.3569 56.2012 65.3569 54.8037 65.3569 52.0089V30M24.6426 30V28.0005C24.6426 25.2002 24.6426 23.7991 25.1973 22.7295C25.6852 21.7887 26.4632 21.0243 27.4208 20.545C28.5095 20 29.9357 20 32.7859 20H34.8211M65.3569 30V27.9923C65.3569 25.1975 65.3569 23.798 64.8027 22.7295C64.3148 21.7887 63.5354 21.0243 62.5778 20.545C61.4892 20 60.0648 20 57.2145 20H55.1783M34.8211 20H55.1783M34.8211 20V15M55.1783 20V15M50.089 50L44.9997 45M44.9997 45L39.9104 40M44.9997 45L50.089 40M44.9997 45L39.9104 50" stroke="#AC82E3" stroke-width="4" stroke-linecap="round" stroke-linejoin="round"/>
</g>
<defs>
<clipPath id="clip0_123_1772">
<rect width="90" height="75" fill="white"/>
</clipPath>
</defs>
</svg>
