<svg width="28" height="28" viewBox="0 0 28 28" fill="none" xmlns="http://www.w3.org/2000/svg">
<path fill-rule="evenodd" clip-rule="evenodd" d="M6.06803 1.766C6.49107 1.41096 6.54619 0.780199 6.19115 0.35716C5.8361 -0.0658799 5.20534 -0.121001 4.7823 0.234043L0.35716 3.94793C-0.0658799 4.30297 -0.121001 4.93373 0.234043 5.35677C0.589086 5.77981 1.21985 5.83493 1.64289 5.47989L6.06803 1.766ZM23.2177 0.234043C22.7947 -0.121001 22.1639 -0.0658799 21.8089 0.35716C21.4539 0.780199 21.509 1.41096 21.932 1.766L26.3572 5.47989C26.7802 5.83493 27.411 5.77981 27.766 5.35677C28.121 4.93373 28.0659 4.30297 27.6429 3.94793L23.2177 0.234043ZM13.9974 2.88891C7.06426 2.88891 1.44418 8.51042 1.44418 15.4445C1.44418 22.3785 7.06426 28 13.9974 28C20.9305 28 26.5506 22.3785 26.5506 15.4445C26.5506 8.51042 20.9305 2.88891 13.9974 2.88891ZM14.9236 9C14.9236 8.58579 14.5878 8.25 14.1736 8.25C13.7594 8.25 13.4236 8.58579 13.4236 9V9.68673C12.7766 9.77667 12.127 10.0298 11.6199 10.5124C11.0592 11.046 10.7367 11.8 10.7367 12.732C10.7367 13.2358 10.8618 13.6806 11.1009 14.0632C11.3357 14.4389 11.6564 14.7161 11.9932 14.9286C12.4207 15.1983 12.9333 15.396 13.4236 15.5611V19.3003C12.6712 19.134 12.0006 18.7054 11.6545 18.0869C11.4522 17.7255 10.9951 17.5965 10.6337 17.7988C10.2722 18.0011 10.1432 18.4581 10.3455 18.8196C10.9964 19.9825 12.2051 20.6396 13.4236 20.8232V22C13.4236 22.4142 13.7594 22.75 14.1736 22.75C14.5878 22.75 14.9236 22.4142 14.9236 22V20.8072C15.5237 20.6993 16.1044 20.4625 16.5877 20.0726C17.2165 19.5654 17.6431 18.827 17.7325 17.891C17.8407 16.7589 17.4358 15.9433 16.7434 15.3775C16.2146 14.9454 15.5369 14.6779 14.9236 14.4712V11.2959C14.9775 11.3136 15.0307 11.3328 15.0829 11.3534C15.5098 11.5225 15.8157 11.7673 15.9761 12.0232C16.1961 12.3741 16.659 12.4803 17.0099 12.2603C17.3609 12.0403 17.467 11.5774 17.247 11.2265C16.872 10.6282 16.2696 10.2101 15.6352 9.95884C15.4074 9.86862 15.1684 9.79693 14.9236 9.74522V9ZM12.6539 11.599C12.8444 11.4178 13.1068 11.2835 13.4236 11.2103V13.9667C13.1863 13.8736 12.9761 13.7751 12.7935 13.6599C12.5884 13.5305 12.4558 13.4009 12.3728 13.2681C12.2941 13.1421 12.2367 12.9768 12.2367 12.732C12.2367 12.1671 12.421 11.8207 12.6539 11.599ZM14.9236 19.2692V16.0671C15.2784 16.2073 15.5702 16.356 15.7943 16.5391C16.1014 16.79 16.2996 17.1175 16.2394 17.7483C16.1883 18.2822 15.9606 18.6513 15.6459 18.9051C15.4482 19.0646 15.2028 19.1885 14.9236 19.2692Z" fill="#AC82E3"/>
</svg>
