<svg width="26" height="28" viewBox="0 0 26 28" fill="none" xmlns="http://www.w3.org/2000/svg">
<path d="M15.0812 0.572391C13.8008 -0.190798 12.1992 -0.190797 10.9188 0.572392L9.99303 1.12423C7.74673 2.46319 5.22494 3.28483 2.6144 3.5283L2.03114 3.58269C0.879807 3.69007 0 4.64691 0 5.79168V8.7096C0 13.6417 2.02277 18.3625 5.60495 21.7905L11.4422 27.3765C12.3109 28.2078 13.6891 28.2078 14.5578 27.3765L20.395 21.7905C23.9772 18.3625 26 13.6417 26 8.7096V5.79168C26 4.64691 25.1202 3.69007 23.9689 3.58269L23.3856 3.5283C20.7751 3.28483 18.2533 2.46319 16.007 1.12423L15.0812 0.572391Z" fill="#AC82E3"/>
</svg>
