<svg width="86" height="77" viewBox="0 0 86 77" fill="none" xmlns="http://www.w3.org/2000/svg">
<path fill-rule="evenodd" clip-rule="evenodd" d="M71.5 38.5C71.5 54.2401 58.7401 67 43 67C27.2599 67 14.5 54.2401 14.5 38.5C14.5 22.7599 27.2599 10 43 10C49.6148 10 55.7032 12.2535 60.5395 16.0347V18.6934H55.4619C54.6335 18.6934 53.9619 19.365 53.9619 20.1934C53.9619 21.0218 54.6335 21.6934 55.4619 21.6934H60.5395V26.7703C60.5395 27.5987 61.211 28.2703 62.0395 28.2703C62.8679 28.2703 63.5395 27.5987 63.5395 26.7703V21.6934H66.0196C69.4657 26.4054 71.5 32.2151 71.5 38.5ZM41.7093 52.6301C42.0065 52.9528 42.3885 53.1142 42.8555 53.1142C43.3224 53.1142 43.7045 52.9528 44.0016 52.6301C44.2988 52.3289 44.4473 51.9523 44.4473 51.5005V49.2091C46.4 48.9078 47.9813 48.1871 49.1911 47.0467C50.4222 45.8849 51.0377 44.4003 51.0377 42.593C51.0377 41.0008 50.5601 39.7206 49.605 38.7524C48.6499 37.7627 47.1535 37.0419 45.1159 36.59L41.6456 35.8155C40.5207 35.5573 39.7248 35.213 39.2578 34.7827C38.7909 34.3309 38.5574 33.7392 38.5574 33.0077C38.5574 32.0179 38.9395 31.2218 39.7036 30.6194C40.4889 29.9954 41.5607 29.6835 42.9191 29.6835C43.9804 29.6835 44.8931 29.8018 45.6572 30.0385C46.4213 30.2536 47.1111 30.5441 47.7266 30.9099C48.2784 31.2326 48.756 31.3402 49.1593 31.2326C49.5838 31.1035 49.8915 30.8668 50.0826 30.5226C50.2948 30.1568 50.3691 29.7695 50.3054 29.3607C50.2417 28.9304 50.0083 28.5539 49.605 28.2311C48.9046 27.6717 48.0768 27.2307 47.1217 26.9079C46.1878 26.5852 45.2963 26.3808 44.4473 26.2947V24.0356C44.4473 23.5837 44.2881 23.2072 43.9698 22.906C43.6726 22.5832 43.3012 22.4219 42.8555 22.4219C42.3885 22.4219 42.0065 22.5832 41.7093 22.906C41.4122 23.2072 41.2636 23.5837 41.2636 24.0356V26.327C39.2048 26.5852 37.5598 27.3382 36.3288 28.5862C35.119 29.8126 34.5141 31.3294 34.5141 33.1368C34.5141 36.3856 36.4349 38.4296 40.2766 39.2688L43.6514 40.0111C44.9037 40.2908 45.7739 40.6565 46.2621 41.1084C46.7502 41.5602 46.9943 42.1411 46.9943 42.8511C46.9943 43.7118 46.6441 44.4326 45.9437 45.0135C45.2433 45.5729 44.0971 45.8526 42.5053 45.8526C41.1469 45.8526 39.9795 45.702 39.0031 45.4008C38.048 45.078 37.2733 44.7445 36.679 44.4003C36.1272 44.0775 35.6496 44.0022 35.2463 44.1744C34.8431 44.3465 34.5565 44.6477 34.3867 45.078C34.2169 45.5083 34.1851 45.9602 34.2912 46.4335C34.4186 46.9069 34.7263 47.2834 35.2145 47.5631C35.9361 47.9719 36.7957 48.3484 37.7933 48.6927C38.8121 49.0154 39.9689 49.2198 41.2636 49.3059V51.5005C41.2636 51.9523 41.4122 52.3289 41.7093 52.6301Z" fill="#AC82E3"/>
</svg>
