<svg width="86" height="77" viewBox="0 0 86 77" fill="none" xmlns="http://www.w3.org/2000/svg">
<path d="M27.5297 11.3535C37.7289 10.2155 48.2711 10.2155 58.4703 11.3535C62.2995 11.7808 65.661 13.8483 67.7874 16.8507L41.3484 43.2469L33.1903 35.102C32.2227 34.136 30.6541 34.136 29.6866 35.102C28.719 36.068 28.719 37.6341 29.6866 38.6L39.5965 48.494C40.5641 49.4599 42.1327 49.4599 43.1002 48.494L69.9082 21.7295C69.9824 22.0908 70.0417 22.4577 70.0852 22.8296C71.3049 33.2411 71.3049 43.7589 70.0852 54.1704C69.3755 60.2286 64.5034 64.9733 58.4703 65.6465C48.2711 66.7845 37.7289 66.7845 27.5297 65.6465C21.4966 64.9733 16.6245 60.2286 15.9148 54.1704C14.6951 43.7589 14.6951 33.2411 15.9148 22.8296C16.6245 16.7714 21.4966 12.0267 27.5297 11.3535Z" fill="#AC82E3"/>
</svg>
