<svg width="27" height="27" viewBox="0 0 27 27" fill="none" xmlns="http://www.w3.org/2000/svg">
<path d="M21.122 14.2703L20.1964 13.4302L20.1964 13.4302L21.122 14.2703ZM12.9924 5.96277L13.8522 6.87004L12.9924 5.96277ZM24.982 4.24101L26.2219 4.3997L24.982 4.24101ZM22.807 2.01834L22.9725 3.25733L22.9725 3.25733L22.807 2.01834ZM7.98951 16.6347L7.09612 17.509L7.09612 17.509L7.98951 16.6347ZM7.54493 14.0843L8.67194 14.625L8.67194 14.625L7.54493 14.0843ZM10.6785 19.3825L11.5719 18.5083L11.5719 18.5083L10.6785 19.3825ZM13.1744 19.8369L12.6145 18.7193L12.6145 18.7193L13.1744 19.8369ZM6.14526 20.2568C6.62811 19.7634 6.61955 18.972 6.12614 18.4892C5.63273 18.0063 4.84132 18.0149 4.35848 18.5083L6.14526 20.2568ZM1.10661 21.8313C0.623761 22.3247 0.632322 23.1161 1.12573 23.5989C1.61914 24.0818 2.41055 24.0732 2.89339 23.5798L1.10661 21.8313ZM8.58416 22.7491C9.06701 22.2557 9.05845 21.4643 8.56504 20.9814C8.07164 20.4986 7.28023 20.5071 6.79738 21.0005L8.58416 22.7491ZM5.17145 22.662C4.6886 23.1554 4.69716 23.9468 5.19057 24.4297C5.68397 24.9125 6.47538 24.904 6.95823 24.4106L5.17145 22.662ZM17.8702 20.9162L18.7636 21.7905L17.8702 20.9162ZM12.2607 23.99L13.4987 23.8169L13.4987 23.8169L12.2607 23.99ZM18.1954 19.9193L19.4334 19.7462L19.4334 19.7462L18.1954 19.9193ZM6.48865 9.28575L5.59525 8.41148L5.59525 8.41148L6.48865 9.28575ZM2.83029 13.0241L3.72368 13.8984L3.72368 13.8984L2.83029 13.0241ZM3.48067 15.0179L3.66123 13.781L3.66123 13.781L3.48067 15.0179ZM7.46421 8.95345L7.28364 10.1903L7.28364 10.1903L7.46421 8.95345ZM11.5719 18.5083L8.88291 15.7605L7.09612 17.509L9.78513 20.2568L11.5719 18.5083ZM20.1964 13.4302C18.0704 15.7726 14.5921 17.7285 12.6145 18.7193L13.7342 20.9545C15.7402 19.9495 19.586 17.8225 22.0477 15.1104L20.1964 13.4302ZM8.67194 14.625C9.64281 12.6013 11.5589 9.04359 13.8522 6.87004L12.1325 5.05551C9.47942 7.56998 7.40003 11.4965 6.41792 13.5436L8.67194 14.625ZM23.7422 4.08232C23.3935 6.80616 22.4737 10.9211 20.1964 13.4302L22.0477 15.1104C24.8842 11.9851 25.8665 7.17694 26.2219 4.3997L23.7422 4.08232ZM13.8522 6.87004C16.3008 4.54936 20.3137 3.61267 22.9725 3.25733L22.6414 0.779359C19.9168 1.14349 15.1976 2.15052 12.1325 5.05551L13.8522 6.87004ZM26.2219 4.3997C26.4906 2.30016 24.7858 0.492765 22.6414 0.779359L22.9725 3.25733C23.416 3.19807 23.8119 3.53744 23.7422 4.08232L26.2219 4.3997ZM8.88291 15.7605C8.56905 15.4397 8.4994 14.9846 8.67194 14.625L6.41792 13.5436C5.76667 14.9011 6.08669 16.4775 7.09612 17.509L8.88291 15.7605ZM9.78513 20.2568C10.7988 21.2926 12.3733 21.6362 13.7342 20.9545L12.6145 18.7193C12.2951 18.8793 11.8816 18.8247 11.5719 18.5083L9.78513 20.2568ZM4.35848 18.5083L1.10661 21.8313L2.89339 23.5798L6.14526 20.2568L4.35848 18.5083ZM6.79738 21.0005L5.17145 22.662L6.95823 24.4106L8.58416 22.7491L6.79738 21.0005ZM14.9444 7.16533C13.5709 8.56883 13.571 10.8334 14.9444 12.2369L16.7312 10.4883C16.3087 10.0566 16.3087 9.34561 16.7312 8.91387L14.9444 7.16533ZM14.9444 12.2369C16.3326 13.6555 18.5948 13.6555 19.9831 12.2369L18.1963 10.4883C17.7885 10.905 17.1389 10.905 16.7312 10.4883L14.9444 12.2369ZM19.9831 12.2369C21.3565 10.8334 21.3565 8.56882 19.9831 7.16533L18.1963 8.91387C18.6188 9.34561 18.6188 10.0566 18.1963 10.4883L19.9831 12.2369ZM19.9831 7.16533C18.5948 5.74674 16.3326 5.74674 14.9444 7.16533L16.7312 8.91387C17.1389 8.49722 17.7885 8.49722 18.1963 8.91387L19.9831 7.16533ZM16.9768 20.0419L13.3185 23.7803L15.1053 25.5289L18.7636 21.7905L16.9768 20.0419ZM13.4987 23.8169L13.0109 20.3278L10.535 20.6739L11.0228 24.1631L13.4987 23.8169ZM16.6323 17.7663L16.9574 20.0924L19.4334 19.7462L19.1082 17.4202L16.6323 17.7663ZM13.3185 23.7803C13.3183 23.7805 13.3197 23.7791 13.3229 23.7766C13.3261 23.7742 13.3305 23.7712 13.3362 23.7681C13.3479 23.7616 13.3615 23.7564 13.3757 23.7533C13.4036 23.7472 13.425 23.7506 13.4384 23.7552C13.4517 23.7597 13.4664 23.7684 13.4796 23.784C13.4959 23.8031 13.4991 23.8197 13.4987 23.8169L11.0228 24.1631C11.295 26.1103 13.6817 26.9835 15.1053 25.5289L13.3185 23.7803ZM18.7636 21.7905C19.2937 21.2488 19.5375 20.4913 19.4334 19.7462L16.9574 20.0924C16.9564 20.0849 16.9571 20.0771 16.9596 20.0693C16.9621 20.0615 16.9673 20.0517 16.9768 20.0419L18.7636 21.7905ZM5.59525 8.41148L1.9369 12.1499L3.72368 13.8984L7.38204 10.16L5.59525 8.41148ZM3.3001 16.2548L6.71457 16.7533L7.07569 14.2795L3.66123 13.781L3.3001 16.2548ZM9.92108 8.04886L7.64477 7.71656L7.28364 10.1903L9.55995 10.5226L9.92108 8.04886ZM1.9369 12.1499C0.578698 13.5378 1.31344 15.9648 3.3001 16.2548L3.66123 13.781C3.66516 13.7816 3.67499 13.7838 3.68775 13.7898C3.70019 13.7956 3.71113 13.8031 3.7198 13.8108C3.73626 13.8254 3.74023 13.8366 3.74092 13.8387C3.74162 13.8409 3.74368 13.848 3.74076 13.8619C3.73918 13.8694 3.73628 13.8778 3.73203 13.8858C3.72998 13.8897 3.72795 13.8929 3.72623 13.8952C3.7245 13.8976 3.72348 13.8986 3.72368 13.8984L1.9369 12.1499ZM7.38204 10.16C7.36197 10.1805 7.32569 10.1965 7.28364 10.1903L7.64477 7.71656C6.88624 7.60583 6.1271 7.868 5.59525 8.41148L7.38204 10.16Z" fill="#AC82E3"/>
</svg>
