<svg width="86" height="77" viewBox="0 0 86 77" fill="none" xmlns="http://www.w3.org/2000/svg">
<path fill-rule="evenodd" clip-rule="evenodd" d="M14.5 19.54C14.5 16.2363 14.5 14.5844 15.1327 13.3181C15.7135 12.1558 16.6558 11.2135 17.8181 10.6327C19.0844 10 20.7363 10 24.04 10H42.1094L42.1094 37.2402H14.5V19.54ZM42.1094 41.1713H14.5V57.46C14.5 60.7637 14.5 62.4156 15.1327 63.6819C15.7135 64.8442 16.6558 65.7865 17.8181 66.3673C19.0844 67 20.7363 67 24.04 67L42.1094 67L42.1094 41.1713ZM46.0404 67L61.96 67C65.2637 67 66.9156 67 68.1819 66.3673C69.3442 65.7865 70.2865 64.8442 70.8673 63.6819C71.5 62.4156 71.5 60.7637 71.5 57.46V41.1713H46.0404V67ZM46.0404 37.2402V10H61.96C65.2637 10 66.9156 10 68.1819 10.6327C69.3442 11.2135 70.2865 12.1558 70.8673 13.3181C71.5 14.5844 71.5 16.2363 71.5 19.54V37.2402H46.0404ZM28.6463 30.4843C27.8816 30.4843 27.4992 30.0936 27.4992 29.3123V25.2225H23.4843C22.7361 25.2225 22.3621 24.8568 22.3621 24.1253C22.3621 23.3938 22.7361 23.028 23.4843 23.028H27.4992V19.0629C27.4992 18.2982 27.8816 17.9158 28.6463 17.9158C29.4111 17.9158 29.7934 18.2982 29.7934 19.0629V23.028H33.8084C34.5565 23.028 34.9306 23.3938 34.9306 24.1253C34.9306 24.8568 34.5565 25.2225 33.8084 25.2225H29.7934V29.3123C29.7934 30.0936 29.4111 30.4843 28.6463 30.4843ZM55.2044 26.2463C55.4983 26.5207 55.8608 26.6578 56.2919 26.6578H62.5521C62.9636 26.6578 63.3065 26.5207 63.5808 26.2463C63.8747 25.9524 64.0216 25.5998 64.0216 25.1883C64.0216 24.7572 63.8747 24.4045 63.5808 24.1302C63.3065 23.8559 62.9636 23.7188 62.5521 23.7188H56.2919C55.8608 23.7188 55.4983 23.8559 55.2044 24.1302C54.9301 24.4045 54.793 24.7572 54.793 25.1883C54.793 25.5998 54.9301 25.9524 55.2044 26.2463ZM24.5489 60.4428C24.2092 60.4428 23.9236 60.3502 23.6921 60.1649C23.4759 59.9642 23.3602 59.7095 23.3447 59.4008C23.3447 59.092 23.4759 58.7678 23.7384 58.4282L26.9339 54.4916L23.9699 50.833C23.6921 50.4933 23.5609 50.1691 23.5763 49.8604C23.5917 49.5516 23.7075 49.3046 23.9236 49.1194C24.1552 48.9187 24.4408 48.8184 24.7804 48.8184C25.1355 48.8184 25.4288 48.8801 25.6604 49.0036C25.9074 49.1271 26.1312 49.3201 26.3319 49.5825L28.6012 52.5002L30.8937 49.5825C31.1098 49.3201 31.3336 49.1271 31.5652 49.0036C31.7968 48.8801 32.0824 48.8184 32.422 48.8184C32.777 48.8184 33.0626 48.9187 33.2788 49.1194C33.4949 49.3201 33.6029 49.5748 33.6029 49.8835C33.6184 50.1923 33.4872 50.5165 33.2093 50.8561L30.2453 54.4916L33.464 58.4282C33.7419 58.7524 33.8731 59.0689 33.8577 59.3776C33.8422 59.6864 33.7187 59.9411 33.4872 60.1418C33.271 60.3425 32.9854 60.4428 32.6304 60.4428C32.0129 60.4428 31.5034 60.1881 31.1021 59.6786L28.578 56.5062L26.0772 59.6786C25.8765 59.9256 25.6604 60.1186 25.4288 60.2575C25.1972 60.3811 24.9039 60.4428 24.5489 60.4428ZM52.8276 51.804C52.8276 52.4833 53.175 52.8229 53.8697 52.8229H63.4564C64.151 52.8229 64.4984 52.4833 64.4984 51.804C64.4984 51.1248 64.151 50.7852 63.4564 50.7852H53.8697C53.175 50.7852 52.8276 51.1248 52.8276 51.804ZM52.8276 56.4121C52.8276 57.0914 53.175 57.431 53.8697 57.431H63.4564C64.151 57.431 64.4984 57.0914 64.4984 56.4121C64.4984 55.7483 64.151 55.4164 63.4564 55.4164H53.8697C53.175 55.4164 52.8276 55.7483 52.8276 56.4121Z" fill="#AC82E3"/>
</svg>
