<svg width="90" height="75" viewBox="0 0 90 75" fill="none" xmlns="http://www.w3.org/2000/svg">
<g clip-path="url(#clip0_123_1803)">
<path d="M38.1677 20.0045C38.9427 20.0614 39.5786 20.6433 39.7071 21.4134L43.7529 45.6479L48.7843 28.0013C48.9915 27.2747 49.6528 26.7739 50.4051 26.7742C51.1574 26.7745 51.8184 27.2757 52.025 28.0025L55.4368 40.0013L57.3943 36.6439C57.6967 36.1252 58.2502 35.8065 58.8485 35.8065H63.0212H64.3065C65.2418 35.8065 66 36.5647 66 37.5C66 38.4353 65.2418 39.1936 64.3065 39.1936H63.0212H59.8144L56.3531 45.1303C56.012 45.7152 55.3567 46.0394 54.6874 45.9543C54.018 45.8693 53.4637 45.3913 53.2783 44.7394L50.4023 34.6245L44.9426 53.7729C44.7258 54.5335 44.0136 55.0419 43.2274 54.9973C42.4412 54.9527 41.7905 54.367 41.6603 53.5866L37.5267 28.8258L34.5758 38.0198C34.3512 38.7194 33.7033 39.1936 32.9717 39.1936H25.6854C24.7546 39.1936 24 38.4353 24 37.5C24 36.5647 24.7546 35.8065 25.6854 35.8065H31.7444L36.4409 21.1738C36.6794 20.4306 37.3927 19.9477 38.1677 20.0045Z" fill="#AC82E3"/>
</g>
<defs>
<clipPath id="clip0_123_1803">
<rect width="90" height="75" fill="white"/>
</clipPath>
</defs>
</svg>
