<svg width="90" height="75" viewBox="0 0 90 75" fill="none" xmlns="http://www.w3.org/2000/svg">
<g clip-path="url(#clip0_123_1763)">
<path fill-rule="evenodd" clip-rule="evenodd" d="M41.5394 18.6169C40.9558 18.702 40.3841 18.8551 39.8362 19.0733C36.5742 20.372 34.639 23.749 35.1677 27.22L35.2409 27.7006C35.3316 28.2962 35.488 28.8798 35.7072 29.4409L37.8647 34.9633C43.0273 34.6122 48.2094 34.6426 53.3687 35.0545L56.8969 35.3362C59.1799 35.5184 61.0441 37.2346 61.4142 39.4948C62.2672 44.7039 62.2672 50.0171 61.4142 55.2262C61.0441 57.4864 59.1799 59.2025 56.8969 59.3848L53.3687 59.6665C47.7982 60.1112 42.2011 60.1112 36.6306 59.6665L33.1023 59.3848C30.8193 59.2025 28.9551 57.4864 28.585 55.2262C27.7321 50.0171 27.7321 44.7039 28.585 39.4948C28.9551 37.2346 30.8193 35.5184 33.1023 35.3362L34.1791 35.2502L32.4123 30.7282C32.0981 29.9238 31.8739 29.087 31.7438 28.2332L31.6706 27.7526C30.8942 22.6545 33.7366 17.6944 38.5277 15.7868C39.3325 15.4664 40.1722 15.2414 41.0294 15.1165C46.1324 14.373 51.074 17.2473 52.9507 22.0506L53.1276 22.5035C53.4419 23.3079 53.6661 24.1446 53.7961 24.9984L54.1294 27.1869C54.2275 27.8307 53.7851 28.4321 53.1413 28.5301L51.9756 28.7077C51.3318 28.8057 50.7304 28.3633 50.6324 27.7195L50.2991 25.531C50.2084 24.9355 50.052 24.3518 49.8328 23.7907L49.6558 23.3379C48.3782 20.0676 45.0137 18.1107 41.5394 18.6169ZM44.9996 43.8231C43.0459 43.8231 41.4622 45.4069 41.4622 47.3605C41.4622 49.3141 43.0459 50.8979 44.9996 50.8979C46.9532 50.8979 48.5369 49.3141 48.5369 47.3605C48.5369 45.4069 46.9532 43.8231 44.9996 43.8231Z" fill="#AC82E3"/>
</g>
<defs>
<clipPath id="clip0_123_1763">
<rect width="90" height="75" fill="white"/>
</clipPath>
</defs>
</svg>
