<svg width="46" height="47" viewBox="0 0 46 47" fill="none" xmlns="http://www.w3.org/2000/svg">
<rect y="0.792969" width="46" height="46" rx="23" fill="#1F1F3A"/>
<path d="M25 18.793C25 18.5168 25.2239 18.293 25.5 18.293H30.5C30.7761 18.293 31 18.5168 31 18.793C31 19.0691 30.7761 19.293 30.5 19.293H25.5C25.2239 19.293 25 19.0691 25 18.793Z" fill="white"/>
<path d="M19 23.793C19 23.5168 19.2239 23.293 19.5 23.293H30.5C30.7761 23.293 31 23.5168 31 23.793C31 24.0691 30.7761 24.293 30.5 24.293H19.5C19.2239 24.293 19 24.0691 19 23.793Z" fill="white"/>
<path d="M21 28.793C21 28.5168 21.2239 28.293 21.5 28.293H30.5C30.7761 28.293 31 28.5168 31 28.793C31 29.0691 30.7761 29.293 30.5 29.293H21.5C21.2239 29.293 21 29.0691 21 28.793Z" fill="white"/>
</svg>
