<svg width="1218" height="769" viewBox="0 0 1218 769" fill="none" xmlns="http://www.w3.org/2000/svg">
<mask id="path-1-inside-1_9_2025" fill="white">
<path fill-rule="evenodd" clip-rule="evenodd" d="M1125.22 19.6239C1112.66 7.05892 1095.62 0 1077.85 0H24C10.7452 0 0 10.7452 0 24V745C0 758.255 10.7452 769 24 769H1194C1207.25 769 1218 758.255 1218 745V140.154C1218 122.384 1210.94 105.342 1198.38 92.7775L1125.22 19.6239Z"/>
</mask>
<path fill-rule="evenodd" clip-rule="evenodd" d="M1125.22 19.6239C1112.66 7.05892 1095.62 0 1077.85 0H24C10.7452 0 0 10.7452 0 24V745C0 758.255 10.7452 769 24 769H1194C1207.25 769 1218 758.255 1218 745V140.154C1218 122.384 1210.94 105.342 1198.38 92.7775L1125.22 19.6239Z" fill="#222025"/>
<path fill-rule="evenodd" clip-rule="evenodd" d="M1125.22 19.6239C1112.66 7.05892 1095.62 0 1077.85 0H24C10.7452 0 0 10.7452 0 24V745C0 758.255 10.7452 769 24 769H1194C1207.25 769 1218 758.255 1218 745V140.154C1218 122.384 1210.94 105.342 1198.38 92.7775L1125.22 19.6239Z" fill="url(#paint0_linear_9_2025)" fill-opacity="0.8"/>
<path d="M1198.38 92.7775L1197.67 93.4846L1198.38 92.7775ZM24 1H1077.85V-1H24V1ZM1 24C1 11.2974 11.2975 1 24 1V-1C10.1929 -1 -1 10.1929 -1 24H1ZM1 745V24H-1V745H1ZM24 768C11.2975 768 1 757.703 1 745H-1C-1 758.807 10.1929 770 24 770V768ZM1194 768H24V770H1194V768ZM1217 745C1217 757.703 1206.7 768 1194 768V770C1207.81 770 1219 758.807 1219 745H1217ZM1217 140.154V745H1219V140.154H1217ZM1199.08 92.0704L1125.93 18.9167L1124.52 20.331L1197.67 93.4846L1199.08 92.0704ZM1219 140.154C1219 122.119 1211.84 104.823 1199.08 92.0704L1197.67 93.4846C1210.05 105.862 1217 122.649 1217 140.154H1219ZM1077.85 1C1095.35 1 1112.14 7.95356 1124.52 20.331L1125.93 18.9167C1113.18 6.16427 1095.88 -1 1077.85 -1V1Z" fill="url(#paint1_linear_9_2025)" mask="url(#path-1-inside-1_9_2025)"/>
<defs>
<linearGradient id="paint0_linear_9_2025" x1="-66" y1="669.5" x2="997" y2="487" gradientUnits="userSpaceOnUse">
<stop stop-opacity="0"/>
<stop offset="1" stop-color="#8313D3"/>
</linearGradient>
<linearGradient id="paint1_linear_9_2025" x1="798.5" y1="454.5" x2="51.5" y2="-15" gradientUnits="userSpaceOnUse">
<stop stop-color="#2E2D3E" stop-opacity="0"/>
<stop offset="1" stop-color="#4B4A69"/>
</linearGradient>
</defs>
</svg>
