<svg width="46" height="41" viewBox="0 0 46 41" fill="none" xmlns="http://www.w3.org/2000/svg">
<path d="M24.9107 1.07255C24.0594 -0.357513 21.9406 -0.357519 21.0893 1.07255L15.0936 11.1438C14.6731 11.8503 13.9462 12.3323 13.1176 12.4543L1.88139 14.1085C-0.00581482 14.3863 -0.667796 16.7088 0.801937 17.8956L9.17245 24.6551C9.94728 25.2808 10.3116 26.2677 10.1234 27.2312L7.93379 38.439C7.58766 40.2107 9.49586 41.5873 11.1331 40.747L21.7135 35.317C22.5187 34.9037 23.4813 34.9037 24.2865 35.317L34.8669 40.747C36.5041 41.5873 38.4123 40.2107 38.0662 38.439L35.8766 27.2312C35.6884 26.2677 36.0527 25.2808 36.8275 24.6551L45.1981 17.8956C46.6678 16.7088 46.0058 14.3863 44.1186 14.1085L32.8824 12.4543C32.0538 12.3323 31.3269 11.8503 30.9064 11.1438L24.9107 1.07255Z" fill="#FF6301"/>
</svg>
