<svg width="28" height="29" viewBox="0 0 28 29" fill="none" xmlns="http://www.w3.org/2000/svg">
<path d="M2 18.667V21.6667C2 23.5335 2 24.4663 2.29065 25.1793C2.54631 25.8065 2.95395 26.3175 3.45571 26.637C4.02558 27 4.77196 27 6.2625 27H26M2 18.667V2M2 18.667L7.13781 13.3151L7.14206 13.3108C8.07149 12.3427 8.5371 11.8577 9.04198 11.6606C9.63841 11.4279 10.2809 11.4647 10.858 11.764C11.3472 12.0177 11.7762 12.554 12.6342 13.6265L12.6428 13.6372C13.5142 14.7264 13.951 15.2724 14.4481 15.5256C15.0363 15.8251 15.6912 15.8509 16.2941 15.6009C16.8053 15.389 17.2721 14.8792 18.2056 13.8583L25.9997 5.33333" stroke="#AC82E3" stroke-width="2.5" stroke-linecap="round" stroke-linejoin="round"/>
</svg>
