<svg width="177" height="147" viewBox="0 0 177 147" fill="none" xmlns="http://www.w3.org/2000/svg">
<path d="M166.167 6C166.167 8.94552 168.554 11.3333 171.5 11.3333C174.446 11.3333 176.833 8.94552 176.833 6C176.833 3.05448 174.446 0.666667 171.5 0.666667C168.554 0.666667 166.167 3.05448 166.167 6ZM110 6V5H109.667L109.4 5.2L110 6ZM6 84L5.4 83.2L5 83.5V84H6ZM0.666667 141C0.666667 143.946 3.05448 146.333 6 146.333C8.94552 146.333 11.3333 143.946 11.3333 141C11.3333 138.054 8.94552 135.667 6 135.667C3.05448 135.667 0.666667 138.054 0.666667 141ZM171.5 5H110V7H171.5V5ZM109.4 5.2L5.4 83.2L6.6 84.8L110.6 6.8L109.4 5.2ZM5 84V141H7V84H5Z" fill="#CFAAAA"/>
</svg>
