<svg width="137" height="117" viewBox="0 0 137 117" fill="none" xmlns="http://www.w3.org/2000/svg">
<path d="M126.167 6C126.167 8.94552 128.554 11.3333 131.5 11.3333C134.446 11.3333 136.833 8.94552 136.833 6C136.833 3.05448 134.446 0.666667 131.5 0.666667C128.554 0.666667 126.167 3.05448 126.167 6ZM110 6V5H109.667L109.4 5.2L110 6ZM6 84L5.4 83.2L5 83.5V84H6ZM0.666667 111C0.666667 113.946 3.05448 116.333 6 116.333C8.94552 116.333 11.3333 113.946 11.3333 111C11.3333 108.054 8.94552 105.667 6 105.667C3.05448 105.667 0.666667 108.054 0.666667 111ZM131.5 5H110V7H131.5V5ZM109.4 5.2L5.4 83.2L6.6 84.8L110.6 6.8L109.4 5.2ZM5 84V111H7V84H5Z" fill="#CFAAAA"/>
</svg>
