<svg width="594" height="474" viewBox="0 0 594 474" fill="none" xmlns="http://www.w3.org/2000/svg">
<path d="M552.258 -20.2378L563.684 -102.621L484.416 -102.068M552.258 -20.2378L472.99 -19.6849M552.258 -20.2378L540.833 62.1448L461.565 62.6976M484.416 -102.068L472.99 -19.6849M484.416 -102.068L405.148 -101.515M472.99 -19.6849L461.565 62.6976M472.99 -19.6849L393.723 -19.1317M461.565 62.6976L382.298 63.2509M461.565 62.6976L450.139 145.08L370.871 145.633L382.298 63.2509M393.723 -19.1317L405.148 -101.515M393.723 -19.1317L382.298 63.2509M393.723 -19.1317L314.455 -18.58M405.148 -101.515L325.88 -100.963M382.298 63.2509L393.723 -19.1337L314.455 -18.58M382.298 63.2509L303.03 63.8026M382.298 63.2509L370.871 145.635M382.298 63.2509L303.029 63.8046L291.603 146.188M529.407 144.53L540.832 62.1469L461.565 62.6997L450.139 145.083M529.407 144.53L450.139 145.083M529.407 144.53L517.982 226.912M450.139 145.083L438.714 227.466M450.139 145.083L370.871 145.635M517.982 226.912L438.714 227.466M517.982 226.912L506.556 309.295M438.714 227.466L427.289 309.848M438.714 227.466L359.445 228.019M370.871 145.635L359.445 228.019M370.871 145.635L291.603 146.188M506.556 309.295L427.289 309.848M506.556 309.295L495.13 391.679M427.289 309.848L415.862 392.232M427.289 309.848L348.02 310.4M359.445 228.019L348.02 310.4M359.445 228.019L280.178 228.57M495.13 391.679L415.862 392.232M495.13 391.679L483.705 474.061M415.862 392.232L404.437 474.615M415.862 392.232L336.595 392.783L348.02 310.4M415.862 392.232L404.436 474.616M415.862 392.232L336.593 392.786M348.02 310.4L359.446 228.016L280.178 228.57M348.02 310.4L268.753 310.953L280.178 228.57M348.02 310.4L336.593 392.786M348.02 310.4L268.752 310.954M483.705 474.061L404.437 474.615M483.705 474.061L472.279 556.445L393.011 556.997M404.437 474.615L393.011 556.997M404.436 474.616L393.011 556.997M404.436 474.616L325.168 475.168M336.593 392.786L325.168 475.168M336.593 392.786L257.327 393.338M393.011 556.997L313.743 557.551M393.011 556.997L381.586 639.38M313.743 557.551L325.168 475.168M313.743 557.551L302.318 639.933M313.743 557.551L325.17 475.167L245.901 475.72M313.743 557.551L234.475 558.103M313.743 557.551L302.318 639.935M313.743 557.551L234.475 558.105L223.049 640.488M381.586 639.38L370.159 721.766M381.586 639.38L302.318 639.933M460.853 638.83L472.278 556.447L393.011 557L381.584 639.383M460.853 638.83L381.584 639.383M460.853 638.83L449.427 721.213L370.159 721.766M381.584 639.383L370.159 721.766M370.159 721.766L290.892 722.317M290.892 722.317L302.318 639.933M290.892 722.317L302.318 639.935M290.892 722.317L211.624 722.871L223.049 640.488M314.455 -18.58L325.88 -100.963M314.455 -18.58L303.03 63.8026M314.455 -18.58L235.186 -18.0268M325.88 -100.963L246.612 -100.41M303.03 63.8026L223.761 64.3559M303.03 63.8026L291.603 146.185L212.336 146.738M291.603 146.188L280.178 228.57M291.603 146.188L212.336 146.74M280.178 228.57L200.909 229.124M280.178 228.57L268.752 310.954M268.752 310.954L257.327 393.338M268.752 310.954L189.484 311.508M325.168 475.168L245.901 475.72M245.901 475.72L257.327 393.338M245.901 475.72L234.475 558.103M245.901 475.72L166.633 476.274M257.327 393.338L178.059 393.89M234.475 558.103L155.208 558.655M234.475 558.103L223.05 640.485L143.783 641.038L155.208 558.655M302.318 639.935L223.049 640.488M223.049 640.488L211.623 722.872L132.355 723.425M223.049 640.488L143.781 641.042M235.186 -18.0268L246.612 -100.41M235.186 -18.0268L223.761 64.3559M235.186 -18.0268L155.92 -17.475M246.612 -100.41L167.345 -99.8583M223.761 64.3559L212.336 146.738M223.761 64.3559L144.493 64.909M212.336 146.738L133.068 147.291M212.336 146.74L200.909 229.124M212.336 146.74L133.068 147.293M200.909 229.124L189.484 311.508M200.909 229.124L121.642 229.677M178.059 393.89L189.484 311.508M178.059 393.89L166.633 476.274M178.059 393.89L98.7903 394.444M189.484 311.508L110.215 312.061M166.633 476.274L155.208 558.655M166.633 476.274L87.3652 476.825M155.208 558.655L75.9388 559.209M132.355 723.425L143.781 641.042M132.355 723.425L53.0887 723.978M143.781 641.042L155.208 558.659L75.9388 559.212M143.781 641.042L64.5137 641.595M155.92 -17.475L167.345 -99.8583M155.92 -17.475L144.493 64.909M155.92 -17.475L76.6506 -16.9218M167.345 -99.8583L88.077 -99.3051M144.493 64.909L133.068 147.291M144.493 64.909L65.2255 65.4606M133.068 147.291L53.8004 147.845L65.2255 65.4606M121.642 229.677L133.068 147.293M121.642 229.677L110.215 312.061M121.642 229.677L42.3741 230.231M133.068 147.293L53.7992 147.847M110.215 312.061L98.7903 394.444M110.215 312.061L30.949 312.612M98.7903 394.444L87.3652 476.825M98.7903 394.444L110.217 312.058L30.949 312.612M98.7903 394.444L19.5239 394.995M87.3652 476.825L75.9388 559.209M87.3652 476.825L8.09753 477.379M75.9388 559.209L-3.32887 559.762M53.0887 723.978L64.5137 641.595M53.0887 723.978L-26.1803 724.53M75.9388 559.212L64.5137 641.595M75.9388 559.212L-3.32887 559.762M64.5137 641.595L-14.7539 642.146M76.6506 -16.9218L88.077 -99.3051M76.6506 -16.9218L65.2255 65.4606M76.6506 -16.9218L-2.61573 -16.3701M88.077 -99.3051L8.80933 -98.7534L-2.61573 -16.3701M65.2255 65.4606L-14.0421 66.0139L-2.61573 -16.3701M42.3741 230.231L53.7992 147.847M42.3741 230.231L30.949 312.612M42.3741 230.231L-36.8936 230.782M53.7992 147.847L65.2255 65.4634L-14.0421 66.0161L-25.4685 148.4M53.7992 147.847L-25.4685 148.4M30.949 312.612L19.5239 394.995M30.949 312.612L-48.32 313.166M19.5239 394.995L8.09753 477.379M19.5239 394.995L-59.7451 395.548M8.09753 477.379L-3.32887 559.762M8.09753 477.379L-71.1715 477.932M-3.32887 559.762L-14.7539 642.146M-3.32887 559.762L-82.5965 560.316M-14.7539 642.146L-26.1803 724.53M-14.7539 642.146L-94.0216 642.7M-26.1803 724.53L-105.448 725.081L-94.0216 642.7M-36.8936 230.782L-25.4685 148.4M-36.8936 230.782L-48.32 313.166M-48.32 313.166L-59.7451 395.548M-59.7451 395.548L-71.1715 477.932M-71.1715 477.932L-82.5965 560.316M-82.5965 560.316L-94.0216 642.7" stroke="url(#paint0_radial_9_1930)" stroke-opacity="0.3" stroke-width="0.5"/>
<defs>
<radialGradient id="paint0_radial_9_1930" cx="0" cy="0" r="1" gradientUnits="userSpaceOnUse" gradientTransform="translate(298.521 175.784) rotate(140.521) scale(405.547 1174.93)">
<stop stop-color="#FFF1E1"/>
<stop offset="1" stop-color="#A28760" stop-opacity="0"/>
</radialGradient>
</defs>
</svg>
