<svg width="44" height="26" viewBox="0 0 44 26" fill="none" xmlns="http://www.w3.org/2000/svg">
<path fill-rule="evenodd" clip-rule="evenodd" d="M37.9362 7.05042C41.9759 4.1227 34.009 1 22.5 1C10.991 1 3.02414 4.1227 7.06376 7.05042L8.8114 8.31703C12.9775 11.3364 12.9775 14.6636 8.81139 17.6829L7.06374 18.9496C3.02411 21.8773 10.991 25 22.5 25C34.009 25 41.9759 21.8773 37.9363 18.9496L36.1886 17.6829C32.0225 14.6636 32.0225 11.3364 36.1886 8.31702L37.9362 7.05042Z" fill="url(#paint0_linear_1119_2573)"/>
<path d="M21.596 4.3454C21.8533 4.23173 22.1467 4.23174 22.404 4.3454L39.9296 12.086C40.7243 12.437 40.7243 13.5646 39.9296 13.9155L22.4048 21.6554C22.1474 21.7691 21.8541 21.7691 21.5967 21.6554L4.0711 13.9148C3.27646 13.5638 3.27647 12.4363 4.07112 12.0853L21.596 4.3454Z" fill="url(#paint1_diamond_1119_2573)"/>
<defs>
<linearGradient id="paint0_linear_1119_2573" x1="22.5021" y1="23.7692" x2="22.5021" y2="2.5" gradientUnits="userSpaceOnUse">
<stop stop-color="#F66002"/>
<stop offset="0.305" stop-color="#F66002" stop-opacity="0.01"/>
<stop offset="0.71" stop-color="#F66002" stop-opacity="0.01"/>
<stop offset="1" stop-color="#F66002"/>
</linearGradient>
<radialGradient id="paint1_diamond_1119_2573" cx="0" cy="0" r="1" gradientUnits="userSpaceOnUse" gradientTransform="translate(22.0004 13.0004) rotate(89.9989) scale(23.0005 22.5606)">
<stop offset="0.13275" stop-color="white"/>
<stop offset="0.95" stop-color="white" stop-opacity="0"/>
</radialGradient>
</defs>
</svg>
