<svg width="323" height="449" viewBox="0 0 323 449" fill="none" xmlns="http://www.w3.org/2000/svg">
<path d="M0.792969 16C0.792969 7.16345 7.95641 0 16.793 0H66.6088C73.3871 0 79.4299 4.27115 81.6917 10.6609L94.1442 45.8391C96.4061 52.2289 102.449 56.5 109.227 56.5H208.168H306.293C315.13 56.5 322.293 63.6634 322.293 72.5V433C322.293 441.837 315.13 449 306.293 449H16.793C7.95641 449 0.792969 441.837 0.792969 433V16Z" fill="#1F1F3A"/>
<path d="M0.792969 16C0.792969 7.16345 7.95641 0 16.793 0H66.6088C73.3871 0 79.4299 4.27115 81.6917 10.6609L94.1442 45.8391C96.4061 52.2289 102.449 56.5 109.227 56.5H208.168H306.293C315.13 56.5 322.293 63.6634 322.293 72.5V433C322.293 441.837 315.13 449 306.293 449H16.793C7.95641 449 0.792969 441.837 0.792969 433V16Z" fill="url(#paint0_linear_351_11830)" fill-opacity="0.8"/>
<defs>
<linearGradient id="paint0_linear_351_11830" x1="0.792969" y1="224.5" x2="322.293" y2="224.5" gradientUnits="userSpaceOnUse">
<stop stop-opacity="0"/>
<stop offset="1" stop-color="#8313D3"/>
</linearGradient>
</defs>
</svg>
